<?xml version="1.0" encoding="UTF-8" standalone="no"?>
<!-- Created with Inkscape (http://www.inkscape.org/) -->

<svg
   version="1.1"
   id="svg1"
   width="272.12601"
   height="177.63776"
   viewBox="0 0 272.126 177.63776"
   sodipodi:docname="Schneider 2-63A 4P Isolator.pdf"
   xmlns:inkscape="http://www.inkscape.org/namespaces/inkscape"
   xmlns:sodipodi="http://sodipodi.sourceforge.net/DTD/sodipodi-0.dtd"
   xmlns="http://www.w3.org/2000/svg"
   xmlns:svg="http://www.w3.org/2000/svg">
  <defs
     id="defs1">
    <clipPath
       clipPathUnits="userSpaceOnUse"
       id="clipPath2">
      <path
         d="M 2539,4169 H 4239 V 5279 H 2539 V 4169"
         transform="translate(-2.0833333e-6,2.0833333e-4)"
         id="path2" />
    </clipPath>
    <clipPath
       clipPathUnits="userSpaceOnUse"
       id="clipPath4">
      <path
         d="M 2539,4169 H 4239 V 5279 H 2539 V 4169"
         transform="translate(-2.0833333e-6,2.0833333e-4)"
         id="path4" />
    </clipPath>
    <clipPath
       clipPathUnits="userSpaceOnUse"
       id="clipPath6">
      <path
         d="M 2539,4169 H 4239 V 5279 H 2539 V 4169"
         transform="translate(-2.0833333e-6,2.0833333e-4)"
         id="path6" />
    </clipPath>
    <clipPath
       clipPathUnits="userSpaceOnUse"
       id="clipPath8">
      <path
         d="M 2539,4169 H 4239 V 5279 H 2539 V 4169"
         transform="translate(-2.0833333e-6,2.0833333e-4)"
         id="path8" />
    </clipPath>
    <clipPath
       clipPathUnits="userSpaceOnUse"
       id="clipPath10">
      <path
         d="M 2539,4169 H 4239 V 5279 H 2539 V 4169"
         transform="translate(-2.0833333e-6,2.0833333e-4)"
         id="path10" />
    </clipPath>
    <clipPath
       clipPathUnits="userSpaceOnUse"
       id="clipPath12">
      <path
         d="M 2539,4169 H 4239 V 5279 H 2539 V 4169"
         transform="translate(-2.0833333e-6,2.0833333e-4)"
         id="path12" />
    </clipPath>
    <clipPath
       clipPathUnits="userSpaceOnUse"
       id="clipPath14">
      <path
         d="M 2539,4169 H 4239 V 5279 H 2539 V 4169"
         transform="translate(-2.0833333e-6,2.0833333e-4)"
         id="path14" />
    </clipPath>
    <clipPath
       clipPathUnits="userSpaceOnUse"
       id="clipPath16">
      <path
         d="M 2539,4169 H 4239 V 5279 H 2539 V 4169"
         transform="translate(-2.0833333e-6,2.0833333e-4)"
         id="path16" />
    </clipPath>
    <clipPath
       clipPathUnits="userSpaceOnUse"
       id="clipPath26">
      <path
         d="M 2539,4169 H 4239 V 5279 H 2539 V 4169"
         transform="translate(-2.0833333e-6,2.0833333e-4)"
         id="path26" />
    </clipPath>
    <clipPath
       clipPathUnits="userSpaceOnUse"
       id="clipPath28">
      <path
         d="M 2539,4169 H 4239 V 5279 H 2539 V 4169"
         transform="translate(-2.0833333e-6,2.0833333e-4)"
         id="path28" />
    </clipPath>
    <clipPath
       clipPathUnits="userSpaceOnUse"
       id="clipPath30">
      <path
         d="M 2539,4169 H 4239 V 5279 H 2539 V 4169"
         transform="translate(-2.0833333e-6,2.0833333e-4)"
         id="path30" />
    </clipPath>
    <clipPath
       clipPathUnits="userSpaceOnUse"
       id="clipPath32">
      <path
         d="M 2539,4169 H 4239 V 5279 H 2539 V 4169"
         transform="translate(-2.0833333e-6,2.0833333e-4)"
         id="path32" />
    </clipPath>
    <clipPath
       clipPathUnits="userSpaceOnUse"
       id="clipPath34">
      <path
         d="M 2539,4169 H 4239 V 5279 H 2539 V 4169"
         transform="translate(-2.0833333e-6,2.0833333e-4)"
         id="path34" />
    </clipPath>
    <clipPath
       clipPathUnits="userSpaceOnUse"
       id="clipPath36">
      <path
         d="M 2539,4169 H 4239 V 5279 H 2539 V 4169"
         transform="translate(-2.0833333e-6,2.0833333e-4)"
         id="path36" />
    </clipPath>
    <clipPath
       clipPathUnits="userSpaceOnUse"
       id="clipPath38">
      <path
         d="M 2539,4169 H 4239 V 5279 H 2539 V 4169"
         transform="translate(-2.0833333e-6,2.0833333e-4)"
         id="path38" />
    </clipPath>
    <clipPath
       clipPathUnits="userSpaceOnUse"
       id="clipPath40">
      <path
         d="M 2539,4169 H 4239 V 5279 H 2539 V 4169"
         transform="translate(-2.0833333e-6,2.0833333e-4)"
         id="path40" />
    </clipPath>
    <clipPath
       clipPathUnits="userSpaceOnUse"
       id="clipPath42">
      <path
         d="M 2539,4169 H 4239 V 5279 H 2539 V 4169"
         transform="translate(-2.0833333e-6,2.0833333e-4)"
         id="path42" />
    </clipPath>
    <clipPath
       clipPathUnits="userSpaceOnUse"
       id="clipPath47">
      <path
         d="M 2539,4169 H 4239 V 5279 H 2539 V 4169"
         transform="translate(-2.0833333e-6,2.0833333e-4)"
         id="path47" />
    </clipPath>
  </defs>
  <sodipodi:namedview
     id="namedview1"
     pagecolor="#505050"
     bordercolor="#eeeeee"
     borderopacity="1"
     inkscape:showpageshadow="0"
     inkscape:pageopacity="0"
     inkscape:pagecheckerboard="0"
     inkscape:deskcolor="#505050" />
  <g
     id="layer-oc17"
     inkscape:groupmode="layer"
     inkscape:label="Isolator"
     transform="translate(-424.42665,-705.70673)">
    <path
       id="path1"
       d="m 3813,4169 h 333 l -333,1109 z m 333,0 -333,1109 h 93 z"
       style="fill:#d6d6d6;fill-opacity:1;fill-rule:nonzero;stroke:#d6d6d6;stroke-width:1;stroke-linecap:butt;stroke-linejoin:miter;stroke-miterlimit:10;stroke-dasharray:none;stroke-opacity:1"
       transform="matrix(0.15960519,0,0,-0.15931564,19.667464,1547.053)"
       clip-path="url(#clipPath2)" />
    <path
       id="path3"
       d="m 4146,4169 h 92 l -332,1109 z m 92,0 -332,1109 h 332 z"
       style="fill:#d6d6d6;fill-opacity:1;fill-rule:nonzero;stroke:#d6d6d6;stroke-width:1;stroke-linecap:butt;stroke-linejoin:miter;stroke-miterlimit:10;stroke-dasharray:none;stroke-opacity:1"
       transform="matrix(0.15960519,0,0,-0.15931564,19.667464,1547.053)"
       clip-path="url(#clipPath4)" />
    <path
       id="path5"
       d="m 3389,4169 h 332 l -332,1109 z m 332,0 -332,1109 h 92 z"
       style="fill:#d6d6d6;fill-opacity:1;fill-rule:nonzero;stroke:#d6d6d6;stroke-width:1;stroke-linecap:butt;stroke-linejoin:miter;stroke-miterlimit:10;stroke-dasharray:none;stroke-opacity:1"
       transform="matrix(0.15960519,0,0,-0.15931564,19.667464,1547.053)"
       clip-path="url(#clipPath6)" />
    <path
       id="path7"
       d="m 3721,4169 h 92 l -332,1109 z m 92,0 -332,1109 h 332 z"
       style="fill:#d6d6d6;fill-opacity:1;fill-rule:nonzero;stroke:#d6d6d6;stroke-width:1;stroke-linecap:butt;stroke-linejoin:miter;stroke-miterlimit:10;stroke-dasharray:none;stroke-opacity:1"
       transform="matrix(0.15960519,0,0,-0.15931564,19.667464,1547.053)"
       clip-path="url(#clipPath8)" />
    <path
       id="path9"
       d="m 2964,4169 h 332 l -332,1109 z m 332,0 -332,1109 h 92 z"
       style="fill:#d6d6d6;fill-opacity:1;fill-rule:nonzero;stroke:#d6d6d6;stroke-width:1;stroke-linecap:butt;stroke-linejoin:miter;stroke-miterlimit:10;stroke-dasharray:none;stroke-opacity:1"
       transform="matrix(0.15960519,0,0,-0.15931564,19.667464,1547.053)"
       clip-path="url(#clipPath10)" />
    <path
       id="path11"
       d="m 3296,4169 h 93 l -333,1109 z m 93,0 -333,1109 h 333 z"
       style="fill:#d6d6d6;fill-opacity:1;fill-rule:nonzero;stroke:#d6d6d6;stroke-width:1;stroke-linecap:butt;stroke-linejoin:miter;stroke-miterlimit:10;stroke-dasharray:none;stroke-opacity:1"
       transform="matrix(0.15960519,0,0,-0.15931564,19.667464,1547.053)"
       clip-path="url(#clipPath12)" />
    <path
       id="path13"
       d="m 2539,4169 h 332 l -332,1109 z m 332,0 -332,1109 h 92 z"
       style="fill:#d6d6d6;fill-opacity:1;fill-rule:nonzero;stroke:#d6d6d6;stroke-width:1;stroke-linecap:butt;stroke-linejoin:miter;stroke-miterlimit:10;stroke-dasharray:none;stroke-opacity:1"
       transform="matrix(0.15960519,0,0,-0.15931564,19.667464,1547.053)"
       clip-path="url(#clipPath14)" />
    <path
       id="path15"
       d="m 2871,4169 h 93 l -333,1109 z m 93,0 -333,1109 h 333 z"
       style="fill:#d6d6d6;fill-opacity:1;fill-rule:nonzero;stroke:#d6d6d6;stroke-width:1;stroke-linecap:butt;stroke-linejoin:miter;stroke-miterlimit:10;stroke-dasharray:none;stroke-opacity:1"
       transform="matrix(0.15960519,0,0,-0.15931564,19.667464,1547.053)"
       clip-path="url(#clipPath16)" />
    <path
       id="path17"
       d="M 492.73726,706.18508 V 882.86612"
       style="fill:none;stroke:#000000;stroke-width:0.956762;stroke-linecap:round;stroke-linejoin:round;stroke-miterlimit:10;stroke-dasharray:none;stroke-opacity:1" />
    <path
       id="path18"
       d="M 424.90504,882.86612 V 706.18508"
       style="fill:none;stroke:#000000;stroke-width:0.956762;stroke-linecap:round;stroke-linejoin:round;stroke-miterlimit:10;stroke-dasharray:none;stroke-opacity:1" />
    <path
       id="path19"
       d="M 560.56946,706.18508 V 882.86612"
       style="fill:none;stroke:#000000;stroke-width:0.956762;stroke-linecap:round;stroke-linejoin:round;stroke-miterlimit:10;stroke-dasharray:none;stroke-opacity:1" />
    <path
       id="path20"
       d="M 492.73726,882.86612 V 706.18508"
       style="fill:none;stroke:#000000;stroke-width:0.956762;stroke-linecap:round;stroke-linejoin:round;stroke-miterlimit:10;stroke-dasharray:none;stroke-opacity:1" />
    <path
       id="path21"
       d="M 628.24206,706.18508 V 882.86612"
       style="fill:none;stroke:#000000;stroke-width:0.956762;stroke-linecap:round;stroke-linejoin:round;stroke-miterlimit:10;stroke-dasharray:none;stroke-opacity:1" />
    <path
       id="path22"
       d="M 560.56946,882.86612 V 706.18508"
       style="fill:none;stroke:#000000;stroke-width:0.956762;stroke-linecap:round;stroke-linejoin:round;stroke-miterlimit:10;stroke-dasharray:none;stroke-opacity:1" />
    <path
       id="path23"
       d="M 696.07427,706.18508 V 882.86612"
       style="fill:none;stroke:#000000;stroke-width:0.956762;stroke-linecap:round;stroke-linejoin:round;stroke-miterlimit:10;stroke-dasharray:none;stroke-opacity:1" />
    <path
       id="path24"
       d="M 628.24206,882.86612 V 706.18508"
       style="fill:none;stroke:#000000;stroke-width:0.956762;stroke-linecap:round;stroke-linejoin:round;stroke-miterlimit:10;stroke-dasharray:none;stroke-opacity:1" />
    <path
       id="path25"
       d="m 4215,5219 h -378 l 378,-35 z m -378,0 378,-35 h -378 z"
       style="fill:#007f1d;fill-opacity:1;fill-rule:nonzero;stroke:#007f1d;stroke-width:1;stroke-linecap:round;stroke-linejoin:miter;stroke-miterlimit:10;stroke-dasharray:none;stroke-opacity:1"
       transform="matrix(0.15960519,0,0,-0.15931564,19.667464,1547.053)"
       clip-path="url(#clipPath26)" />
    <path
       id="path27"
       d="m 3790,5219 h -378 l 378,-35 z m -378,0 378,-35 h -378 z"
       style="fill:#007f1d;fill-opacity:1;fill-rule:nonzero;stroke:#007f1d;stroke-width:1;stroke-linecap:round;stroke-linejoin:miter;stroke-miterlimit:10;stroke-dasharray:none;stroke-opacity:1"
       transform="matrix(0.15960519,0,0,-0.15931564,19.667464,1547.053)"
       clip-path="url(#clipPath28)" />
    <path
       id="path29"
       d="m 3365,5219 h -378 l 378,-35 z m -378,0 378,-35 h -378 z"
       style="fill:#007f1d;fill-opacity:1;fill-rule:nonzero;stroke:#007f1d;stroke-width:1;stroke-linecap:round;stroke-linejoin:miter;stroke-miterlimit:10;stroke-dasharray:none;stroke-opacity:1"
       transform="matrix(0.15960519,0,0,-0.15931564,19.667464,1547.053)"
       clip-path="url(#clipPath30)" />
    <path
       id="path31"
       d="m 2940,5219 h -378 l 378,-35 z m -378,0 378,-35 h -378 z"
       style="fill:#007f1d;fill-opacity:1;fill-rule:nonzero;stroke:#007f1d;stroke-width:1;stroke-linecap:round;stroke-linejoin:miter;stroke-miterlimit:10;stroke-dasharray:none;stroke-opacity:1"
       transform="matrix(0.15960519,0,0,-0.15931564,19.667464,1547.053)"
       clip-path="url(#clipPath32)" />
    <path
       id="path33"
       d="M 4191,4452 H 2586 l 1605,-165 z m -1605,0 1605,-165 H 2586 Z"
       style="fill:#ff0000;fill-opacity:1;fill-rule:nonzero;stroke:#ff0000;stroke-width:1;stroke-linecap:round;stroke-linejoin:miter;stroke-miterlimit:10;stroke-dasharray:none;stroke-opacity:1"
       transform="matrix(0.15960519,0,0,-0.15931564,19.667464,1547.053)"
       clip-path="url(#clipPath34)" />
    <path
       id="path35"
       d="m 4141,4688 h -230 l 230,-24 z m -230,0 230,-24 h -230 z"
       style="fill:#007f1d;fill-opacity:1;fill-rule:nonzero;stroke:#007f1d;stroke-width:1;stroke-linecap:round;stroke-linejoin:miter;stroke-miterlimit:10;stroke-dasharray:none;stroke-opacity:1"
       transform="matrix(0.15960519,0,0,-0.15931564,19.667464,1547.053)"
       clip-path="url(#clipPath36)" />
    <path
       id="path37"
       d="m 3716,4688 h -230 l 230,-24 z m -230,0 230,-24 h -230 z"
       style="fill:#007f1d;fill-opacity:1;fill-rule:nonzero;stroke:#007f1d;stroke-width:1;stroke-linecap:round;stroke-linejoin:miter;stroke-miterlimit:10;stroke-dasharray:none;stroke-opacity:1"
       transform="matrix(0.15960519,0,0,-0.15931564,19.667464,1547.053)"
       clip-path="url(#clipPath38)" />
    <path
       id="path39"
       d="m 3291,4688 h -230 l 230,-24 z m -230,0 230,-24 h -230 z"
       style="fill:#007f1d;fill-opacity:1;fill-rule:nonzero;stroke:#007f1d;stroke-width:1;stroke-linecap:round;stroke-linejoin:miter;stroke-miterlimit:10;stroke-dasharray:none;stroke-opacity:1"
       transform="matrix(0.15960519,0,0,-0.15931564,19.667464,1547.053)"
       clip-path="url(#clipPath40)" />
    <path
       id="path41"
       d="m 2866,4688 h -230 l 230,-24 z m -230,0 230,-24 h -230 z"
       style="fill:#007f1d;fill-opacity:1;fill-rule:nonzero;stroke:#007f1d;stroke-width:1;stroke-linecap:round;stroke-linejoin:miter;stroke-miterlimit:10;stroke-dasharray:none;stroke-opacity:1"
       transform="matrix(0.15960519,0,0,-0.15931564,19.667464,1547.053)"
       clip-path="url(#clipPath42)" />
    <path
       id="path43"
       d="m 424.90504,800.18131 h 67.83222 67.8322 67.6726"
       style="fill:none;stroke:#000000;stroke-width:0.956762;stroke-linecap:round;stroke-linejoin:round;stroke-miterlimit:10;stroke-dasharray:none;stroke-opacity:1" />
    <path
       id="path44"
       d="m 440.38675,837.7798 h 36.7092"
       style="fill:none;stroke:#000000;stroke-width:0.956762;stroke-linecap:round;stroke-linejoin:round;stroke-miterlimit:10;stroke-dasharray:none;stroke-opacity:1" />
    <path
       id="path46"
       d="m 3061,4452 h 230"
       style="fill:none;stroke:#000000;stroke-width:6;stroke-linecap:round;stroke-linejoin:round;stroke-miterlimit:10;stroke-dasharray:none;stroke-opacity:1"
       transform="matrix(0.15960519,0,0,-0.15931564,19.667464,1547.053)"
       clip-path="url(#clipPath47)" />
    <path
       id="path49"
       d="m 576.05117,837.7798 h 36.70919"
       style="fill:none;stroke:#000000;stroke-width:0.956762;stroke-linecap:round;stroke-linejoin:round;stroke-miterlimit:10;stroke-dasharray:none;stroke-opacity:1" />
    <path
       id="path51"
       d="m 628.24206,800.18131 h 67.83221"
       style="fill:none;stroke:#000000;stroke-width:0.956762;stroke-linecap:round;stroke-linejoin:round;stroke-miterlimit:10;stroke-dasharray:none;stroke-opacity:1" />
    <path
       id="path52"
       d="m 643.88337,837.7798 h 36.7092"
       style="fill:none;stroke:#000000;stroke-width:0.956762;stroke-linecap:round;stroke-linejoin:round;stroke-miterlimit:10;stroke-dasharray:none;stroke-opacity:1" />
    <path
       id="path54"
       d="m 643.88337,837.7798 h 36.7092"
       style="fill:none;stroke:#000000;stroke-width:0.956762;stroke-linecap:round;stroke-linejoin:round;stroke-miterlimit:10;stroke-dasharray:none;stroke-opacity:1" />
    <path
       id="path55"
       d="m 612.76036,837.7798 h 31.12301 v -37.59849 h 36.7092 v 37.59849 h 7.98026 v 26.28708 H 432.40649 V 837.7798 h 7.98026 v -37.59849 h 36.7092 v 37.59849 h 31.123 v -37.59849 h 36.7092 v 37.59849 h 31.12302 v -37.59849 h 36.70919 v 37.59849"
       style="fill:none;stroke:#000000;stroke-width:0.956762;stroke-linecap:round;stroke-linejoin:round;stroke-miterlimit:10;stroke-dasharray:none;stroke-opacity:1" />
    <path
       id="path56"
       d="m 428.57597,715.5847 h 60.33076 v 5.57605 h -60.33076 v -5.57605"
       style="fill:none;stroke:#000000;stroke-width:0.956762;stroke-linecap:round;stroke-linejoin:round;stroke-miterlimit:10;stroke-dasharray:none;stroke-opacity:1" />
    <path
       id="path57"
       d="m 424.90504,709.84934 h 67.83222"
       style="fill:none;stroke:#000000;stroke-width:0.956762;stroke-linecap:round;stroke-linejoin:round;stroke-miterlimit:10;stroke-dasharray:none;stroke-opacity:1" />
    <path
       id="path58"
       d="m 424.90504,879.20186 h 67.83222"
       style="fill:none;stroke:#000000;stroke-width:0.956762;stroke-linecap:round;stroke-linejoin:round;stroke-miterlimit:10;stroke-dasharray:none;stroke-opacity:1" />
    <path
       id="path59"
       d="m 496.40818,715.5847 h 60.33076 v 5.57605 h -60.33076 v -5.57605"
       style="fill:none;stroke:#000000;stroke-width:0.956762;stroke-linecap:round;stroke-linejoin:round;stroke-miterlimit:10;stroke-dasharray:none;stroke-opacity:1" />
    <path
       id="path60"
       d="m 492.73726,709.84934 h 67.8322"
       style="fill:none;stroke:#000000;stroke-width:0.956762;stroke-linecap:round;stroke-linejoin:round;stroke-miterlimit:10;stroke-dasharray:none;stroke-opacity:1" />
    <path
       id="path61"
       d="m 492.73726,879.20186 h 67.8322"
       style="fill:none;stroke:#000000;stroke-width:0.956762;stroke-linecap:round;stroke-linejoin:round;stroke-miterlimit:10;stroke-dasharray:none;stroke-opacity:1" />
    <path
       id="path62"
       d="m 564.24038,715.5847 h 60.33077 v 5.57605 h -60.33077 v -5.57605"
       style="fill:none;stroke:#000000;stroke-width:0.956762;stroke-linecap:round;stroke-linejoin:round;stroke-miterlimit:10;stroke-dasharray:none;stroke-opacity:1" />
    <path
       id="path63"
       d="m 560.56946,709.84934 h 67.6726"
       style="fill:none;stroke:#000000;stroke-width:0.956762;stroke-linecap:round;stroke-linejoin:round;stroke-miterlimit:10;stroke-dasharray:none;stroke-opacity:1" />
    <path
       id="path64"
       d="m 560.56946,879.20186 h 67.6726"
       style="fill:none;stroke:#000000;stroke-width:0.956762;stroke-linecap:round;stroke-linejoin:round;stroke-miterlimit:10;stroke-dasharray:none;stroke-opacity:1" />
    <path
       id="path65"
       d="m 632.07259,715.5847 h 60.33076 v 5.57605 h -60.33076 v -5.57605"
       style="fill:none;stroke:#000000;stroke-width:0.956762;stroke-linecap:round;stroke-linejoin:round;stroke-miterlimit:10;stroke-dasharray:none;stroke-opacity:1" />
    <path
       id="path66"
       d="m 628.24206,709.84934 h 67.83221"
       style="fill:none;stroke:#000000;stroke-width:0.956762;stroke-linecap:round;stroke-linejoin:round;stroke-miterlimit:10;stroke-dasharray:none;stroke-opacity:1" />
    <path
       id="path67"
       d="m 628.24206,879.20186 h 67.83221"
       style="fill:none;stroke:#000000;stroke-width:0.956762;stroke-linecap:round;stroke-linejoin:round;stroke-miterlimit:10;stroke-dasharray:none;stroke-opacity:1" />
  </g>
  <g
     id="layer-oc2"
     inkscape:groupmode="layer"
     inkscape:label="Breakers"
     transform="translate(-424.42665,-705.70673)">
    <path
       id="path45"
       d="m 440.38675,804.00488 h 36.7092 v -3.82357 h -36.7092 v 3.82357"
       style="fill:none;stroke:#000000;stroke-width:0.956762;stroke-linecap:round;stroke-linejoin:round;stroke-miterlimit:10;stroke-dasharray:none;stroke-opacity:1" />
    <path
       id="path48"
       d="m 508.21895,804.00488 h 36.7092 v -3.82357 h -36.7092 v 3.82357"
       style="fill:none;stroke:#000000;stroke-width:0.956762;stroke-linecap:round;stroke-linejoin:round;stroke-miterlimit:10;stroke-dasharray:none;stroke-opacity:1" />
    <path
       id="path50"
       d="m 576.05117,804.00488 h 36.70919 v -3.82357 h -36.70919 v 3.82357"
       style="fill:none;stroke:#000000;stroke-width:0.956762;stroke-linecap:round;stroke-linejoin:round;stroke-miterlimit:10;stroke-dasharray:none;stroke-opacity:1" />
    <path
       id="path53"
       d="m 643.88337,804.00488 h 36.7092 v -3.82357 h -36.7092 v 3.82357"
       style="fill:none;stroke:#000000;stroke-width:0.956762;stroke-linecap:round;stroke-linejoin:round;stroke-miterlimit:10;stroke-dasharray:none;stroke-opacity:1" />
  </g>
  <g
     id="layer-oc4"
     inkscape:groupmode="layer"
     inkscape:label="0"
     transform="translate(-424.42665,-705.70673)">
    <path
       id="path68"
       d="M 696.07427,706.18508 H 424.90504"
       style="fill:none;stroke:#ffffff;stroke-width:0.15946;stroke-linecap:round;stroke-linejoin:round;stroke-miterlimit:10;stroke-dasharray:none;stroke-opacity:1" />
    <path
       id="path69"
       d="M 696.07427,706.18508 H 424.90504"
       style="fill:none;stroke:#000000;stroke-width:0.956762;stroke-linecap:round;stroke-linejoin:round;stroke-miterlimit:10;stroke-dasharray:none;stroke-opacity:1" />
    <path
       id="path70"
       d="M 696.07427,882.86612 H 424.90504"
       style="fill:none;stroke:#ffffff;stroke-width:0.15946;stroke-linecap:round;stroke-linejoin:round;stroke-miterlimit:10;stroke-dasharray:none;stroke-opacity:1" />
    <path
       id="path71"
       d="M 696.07427,882.86612 H 424.90504"
       style="fill:none;stroke:#000000;stroke-width:0.956762;stroke-linecap:round;stroke-linejoin:round;stroke-miterlimit:10;stroke-dasharray:none;stroke-opacity:1" />
  </g>
</svg>
