<?xml version="1.0" encoding="UTF-8" standalone="no"?>
<!-- Created with Inkscape (http://www.inkscape.org/) -->

<svg
   version="1.1"
   id="svg1"
   width="238.11026"
   height="177.63776"
   viewBox="0 0 238.11025 177.63776"
   sodipodi:docname="Schneider 2-63A 3P MCB with Aux.pdf"
   xmlns:inkscape="http://www.inkscape.org/namespaces/inkscape"
   xmlns:sodipodi="http://sodipodi.sourceforge.net/DTD/sodipodi-0.dtd"
   xmlns="http://www.w3.org/2000/svg"
   xmlns:svg="http://www.w3.org/2000/svg">
  <defs
     id="defs1">
    <clipPath
       clipPathUnits="userSpaceOnUse"
       id="clipPath2">
      <path
         d="M 2646,4169 H 4134 V 5279 H 2646 V 4169"
         transform="translate(-2.0833333e-6,2.0833333e-4)"
         id="path2" />
    </clipPath>
    <clipPath
       clipPathUnits="userSpaceOnUse"
       id="clipPath4">
      <path
         d="M 2646,4169 H 4134 V 5279 H 2646 V 4169"
         transform="translate(-2.0833333e-6,2.0833333e-4)"
         id="path4" />
    </clipPath>
    <clipPath
       clipPathUnits="userSpaceOnUse"
       id="clipPath6">
      <path
         d="M 2646,4169 H 4134 V 5279 H 2646 V 4169"
         transform="translate(-2.0833333e-6,2.0833333e-4)"
         id="path6" />
    </clipPath>
    <clipPath
       clipPathUnits="userSpaceOnUse"
       id="clipPath8">
      <path
         d="M 2646,4169 H 4134 V 5279 H 2646 V 4169"
         transform="translate(-2.0833333e-6,2.0833333e-4)"
         id="path8" />
    </clipPath>
    <clipPath
       clipPathUnits="userSpaceOnUse"
       id="clipPath10">
      <path
         d="M 2646,4169 H 4134 V 5279 H 2646 V 4169"
         transform="translate(-2.0833333e-6,2.0833333e-4)"
         id="path10" />
    </clipPath>
    <clipPath
       clipPathUnits="userSpaceOnUse"
       id="clipPath12">
      <path
         d="M 2646,4169 H 4134 V 5279 H 2646 V 4169"
         transform="translate(-2.0833333e-6,2.0833333e-4)"
         id="path12" />
    </clipPath>
    <clipPath
       clipPathUnits="userSpaceOnUse"
       id="clipPath23">
      <path
         d="M 2646,4169 H 4134 V 5279 H 2646 V 4169"
         transform="translate(-2.0833333e-6,2.0833333e-4)"
         id="path23" />
    </clipPath>
    <clipPath
       clipPathUnits="userSpaceOnUse"
       id="clipPath26">
      <path
         d="M 2646,4169 H 4134 V 5279 H 2646 V 4169"
         transform="translate(-2.0833333e-6,2.0833333e-4)"
         id="path26" />
    </clipPath>
    <clipPath
       clipPathUnits="userSpaceOnUse"
       id="clipPath29">
      <path
         d="M 2646,4169 H 4134 V 5279 H 2646 V 4169"
         transform="translate(-2.0833333e-6,2.0833333e-4)"
         id="path29" />
    </clipPath>
    <clipPath
       clipPathUnits="userSpaceOnUse"
       id="clipPath31">
      <path
         d="M 2646,4169 H 4134 V 5279 H 2646 V 4169"
         transform="translate(-2.0833333e-6,2.0833333e-4)"
         id="path31" />
    </clipPath>
    <clipPath
       clipPathUnits="userSpaceOnUse"
       id="clipPath33">
      <path
         d="M 2646,4169 H 4134 V 5279 H 2646 V 4169"
         transform="translate(-2.0833333e-6,2.0833333e-4)"
         id="path33" />
    </clipPath>
    <clipPath
       clipPathUnits="userSpaceOnUse"
       id="clipPath35">
      <path
         d="M 2646,4169 H 4134 V 5279 H 2646 V 4169"
         transform="translate(-2.0833333e-6,2.0833333e-4)"
         id="path35" />
    </clipPath>
    <clipPath
       clipPathUnits="userSpaceOnUse"
       id="clipPath37">
      <path
         d="M 2646,4169 H 4134 V 5279 H 2646 V 4169"
         transform="translate(-2.0833333e-6,2.0833333e-4)"
         id="path37" />
    </clipPath>
    <clipPath
       clipPathUnits="userSpaceOnUse"
       id="clipPath39">
      <path
         d="M 2646,4169 H 4134 V 5279 H 2646 V 4169"
         transform="translate(-2.0833333e-6,2.0833333e-4)"
         id="path39" />
    </clipPath>
    <clipPath
       clipPathUnits="userSpaceOnUse"
       id="clipPath41">
      <path
         d="M 2646,4169 H 4134 V 5279 H 2646 V 4169"
         transform="translate(-2.0833333e-6,2.0833333e-4)"
         id="path41" />
    </clipPath>
    <clipPath
       clipPathUnits="userSpaceOnUse"
       id="clipPath44">
      <path
         d="M 2646,4169 H 4134 V 5279 H 2646 V 4169"
         transform="translate(-2.0833333e-6,2.0833333e-4)"
         id="path44" />
    </clipPath>
    <clipPath
       clipPathUnits="userSpaceOnUse"
       id="clipPath48">
      <path
         d="M 2646,4169 H 4134 V 5279 H 2646 V 4169"
         transform="translate(-2.0833333e-6,2.0833333e-4)"
         id="path48" />
    </clipPath>
    <clipPath
       clipPathUnits="userSpaceOnUse"
       id="clipPath51">
      <path
         d="M 2646,4169 H 4134 V 5279 H 2646 V 4169"
         transform="translate(-2.0833333e-6,2.0833333e-4)"
         id="path51" />
    </clipPath>
    <clipPath
       clipPathUnits="userSpaceOnUse"
       id="clipPath55">
      <path
         d="M 2646,4169 H 4134 V 5279 H 2646 V 4169"
         transform="translate(-2.0833333e-6,2.0833333e-4)"
         id="path55" />
    </clipPath>
    <clipPath
       clipPathUnits="userSpaceOnUse"
       id="clipPath59">
      <path
         d="M 2646,4169 H 4134 V 5279 H 2646 V 4169"
         transform="translate(-2.0833333e-6,2.0833333e-4)"
         id="path59" />
    </clipPath>
    <clipPath
       clipPathUnits="userSpaceOnUse"
       id="clipPath62">
      <path
         d="M 2646,4169 H 4134 V 5279 H 2646 V 4169"
         transform="translate(-2.0833333e-6,2.0833333e-4)"
         id="path62" />
    </clipPath>
    <clipPath
       clipPathUnits="userSpaceOnUse"
       id="clipPath64">
      <path
         d="M 2646,4169 H 4134 V 5279 H 2646 V 4169"
         transform="translate(-2.0833333e-6,2.0833333e-4)"
         id="path64" />
    </clipPath>
    <clipPath
       clipPathUnits="userSpaceOnUse"
       id="clipPath70">
      <path
         d="M 2646,4169 H 4134 V 5279 H 2646 V 4169"
         transform="translate(-2.0833333e-6,2.0833333e-4)"
         id="path70" />
    </clipPath>
  </defs>
  <sodipodi:namedview
     id="namedview1"
     pagecolor="#505050"
     bordercolor="#eeeeee"
     borderopacity="1"
     inkscape:showpageshadow="0"
     inkscape:pageopacity="0"
     inkscape:pagecheckerboard="0"
     inkscape:deskcolor="#505050" />
  <g
     id="layer-oc2"
     inkscape:groupmode="layer"
     inkscape:label="Breakers"
     transform="translate(-441.54665,-705.70673)">
    <path
       id="path1"
       d="m 3496,4169 h 333 l -333,1109 z m 333,0 -333,1109 h 92 z"
       style="fill:#d6d6d6;fill-opacity:1;fill-rule:nonzero;stroke:#d6d6d6;stroke-width:1;stroke-linecap:butt;stroke-linejoin:miter;stroke-miterlimit:10;stroke-dasharray:none;stroke-opacity:1"
       transform="matrix(0.15948476,0,0,-0.15931595,20.028193,1547.0545)"
       clip-path="url(#clipPath2)" />
    <path
       id="path3"
       d="m 3829,4169 h 92 l -333,1109 z m 92,0 -333,1109 h 333 z"
       style="fill:#d6d6d6;fill-opacity:1;fill-rule:nonzero;stroke:#d6d6d6;stroke-width:1;stroke-linecap:butt;stroke-linejoin:miter;stroke-miterlimit:10;stroke-dasharray:none;stroke-opacity:1"
       transform="matrix(0.15948476,0,0,-0.15931595,20.028193,1547.0545)"
       clip-path="url(#clipPath4)" />
    <path
       id="path5"
       d="m 3071,4169 h 333 l -333,1109 z m 333,0 -333,1109 h 92 z"
       style="fill:#d6d6d6;fill-opacity:1;fill-rule:nonzero;stroke:#d6d6d6;stroke-width:1;stroke-linecap:butt;stroke-linejoin:miter;stroke-miterlimit:10;stroke-dasharray:none;stroke-opacity:1"
       transform="matrix(0.15948476,0,0,-0.15931595,20.028193,1547.0545)"
       clip-path="url(#clipPath6)" />
    <path
       id="path7"
       d="m 3404,4169 h 92 l -333,1109 z m 92,0 -333,1109 h 333 z"
       style="fill:#d6d6d6;fill-opacity:1;fill-rule:nonzero;stroke:#d6d6d6;stroke-width:1;stroke-linecap:butt;stroke-linejoin:miter;stroke-miterlimit:10;stroke-dasharray:none;stroke-opacity:1"
       transform="matrix(0.15948476,0,0,-0.15931595,20.028193,1547.0545)"
       clip-path="url(#clipPath8)" />
    <path
       id="path9"
       d="m 2646,4169 h 332 l -332,1109 z m 332,0 -332,1109 h 92 z"
       style="fill:#d6d6d6;fill-opacity:1;fill-rule:nonzero;stroke:#d6d6d6;stroke-width:1;stroke-linecap:butt;stroke-linejoin:miter;stroke-miterlimit:10;stroke-dasharray:none;stroke-opacity:1"
       transform="matrix(0.15948476,0,0,-0.15931595,20.028193,1547.0545)"
       clip-path="url(#clipPath10)" />
    <path
       id="path11"
       d="m 2978,4169 h 93 l -333,1109 z m 93,0 -333,1109 h 333 z"
       style="fill:#d6d6d6;fill-opacity:1;fill-rule:nonzero;stroke:#d6d6d6;stroke-width:1;stroke-linecap:butt;stroke-linejoin:miter;stroke-miterlimit:10;stroke-dasharray:none;stroke-opacity:1"
       transform="matrix(0.15948476,0,0,-0.15931595,20.028193,1547.0545)"
       clip-path="url(#clipPath12)" />
    <path
       id="path13"
       d="M 509.80589,706.1849 V 882.86629"
       style="fill:none;stroke:#000000;stroke-width:0.956402;stroke-linecap:round;stroke-linejoin:round;stroke-miterlimit:10;stroke-dasharray:none;stroke-opacity:1" />
    <path
       id="path14"
       d="M 442.02487,882.86629 V 706.1849"
       style="fill:none;stroke:#000000;stroke-width:0.956402;stroke-linecap:round;stroke-linejoin:round;stroke-miterlimit:10;stroke-dasharray:none;stroke-opacity:1" />
    <path
       id="path15"
       d="M 577.58691,706.1849 V 882.86629"
       style="fill:none;stroke:#000000;stroke-width:0.956402;stroke-linecap:round;stroke-linejoin:round;stroke-miterlimit:10;stroke-dasharray:none;stroke-opacity:1" />
    <path
       id="path16"
       d="M 509.80589,882.86629 V 706.1849"
       style="fill:none;stroke:#000000;stroke-width:0.956402;stroke-linecap:round;stroke-linejoin:round;stroke-miterlimit:10;stroke-dasharray:none;stroke-opacity:1" />
    <path
       id="path17"
       d="M 645.36794,706.1849 V 882.86629"
       style="fill:none;stroke:#000000;stroke-width:0.956402;stroke-linecap:round;stroke-linejoin:round;stroke-miterlimit:10;stroke-dasharray:none;stroke-opacity:1" />
    <path
       id="path18"
       d="M 577.58691,882.86629 V 706.1849"
       style="fill:none;stroke:#000000;stroke-width:0.956402;stroke-linecap:round;stroke-linejoin:round;stroke-miterlimit:10;stroke-dasharray:none;stroke-opacity:1" />
    <path
       id="path19"
       d="M 442.02487,709.84917 H 645.36794"
       style="fill:none;stroke:#000000;stroke-width:0.956402;stroke-linecap:round;stroke-linejoin:round;stroke-miterlimit:10;stroke-dasharray:none;stroke-opacity:1" />
    <path
       id="path20"
       d="M 442.02487,800.18131 H 645.36794"
       style="fill:none;stroke:#000000;stroke-width:0.956402;stroke-linecap:round;stroke-linejoin:round;stroke-miterlimit:10;stroke-dasharray:none;stroke-opacity:1" />
    <path
       id="path21"
       d="M 442.02487,879.20203 H 645.36794"
       style="fill:none;stroke:#000000;stroke-width:0.956402;stroke-linecap:round;stroke-linejoin:round;stroke-miterlimit:10;stroke-dasharray:none;stroke-opacity:1" />
    <path
       id="path22"
       d="m 3047,5219 h -378 l 378,-35 z m -378,0 378,-35 h -378 z"
       style="fill:#007f1f;fill-opacity:1;fill-rule:nonzero;stroke:#007f1f;stroke-width:1;stroke-linecap:round;stroke-linejoin:miter;stroke-miterlimit:10;stroke-dasharray:none;stroke-opacity:1"
       transform="matrix(0.15948476,0,0,-0.15931595,20.028193,1547.0545)"
       clip-path="url(#clipPath23)" />
    <path
       id="path24"
       d="m 445.69302,715.58454 h 60.28523 v 5.57606 h -60.28523 v -5.57606"
       style="fill:none;stroke:#000000;stroke-width:0.956402;stroke-linecap:round;stroke-linejoin:round;stroke-miterlimit:10;stroke-dasharray:none;stroke-opacity:1" />
    <path
       id="path25"
       d="m 3472,5219 h -378 l 378,-35 z m -378,0 378,-35 h -378 z"
       style="fill:#007f1f;fill-opacity:1;fill-rule:nonzero;stroke:#007f1f;stroke-width:1;stroke-linecap:round;stroke-linejoin:miter;stroke-miterlimit:10;stroke-dasharray:none;stroke-opacity:1"
       transform="matrix(0.15948476,0,0,-0.15931595,20.028193,1547.0545)"
       clip-path="url(#clipPath26)" />
    <path
       id="path27"
       d="m 513.47404,715.58454 h 60.28524 v 5.57606 h -60.28524 v -5.57606"
       style="fill:none;stroke:#000000;stroke-width:0.956402;stroke-linecap:round;stroke-linejoin:round;stroke-miterlimit:10;stroke-dasharray:none;stroke-opacity:1" />
    <path
       id="path28"
       d="m 3824,4664 h -231 l 231,-212 z m -231,0 231,-212 h -231 z"
       style="fill:#333333;fill-opacity:1;fill-rule:nonzero;stroke:#333333;stroke-width:1;stroke-linecap:round;stroke-linejoin:miter;stroke-miterlimit:10;stroke-dasharray:none;stroke-opacity:1"
       transform="matrix(0.15948476,0,0,-0.15931595,20.028193,1547.0545)"
       clip-path="url(#clipPath29)" />
    <path
       id="path30"
       d="m 3399,4664 h -231 l 231,-212 z m -231,0 231,-212 h -231 z"
       style="fill:#333333;fill-opacity:1;fill-rule:nonzero;stroke:#333333;stroke-width:1;stroke-linecap:round;stroke-linejoin:miter;stroke-miterlimit:10;stroke-dasharray:none;stroke-opacity:1"
       transform="matrix(0.15948476,0,0,-0.15931595,20.028193,1547.0545)"
       clip-path="url(#clipPath31)" />
    <path
       id="path32"
       d="m 2973,4664 h -230 l 230,-212 z m -230,0 230,-212 h -230 z"
       style="fill:#333333;fill-opacity:1;fill-rule:nonzero;stroke:#333333;stroke-width:1;stroke-linecap:round;stroke-linejoin:miter;stroke-miterlimit:10;stroke-dasharray:none;stroke-opacity:1"
       transform="matrix(0.15948476,0,0,-0.15931595,20.028193,1547.0545)"
       clip-path="url(#clipPath33)" />
    <path
       id="path34"
       d="M 3921,4452 H 2646 l 1275,-50 z m -1275,0 1275,-50 H 2646 Z"
       style="fill:#333333;fill-opacity:1;fill-rule:nonzero;stroke:#333333;stroke-width:1;stroke-linecap:round;stroke-linejoin:miter;stroke-miterlimit:10;stroke-dasharray:none;stroke-opacity:1"
       transform="matrix(0.15948476,0,0,-0.15931595,20.028193,1547.0545)"
       clip-path="url(#clipPath35)" />
    <path
       id="path36"
       d="m 3921,4402 h -151 l 151,-61 z m -151,0 151,-61 h -151 z"
       style="fill:#333333;fill-opacity:1;fill-rule:nonzero;stroke:#333333;stroke-width:1;stroke-linecap:round;stroke-linejoin:miter;stroke-miterlimit:10;stroke-dasharray:none;stroke-opacity:1"
       transform="matrix(0.15948476,0,0,-0.15931595,20.028193,1547.0545)"
       clip-path="url(#clipPath37)" />
    <path
       id="path38"
       d="m 2787,4402 h -141 l 141,-61 z m -141,0 141,-61 h -141 z"
       style="fill:#333333;fill-opacity:1;fill-rule:nonzero;stroke:#333333;stroke-width:1;stroke-linecap:round;stroke-linejoin:miter;stroke-miterlimit:10;stroke-dasharray:none;stroke-opacity:1"
       transform="matrix(0.15948476,0,0,-0.15931595,20.028193,1547.0545)"
       clip-path="url(#clipPath39)" />
    <path
       id="path40"
       d="M 3921,4341 H 2646 l 1275,-54 z m -1275,0 1275,-54 H 2646 Z"
       style="fill:#333333;fill-opacity:1;fill-rule:nonzero;stroke:#333333;stroke-width:1;stroke-linecap:round;stroke-linejoin:miter;stroke-miterlimit:10;stroke-dasharray:none;stroke-opacity:1"
       transform="matrix(0.15948476,0,0,-0.15931595,20.028193,1547.0545)"
       clip-path="url(#clipPath41)" />
    <path
       id="path42"
       d="m 457.49489,804.00489 h 36.68149 v 33.77499 h -36.68149 v -33.77499"
       style="fill:none;stroke:#000000;stroke-width:0.956402;stroke-linecap:round;stroke-linejoin:round;stroke-miterlimit:10;stroke-dasharray:none;stroke-opacity:1" />
    <path
       id="path43"
       d="m 2973,4688 h -230 l 230,-24 z m -230,0 230,-24 h -230 z"
       style="fill:#007f1f;fill-opacity:1;fill-rule:nonzero;stroke:#007f1f;stroke-width:1;stroke-linecap:round;stroke-linejoin:miter;stroke-miterlimit:10;stroke-dasharray:none;stroke-opacity:1"
       transform="matrix(0.15948476,0,0,-0.15931595,20.028193,1547.0545)"
       clip-path="url(#clipPath44)" />
    <path
       id="path45"
       d="m 457.49489,800.18131 h 36.68149 v 3.82358 h -36.68149 v -3.82358"
       style="fill:none;stroke:#000000;stroke-width:0.956402;stroke-linecap:round;stroke-linejoin:round;stroke-miterlimit:10;stroke-dasharray:none;stroke-opacity:1" />
    <path
       id="path46"
       d="m 525.27591,804.00489 h 36.84098 v 33.77499 h -36.84098 v -33.77499"
       style="fill:none;stroke:#000000;stroke-width:0.956402;stroke-linecap:round;stroke-linejoin:round;stroke-miterlimit:10;stroke-dasharray:none;stroke-opacity:1" />
    <path
       id="path47"
       d="m 3399,4688 h -231 l 231,-24 z m -231,0 231,-24 h -231 z"
       style="fill:#007f1f;fill-opacity:1;fill-rule:nonzero;stroke:#007f1f;stroke-width:1;stroke-linecap:round;stroke-linejoin:miter;stroke-miterlimit:10;stroke-dasharray:none;stroke-opacity:1"
       transform="matrix(0.15948476,0,0,-0.15931595,20.028193,1547.0545)"
       clip-path="url(#clipPath48)" />
    <path
       id="path49"
       d="m 525.27591,800.18131 h 36.84098 v 3.82358 h -36.84098 v -3.82358"
       style="fill:none;stroke:#000000;stroke-width:0.956402;stroke-linecap:round;stroke-linejoin:round;stroke-miterlimit:10;stroke-dasharray:none;stroke-opacity:1" />
    <path
       id="path50"
       d="m 3897,5219 h -378 l 378,-35 z m -378,0 378,-35 h -378 z"
       style="fill:#007f1f;fill-opacity:1;fill-rule:nonzero;stroke:#007f1f;stroke-width:1;stroke-linecap:round;stroke-linejoin:miter;stroke-miterlimit:10;stroke-dasharray:none;stroke-opacity:1"
       transform="matrix(0.15948476,0,0,-0.15931595,20.028193,1547.0545)"
       clip-path="url(#clipPath51)" />
    <path
       id="path52"
       d="m 581.25507,715.58454 h 60.28523 v 5.57606 h -60.28523 v -5.57606"
       style="fill:none;stroke:#000000;stroke-width:0.956402;stroke-linecap:round;stroke-linejoin:round;stroke-miterlimit:10;stroke-dasharray:none;stroke-opacity:1" />
    <path
       id="path53"
       d="m 593.05694,804.00489 h 36.84098 v 33.77499 h -36.84098 v -33.77499"
       style="fill:none;stroke:#000000;stroke-width:0.956402;stroke-linecap:round;stroke-linejoin:round;stroke-miterlimit:10;stroke-dasharray:none;stroke-opacity:1" />
    <path
       id="path54"
       d="m 3824,4688 h -231 l 231,-24 z m -231,0 231,-24 h -231 z"
       style="fill:#007f1f;fill-opacity:1;fill-rule:nonzero;stroke:#007f1f;stroke-width:1;stroke-linecap:round;stroke-linejoin:miter;stroke-miterlimit:10;stroke-dasharray:none;stroke-opacity:1"
       transform="matrix(0.15948476,0,0,-0.15931595,20.028193,1547.0545)"
       clip-path="url(#clipPath55)" />
    <path
       id="path56"
       d="m 593.05694,800.18131 h 36.84098 v 3.82358 h -36.84098 v -3.82358"
       style="fill:none;stroke:#000000;stroke-width:0.956402;stroke-linecap:round;stroke-linejoin:round;stroke-miterlimit:10;stroke-dasharray:none;stroke-opacity:1" />
    <path
       id="path57"
       d="m 442.02487,837.77988 h 203.34307 v 26.28713 H 442.02487 v -26.28713"
       style="fill:none;stroke:#000000;stroke-width:0.956402;stroke-linecap:round;stroke-linejoin:round;stroke-miterlimit:10;stroke-dasharray:none;stroke-opacity:1" />
    <path
       id="path58"
       d="m 3770,4402 h -983 l 983,-61 z m -983,0 983,-61 h -983 z"
       style="fill:#adadad;fill-opacity:1;fill-rule:nonzero;stroke:#adadad;stroke-width:1;stroke-linecap:round;stroke-linejoin:miter;stroke-miterlimit:10;stroke-dasharray:none;stroke-opacity:1"
       transform="matrix(0.15948476,0,0,-0.15931595,20.028193,1547.0545)"
       clip-path="url(#clipPath59)" />
    <path
       id="path60"
       d="m 464.51221,845.74568 h 156.77353 v 9.71827 H 464.51221 v -9.71827"
       style="fill:none;stroke:#000000;stroke-width:0.956402;stroke-linecap:round;stroke-linejoin:round;stroke-miterlimit:10;stroke-dasharray:none;stroke-opacity:1" />
    <path
       id="path61"
       d="m 3921,4169 h 166 l -166,1109 z m 166,0 -166,1109 h 46 z"
       style="fill:#d6d6d6;fill-opacity:1;fill-rule:nonzero;stroke:#d6d6d6;stroke-width:1;stroke-linecap:round;stroke-linejoin:miter;stroke-miterlimit:10;stroke-dasharray:none;stroke-opacity:1"
       transform="matrix(0.15948476,0,0,-0.15931595,20.028193,1547.0545)"
       clip-path="url(#clipPath62)" />
    <path
       id="path63"
       d="m 4087,4169 h 46 l -166,1109 z m 46,0 -166,1109 h 166 z"
       style="fill:#d6d6d6;fill-opacity:1;fill-rule:nonzero;stroke:#d6d6d6;stroke-width:1;stroke-linecap:round;stroke-linejoin:miter;stroke-miterlimit:10;stroke-dasharray:none;stroke-opacity:1"
       transform="matrix(0.15948476,0,0,-0.15931595,20.028193,1547.0545)"
       clip-path="url(#clipPath64)" />
    <path
       id="path65"
       d="M 679.1787,706.1849 V 882.86629"
       style="fill:none;stroke:#000000;stroke-width:0.956402;stroke-linecap:round;stroke-linejoin:round;stroke-miterlimit:10;stroke-dasharray:none;stroke-opacity:1" />
    <path
       id="path66"
       d="M 645.36794,882.86629 V 706.1849"
       style="fill:none;stroke:#000000;stroke-width:0.956402;stroke-linecap:round;stroke-linejoin:round;stroke-miterlimit:10;stroke-dasharray:none;stroke-opacity:1" />
    <path
       id="path67"
       d="M 645.36794,709.84917 H 679.1787"
       style="fill:none;stroke:#000000;stroke-width:0.956402;stroke-linecap:round;stroke-linejoin:round;stroke-miterlimit:10;stroke-dasharray:none;stroke-opacity:1" />
    <path
       id="path68"
       d="M 645.36794,879.20203 H 679.1787"
       style="fill:none;stroke:#000000;stroke-width:0.956402;stroke-linecap:round;stroke-linejoin:round;stroke-miterlimit:10;stroke-dasharray:none;stroke-opacity:1" />
    <path
       id="path69"
       d="m 4133,5219 h -212 l 212,-35 z m -212,0 212,-35 h -212 z"
       style="fill:#007f1f;fill-opacity:1;fill-rule:nonzero;stroke:#007f1f;stroke-width:1;stroke-linecap:round;stroke-linejoin:miter;stroke-miterlimit:10;stroke-dasharray:none;stroke-opacity:1"
       transform="matrix(0.15948476,0,0,-0.15931595,20.028193,1547.0545)"
       clip-path="url(#clipPath70)" />
    <path
       id="path71"
       d="m 645.36794,715.58454 h 33.81076 v 5.57606 h -33.81076 v -5.57606"
       style="fill:none;stroke:#000000;stroke-width:0.956402;stroke-linecap:round;stroke-linejoin:round;stroke-miterlimit:10;stroke-dasharray:none;stroke-opacity:1" />
  </g>
  <g
     id="layer-oc3"
     inkscape:groupmode="layer"
     inkscape:label="Screws"
     transform="translate(-441.54665,-705.70673)">
    <path
       id="path72"
       d="m 662.27332,706.1849 v 0"
       style="fill:none;stroke:#000000;stroke-width:0.956402;stroke-linecap:round;stroke-linejoin:round;stroke-miterlimit:10;stroke-dasharray:none;stroke-opacity:1" />
    <path
       id="path73"
       d="m 662.43281,882.86629 h -0.15949 -0.15948"
       style="fill:none;stroke:#000000;stroke-width:0.956402;stroke-linecap:round;stroke-linejoin:round;stroke-miterlimit:10;stroke-dasharray:none;stroke-opacity:1" />
  </g>
  <g
     id="layer-oc4"
     inkscape:groupmode="layer"
     inkscape:label="0"
     transform="translate(-441.54665,-705.70673)">
    <path
       id="path74"
       d="M 679.1787,706.1849 H 442.02487"
       style="fill:none;stroke:#ffffff;stroke-width:0.159401;stroke-linecap:round;stroke-linejoin:round;stroke-miterlimit:10;stroke-dasharray:none;stroke-opacity:1" />
    <path
       id="path75"
       d="M 679.1787,706.1849 H 442.02487"
       style="fill:none;stroke:#000000;stroke-width:0.956402;stroke-linecap:round;stroke-linejoin:round;stroke-miterlimit:10;stroke-dasharray:none;stroke-opacity:1" />
    <path
       id="path76"
       d="M 679.1787,882.86629 H 442.02487"
       style="fill:none;stroke:#ffffff;stroke-width:0.159401;stroke-linecap:round;stroke-linejoin:round;stroke-miterlimit:10;stroke-dasharray:none;stroke-opacity:1" />
    <path
       id="path77"
       d="M 679.1787,882.86629 H 442.02487"
       style="fill:none;stroke:#000000;stroke-width:0.956402;stroke-linecap:round;stroke-linejoin:round;stroke-miterlimit:10;stroke-dasharray:none;stroke-opacity:1" />
  </g>
</svg>
