<?xml version="1.0" encoding="UTF-8" standalone="no"?>
<!-- Created with Inkscape (http://www.inkscape.org/) -->

<svg
   version="1.1"
   id="svg1"
   width="1821.76"
   height="498.88"
   viewBox="0 0 1821.76 498.88"
   sodipodi:docname="2U DISTRIBUTION PANEL V1.pdf"
   inkscape:version="1.4-beta (62f545ba5e, 2024-04-22)"
   inkscape:dataloss="true"
   xmlns:inkscape="http://www.inkscape.org/namespaces/inkscape"
   xmlns:sodipodi="http://sodipodi.sourceforge.net/DTD/sodipodi-0.dtd"
   xmlns="http://www.w3.org/2000/svg"
   xmlns:svg="http://www.w3.org/2000/svg">
  <defs
     id="defs1" />
  <sodipodi:namedview
     id="namedview1"
     pagecolor="#505050"
     bordercolor="#eeeeee"
     borderopacity="1"
     inkscape:showpageshadow="0"
     inkscape:pageopacity="0"
     inkscape:pagecheckerboard="0"
     inkscape:deskcolor="#505050"
     showguides="true"
     inkscape:zoom="0.1738889"
     inkscape:cx="-342.17251"
     inkscape:cy="830.99038"
     inkscape:window-width="1920"
     inkscape:window-height="1017"
     inkscape:window-x="1912"
     inkscape:window-y="-8"
     inkscape:window-maximized="1"
     inkscape:current-layer="g1" />
  <g
     id="g1"
     inkscape:groupmode="layer"
     inkscape:label="1">
    <path
       style="fill:#808080;fill-opacity:1;stroke:#000000;stroke-width:0.127076;stroke-dasharray:none;stroke-opacity:1;paint-order:fill markers stroke"
       d="m 33.668162,340.35591 c -9.329565,-0.0192 -17.679136,8.84319 -16.839624,18.20149 0.08869,9.59921 9.554437,17.79876 19.070148,16.60556 7.98931,-0.72141 14.928487,-7.49113 15.704054,-15.49996 0.707938,-6.03422 -2.074986,-12.21708 -6.954922,-15.80357 -3.110601,-2.42933 -7.016893,-3.75872 -10.979656,-3.50352 z m 0.261102,6.53646 c 2.069989,-0.53035 0.842961,2.23632 1.168502,3.45041 0.23235,1.79425 -0.528715,3.95839 0.514902,5.49159 1.695058,0.96967 3.89236,0.25334 5.792769,0.51707 1.123419,0.41195 3.864339,-0.8123 3.787288,0.81398 0.66895,2.12082 -0.749329,2.20644 -2.49175,1.97588 -2.32439,0.17566 -4.766749,-0.36966 -7.009526,0.30478 -1.19943,1.62766 -0.329426,3.87212 -0.593683,5.77004 -0.19603,1.30307 0.778864,3.77706 -1.422654,3.07464 -1.77786,0.27876 -0.56644,-2.43176 -0.914351,-3.58294 -0.272816,-1.70363 0.658228,-3.99051 -0.72502,-5.2588 -1.876147,-0.69751 -4.100649,-0.11784 -6.112259,-0.30772 -1.482052,-0.017 -3.544323,0.54612 -2.820489,-1.67681 -0.544866,-2.04396 2.141615,-0.85658 3.328793,-1.1685 1.922194,-0.23823 4.217417,0.53638 5.878273,-0.5149 0.966321,-1.66136 0.21182,-3.82089 0.450702,-5.687 0.333246,-1.13829 -0.905973,-3.83954 1.168503,-3.20172 z"
       id="path53" />
    <path
       style="fill:#808080;fill-opacity:1;stroke:#000000;stroke-width:0.127076;stroke-dasharray:none;stroke-opacity:1;paint-order:fill markers stroke"
       d="m 32.600427,450.69303 c -7.434731,-0.36841 -14.544368,4.98726 -16.467973,12.12996 -1.654797,5.46561 0.384417,11.4037 3.894409,15.68129 3.359911,3.78956 8.508119,5.83879 13.559544,5.31001 5.658891,-0.30583 11.249689,-3.77197 13.4282,-9.11633 3.27258,-7.65134 0.637407,-17.7936 -6.647162,-22.14843 -2.342019,-1.3732 -5.06839,-1.93688 -7.767018,-1.8565 z m -0.577302,5.48461 c 2.15911,-0.66001 1.021072,1.97713 1.295579,3.20172 0.240863,1.87924 -0.541456,4.1338 0.514902,5.7512 1.619951,0.96205 3.735501,0.21477 5.559921,0.4507 1.164933,0.36825 3.893702,-0.82734 3.837098,0.76245 0.579158,2.12062 -0.720012,2.36291 -2.541519,2.08286 -2.249007,0.16209 -4.60871,-0.35233 -6.776719,0.30478 -1.199431,1.62766 -0.329427,3.87212 -0.593683,5.77004 -0.24851,1.20823 0.822745,3.73622 -1.295579,3.07464 -2.118097,0.66136 -1.046422,-1.86706 -1.295578,-3.07464 -0.230603,-1.83871 0.524888,-4.04614 -0.514902,-5.62412 -1.619951,-0.96205 -3.735501,-0.21478 -5.559921,-0.4507 -1.145873,-0.38732 -4.012157,0.94578 -3.582945,-1.01661 -0.691935,-2.23339 1.185004,-1.89791 2.79567,-1.8287 2.082103,-0.14663 4.266244,0.33035 6.268415,-0.30479 1.206977,-1.66814 0.324344,-3.95811 0.593683,-5.89711 0.322555,-1.23724 -0.927929,-3.88157 1.295578,-3.20172 z"
       id="path54" />
    <path
       style="fill:#808080;fill-opacity:1;stroke:#000000;stroke-width:0.127076;stroke-dasharray:none;stroke-opacity:1;paint-order:fill markers stroke"
       d="m 32.205301,13.734124 c -7.793487,-0.420736 -14.970356,5.803293 -16.343648,13.358854 -1.091001,5.317969 1.134799,10.830961 4.554876,14.849016 4.160698,4.2283 10.601746,5.979706 16.318461,4.319103 5.72173,-1.291746 10.337693,-6.188605 11.262966,-11.984857 1.441243,-7.268371 -1.53695,-15.805092 -8.42821,-19.223703 -2.254431,-1.214993 -4.86333,-1.304935 -7.364445,-1.318413 z m -0.182176,5.556592 c 2.15911,-0.660011 1.021072,1.977125 1.295579,3.201717 0.240863,1.879243 -0.541456,4.133807 0.514902,5.751198 1.619951,0.96205 3.735501,0.214774 5.559921,0.450702 1.164933,0.368251 3.893702,-0.827334 3.837098,0.762455 0.619477,2.076218 -0.915948,1.997533 -2.541519,1.828701 -2.245198,0.162119 -4.601132,-0.35253 -6.765302,0.304784 -1.196673,1.640149 -0.37155,3.900393 -0.662185,5.81124 -0.275863,1.247102 0.772478,3.803372 -1.341743,3.232989 -2.082029,0.599127 -0.87915,-2.175345 -1.192329,-3.392826 -0.232094,-1.798939 0.528205,-3.967556 -0.514902,-5.505484 -1.619951,-0.962051 -3.735501,-0.214775 -5.559921,-0.450703 -1.145873,-0.387311 -4.012157,0.945789 -3.582945,-1.016607 -0.701801,-2.15854 1.393437,-1.520042 2.79567,-1.574549 2.082103,-0.146625 4.266244,0.330348 6.268415,-0.304784 1.206977,-1.668143 0.324344,-3.958118 0.593683,-5.897116 0.322555,-1.237233 -0.927929,-3.88157 1.295578,-3.201717 z"
       id="path55" />
    <path
       style="fill:#808080;fill-opacity:1;stroke:#000000;stroke-width:0.127076;stroke-dasharray:none;stroke-opacity:1;paint-order:fill markers stroke"
       d="m 33.938695,122.09065 c -7.138638,0.0654 -13.867664,4.97703 -16.182624,11.72672 -1.345766,3.52712 -1.22681,7.56677 -0.163009,11.1529 2.355471,7.17941 9.655406,12.66428 17.339274,12.01684 9.426364,-0.0586 17.556713,-9.14614 16.688772,-18.5141 -0.256259,-7.42258 -5.938534,-14.05823 -13.101724,-15.79761 -1.491567,-0.4017 -3.035051,-0.6116 -4.580689,-0.58475 z m -0.0094,6.73949 c 2.071419,-0.52996 0.841941,2.24097 1.168502,3.45587 0.232247,1.79609 -0.528512,3.96199 0.514902,5.49704 1.619951,0.96205 3.735502,0.21478 5.559922,0.4507 1.199092,0.33409 3.740746,-0.67437 4.091249,0.50831 0.411845,1.9533 -0.269798,2.81311 -2.287367,2.337 -2.419539,0.15539 -4.946506,-0.34577 -7.285023,0.30479 -1.19943,1.62765 -0.329426,3.87211 -0.593683,5.77004 -0.19603,1.30306 0.778864,3.77706 -1.422654,3.07464 -1.77786,0.27876 -0.56644,-2.43176 -0.914351,-3.58295 -0.272816,-1.70362 0.658228,-3.99051 -0.72502,-5.2588 -1.876147,-0.6975 -4.100649,-0.11784 -6.112259,-0.30772 -1.482052,-0.017 -3.544323,0.54613 -2.820489,-1.6768 -0.544866,-2.04397 2.141615,-0.85659 3.328793,-1.16851 1.922194,-0.23822 4.217417,0.53638 5.878273,-0.5149 0.966321,-1.66136 0.21182,-3.82089 0.450702,-5.687 0.333246,-1.13829 -0.905973,-3.83953 1.168503,-3.20171 z"
       id="path56" />
    <path
       style="fill:#808080;fill-opacity:1;stroke:#000000;stroke-width:0.0635379;stroke-dasharray:none;stroke-opacity:1;paint-order:fill markers stroke"
       d="m 1788.3718,13.553438 c -3.0327,0.01722 -6.2027,0.323474 -8.8333,1.972899 -6.0259,3.586077 -8.9798,11.262073 -7.6156,18.039073 0.5699,3.260531 1.613,6.637493 4.1299,8.939586 3.213,3.151905 7.8845,4.529398 12.3195,4.16735 6.1873,-0.15995 12.3462,-3.833041 14.8364,-9.601925 3.8827,-8.650768 -1.2457,-20.020837 -10.2829,-22.862355 -1.4653,-0.487181 -3.0135,-0.676989 -4.554,-0.654628 z m -0.7317,5.737279 c 0.9888,-0.19683 1.49,0.09389 1.2321,1.143683 0.039,2.333296 -0.079,4.685543 0.06,7.00673 0.1562,1.236876 1.5878,1.36135 2.5835,1.253203 2.4227,0 4.8454,0 7.2681,0 0,0.863718 0,1.727438 0,2.591156 -2.8828,0.03992 -5.7848,-0.07989 -8.6555,0.06033 -1.2318,0.154923 -1.3598,1.579528 -1.2613,2.572497 -0.016,2.19968 -0.032,4.399362 -0.048,6.599043 -0.8039,0.01024 -1.6077,0.02042 -2.4115,0.03053 -0.04,-2.667283 0.081,-5.354015 -0.06,-8.009189 -0.1563,-1.236877 -1.5878,-1.36135 -2.5835,-1.253204 -2.2956,0 -4.5912,0 -6.8869,0 0,-0.863718 0,-1.727438 0,-2.591156 2.7567,-0.04044 5.5329,0.0807 8.2775,-0.06033 1.2369,-0.156229 1.3614,-1.587764 1.2532,-2.583449 0,-2.25328 0,-4.506561 0,-6.759841 0.4107,-1e-6 0.8214,0 1.232,0 z"
       id="path57" />
    <path
       style="fill:#808080;fill-opacity:1;stroke:#000000;stroke-width:0.0898562;stroke-dasharray:none;stroke-opacity:1;paint-order:fill markers stroke"
       d="m 1785.4731,340.27079 c -8.7516,-0.02 -16.7499,7.60825 -17.0404,16.37103 -0.4135,4.90457 1.5104,9.84713 4.9414,13.34048 2.9974,3.11803 7.2128,5.07165 11.5296,5.28854 3.1927,0.0298 6.4437,-0.4642 9.2468,-2.07652 5.9189,-3.07677 9.7585,-9.77772 9.2084,-16.45615 -0.2505,-8.70154 -8.0965,-16.3798 -16.8019,-16.45959 -0.3611,-0.0144 -0.7226,-0.0134 -1.0839,-0.008 z m 0.1498,6.81608 c 1.6404,-0.52285 1.1439,1.09112 1.1959,2.15655 0.1236,2.1574 -0.2679,4.38802 0.2331,6.49177 1.1364,1.24837 3.0163,0.48724 4.5015,0.69673 1.7765,0 3.5529,0 5.3293,0 -0.2678,0.82898 0.5891,2.78267 -0.5391,2.75115 -2.7856,0.0652 -5.6083,-0.1315 -8.3702,0.10017 -1.7058,0.46828 -1.0151,2.60196 -1.1546,3.91563 0,1.71651 0,3.43302 0,5.14953 -0.8859,-0.21089 -2.819,0.62546 -2.3917,-0.89856 -0.095,-2.42182 0.1952,-4.89847 -0.1503,-7.28472 -0.6701,-1.55812 -2.7095,-0.80428 -4.0452,-0.98205 -1.7765,0 -3.5529,0 -5.3293,0 0.2678,-0.82898 -0.5891,-2.78267 0.5392,-2.75115 2.6055,-0.0667 5.2491,0.13389 7.8309,-0.10017 1.7059,-0.46828 1.0152,-2.60196 1.1547,-3.91563 0,-1.77641 0,-3.55283 0,-5.32925 0.3986,0 0.7972,0 1.1958,0 z"
       id="path59" />
    <path
       style="fill:#808080;fill-opacity:1;stroke:#000000;stroke-width:0.0898562;stroke-dasharray:none;stroke-opacity:1;paint-order:fill markers stroke"
       d="m 1785.4731,122.09987 c -8.7516,-0.0199 -16.7499,7.60825 -17.0404,16.37103 -0.4135,4.90457 1.5104,9.84713 4.9414,13.34048 2.9974,3.11804 7.2128,5.07165 11.5296,5.28854 3.1927,0.0298 6.4437,-0.4642 9.2468,-2.07652 5.9189,-3.07677 9.7585,-9.77772 9.2084,-16.45615 -0.2505,-8.70153 -8.0965,-16.3798 -16.8019,-16.45959 -0.3611,-0.0144 -0.7226,-0.0134 -1.0839,-0.008 z m 0.1498,6.81609 c 1.6404,-0.52286 1.1439,1.09111 1.1959,2.15655 0.1236,2.15739 -0.2679,4.38801 0.2331,6.49176 1.1364,1.24837 3.0163,0.48725 4.5015,0.69673 1.7765,0 3.5529,0 5.3293,0 -0.2678,0.82898 0.5891,2.78267 -0.5391,2.75115 -2.7856,0.0652 -5.6083,-0.1315 -8.3702,0.10017 -1.7058,0.46828 -1.0151,2.60196 -1.1546,3.91563 0,1.71651 0,3.43302 0,5.14953 -0.8859,-0.21088 -2.819,0.62546 -2.3917,-0.89856 -0.095,-2.42182 0.1952,-4.89847 -0.1503,-7.28472 -0.6701,-1.55812 -2.7095,-0.80427 -4.0452,-0.98205 -1.7765,0 -3.5529,0 -5.3293,0 0.2678,-0.82898 -0.5891,-2.78267 0.5392,-2.75115 2.6055,-0.0667 5.2491,0.13389 7.8309,-0.10017 1.7059,-0.46828 1.0152,-2.60196 1.1547,-3.91563 0,-1.77641 0,-3.55283 0,-5.32924 0.3986,0 0.7972,0 1.1958,0 z"
       id="path60" />
    <path
       style="fill:#808080;fill-opacity:1;stroke:#000000;stroke-width:0.0898562;stroke-dasharray:none;stroke-opacity:1;paint-order:fill markers stroke"
       d="m 1786.9746,450.66092 c -5.4182,-0.0392 -10.7376,3.15966 -13.1507,8.02977 -2.3534,4.22452 -2.7875,9.34537 -1.441,13.96549 0.7878,3.34858 2.5924,6.55737 5.5851,8.39755 3.5759,2.41322 8.075,3.24152 12.3008,2.46187 6.3005,-0.82594 12.0891,-5.43219 13.7192,-11.66722 1.1001,-4.4883 0.2683,-9.35007 -2.1407,-13.28239 -2.7447,-4.77394 -8.0504,-8.09014 -13.6244,-7.91066 -0.4161,-0.008 -0.8323,-0.004 -1.2483,0.006 z m 0.6252,5.69113 c 1.6403,-0.52286 1.1438,1.09111 1.1958,2.15655 0.1236,2.15739 -0.2678,4.38801 0.2331,6.49176 1.1364,1.24837 3.0164,0.48725 4.5016,0.69673 1.7764,0 3.5528,0 5.3292,0 -0.2678,0.82898 0.5892,2.78267 -0.5391,2.75115 -2.7855,0.0652 -5.6083,-0.1315 -8.3701,0.10017 -1.7059,0.46828 -1.0151,2.60196 -1.1547,3.91563 0,1.71651 0,3.43302 0,5.14953 -0.8858,-0.21088 -2.8189,0.62546 -2.3917,-0.89856 -0.095,-2.42182 0.1952,-4.89847 -0.1503,-7.28472 -0.67,-1.55812 -2.7094,-0.80427 -4.0452,-0.98205 -1.7764,0 -3.5528,0 -5.3292,0 0.2677,-0.82898 -0.5892,-2.78267 0.5391,-2.75115 2.6056,-0.0667 5.2492,0.13389 7.831,-0.10017 1.7058,-0.46828 1.0151,-2.60196 1.1546,-3.91563 0,-1.77641 0,-3.55283 0,-5.32924 0.3986,0 0.7973,0 1.1959,0 z"
       id="path61" />
    <path
       style="fill:#00ffff;fill-opacity:1;stroke:#000000;stroke-width:1.02146;stroke-dasharray:none;stroke-opacity:1;paint-order:fill markers stroke"
       d="M 85.369803,248.69862 V 161.4628 h 824.477097 824.477 v 87.23582 87.23581 H 909.8469 85.369803 Z"
       id="path50" />
    <path
       style="display:inline;fill:#d6d6d6;fill-opacity:1;stroke:#000000;stroke-width:0.71885;stroke-dasharray:none;stroke-opacity:1;paint-order:fill markers stroke"
       d="m 1087.2351,0.17764977 c -358.17257,0.12219 -716.3451,0.30546 -1074.517636,0.4549 C 6.6445824,6.0507798 -1.2588422,12.15511 1.3759235,21.49885 c 0.3250546,149.31817 -0.70603809,298.646 0.6553099,447.95799 -1.384e-4,9.69413 -0.422773,21.8898 10.0853176,26.66541 18.193803,2.91381 37.1078,1.16484 55.558991,1.96217 360.481258,1.34597 720.967498,0.56402 1081.450858,0.79559 213.8912,-0.33995 427.7917,0.59855 641.6763,-1.24108 8.8759,0.56455 18.5927,-0.11619 24.2152,-8.09659 6.3343,-6.96534 1.5317,-18.11716 3.0515,-26.855 0.048,-149.56771 0.8541,-299.25408 0.4241,-448.74765 -4.5936,-6.4304202 -9.9439,-15.8873802 -19.4903,-13.39582023 -237.2551,-0.5914 -474.5125,-0.3381 -711.7681,-0.36622 z M 32.817179,14.66416 C 48.559113,13.76431 53.0013,38.70848 39.00041,44.46273 31.134958,47.94792 21.681671,44.97771 18.238006,36.83899 12.805116,26.18775 21.215553,14.01249 32.817179,14.66416 Z m 1754.532721,0.003 c 13.2615,-1.22074 21.3379,16.5427 12.2373,25.96284 -7.2716,8.06862 -24.2008,6.7088 -26.2353,-5.54301 -2.8406,-9.54142 3.2355,-20.82131 13.998,-20.41983 z M 34.131325,113.94967 c 17.090324,-0.56064 30.073764,17.75268 24.741352,33.49672 C 55.79131,160.68736 41.009758,167.4951 28.242935,164.79987 13.832426,162.72694 5.689639,146.50278 9.3394316,133.06658 11.74002,121.74914 22.909286,113.73911 34.131325,113.94967 Z m 1751.536475,0.1404 c 18.3695,-0.29155 31.8581,21.60322 22.4866,37.79858 -5.6752,11.53676 -19.9373,15.72825 -31.6688,12.34681 -11.4546,-3.63583 -19.1559,-16.14228 -16.3706,-28.0913 0.5825,-13.04705 12.8044,-22.77405 25.5528,-22.05409 z m -875.60394,48.40724 c 274.58004,0 549.16014,0 823.74004,0 0,57.94603 0,115.89206 0,173.8381 -549.16,0 -1098.32008,0 -1647.480146,0 0,-57.94604 0,-115.89207 0,-173.8381 274.580046,0 549.160066,0 823.740106,0 z M 35.703809,332.17114 c 21.352556,-0.0858 32.402895,29.89242 17.126037,44.20364 -12.183363,12.66524 -36.20743,8.65686 -42.229619,-8.18254 -6.9720561,-15.58242 4.551702,-36.39639 22.531449,-36.0155 l 1.373115,-0.0309 z m 1749.663691,0.0814 c 18.7325,-0.83936 33.5481,23.94844 21.4644,39.37106 -7.586,14.45726 -28.5445,15.97806 -39.6969,4.89156 -8.8399,-7.2966 -7.4834,-20.40982 -5.2256,-30.35738 4.4892,-8.56478 13.8575,-13.87611 23.4581,-13.90524 z M 32.817179,451.72485 c 15.741934,-0.89986 20.184121,24.04432 6.183231,29.79856 -7.865452,3.48519 -17.318739,0.51499 -20.762404,-7.62374 -5.43289,-10.65123 2.977547,-22.8265 14.579173,-22.17482 z m 1754.532721,0.003 c 13.2615,-1.22075 21.3379,16.54269 12.2373,25.96283 -7.2716,8.06863 -24.2008,6.70881 -26.2353,-5.54299 -2.8406,-9.54144 3.2355,-20.82133 13.998,-20.41984 z"
       id="path52" />
    <path
       style="fill:none;fill-opacity:1;stroke:#000000;stroke-opacity:1;paint-order:fill markers stroke"
       d="m 1.5986667,482.25837 c 0,-155.96046 0,-311.92092 0,-467.881374 C 1.9764959,13.48164 2.35431,12.58632 2.7321317,11.690982 3.3675239,10.547276 4.0028907,9.4036162 4.6382702,8.2599331 5.6548976,6.9361994 6.6714845,5.6125187 7.6880916,4.2888114 8.63059,3.5475206 9.5730507,2.8062593 10.51553,2.0649833 11.585107,1.7366973 12.654641,1.4084245 13.724197,1.0801451 14.421315,0.89335268 15.118406,0.70656772 15.815511,0.51977904 16.484486,0.34651589 17.153433,0.17325968 17.822394,0 14.91018,-0.87366425 1802.8893,0 1802.8893,0 l 2.9176,0.34819288 2.4036,1.13443482 3.6954,2.763079 2.4149,3.560553 1.9768,2.8529353 1.0671,1.7185 0.5513,1.235523 V 482.57287 l -0.7086,2.78554 -0.966,2.06669 -2.1116,3.12251 -2.8529,2.85293 -3.5493,2.24641 -3.3696,1.51632 -1.5838,0.43538 H 17.218784 l -1.853369,-0.36799 -3.369609,-1.33661 -2.7293826,-1.70727 -1.0895068,-0.98841 -1.999301,-2.13409 -2.0217651,-2.94279 -1.3703075,-2.20148 -0.5952975,-1.32538 -0.5915788,-1.404 z"
       id="path4" />
    <circle
       style="fill:none;fill-opacity:1;stroke:#000000;stroke-width:0.5;stroke-dasharray:none;stroke-opacity:1;paint-order:fill markers stroke"
       id="path5"
       cy="29.967051"
       cx="32.213455"
       r="16.398762" />
    <path
       style="fill:none;fill-opacity:1;stroke:#000000;stroke-width:0.5;stroke-dasharray:none;stroke-opacity:1;paint-order:fill markers stroke"
       d="m 20.037938,27.496011 h 9.52476 v -9.43491 h 4.76238 v 9.43491 h 9.974042 v 5.03194 h -9.974042 v 9.16534 h -4.76238 v -9.16534 h -9.52476 z"
       id="path12" />
    <circle
       style="fill:none;fill-opacity:1;stroke:#000000;stroke-width:0.5;stroke-dasharray:none;stroke-opacity:1;paint-order:fill markers stroke"
       id="circle12"
       cy="139.59164"
       cx="34.213455"
       r="16.398762" />
    <path
       style="fill:none;fill-opacity:1;stroke:#000000;stroke-width:0.5;stroke-dasharray:none;stroke-opacity:1;paint-order:fill markers stroke"
       d="m 22.037938,137.12061 h 9.52476 v -9.43491 h 4.76238 v 9.43491 h 9.974042 v 5.03194 h -9.974042 v 9.16534 h -4.76238 v -9.16534 h -9.52476 z"
       id="path13" />
    <circle
       style="fill:none;fill-opacity:1;stroke:#000000;stroke-width:0.5;stroke-dasharray:none;stroke-opacity:1;paint-order:fill markers stroke"
       id="circle13"
       cy="357.76257"
       cx="34.213455"
       r="16.398762" />
    <path
       style="fill:none;fill-opacity:1;stroke:#000000;stroke-width:0.5;stroke-dasharray:none;stroke-opacity:1;paint-order:fill markers stroke"
       d="m 22.037938,355.29153 h 9.52476 v -9.43491 h 4.76238 v 9.43491 h 9.974042 v 5.03194 h -9.974042 v 9.16534 h -4.76238 v -9.16534 h -9.52476 z"
       id="path14" />
    <circle
       style="fill:none;fill-opacity:1;stroke:#000000;stroke-width:0.5;stroke-dasharray:none;stroke-opacity:1;paint-order:fill markers stroke"
       id="circle14"
       cy="467.02774"
       cx="32.213455"
       r="16.398762" />
    <path
       style="fill:none;fill-opacity:1;stroke:#000000;stroke-width:0.5;stroke-dasharray:none;stroke-opacity:1;paint-order:fill markers stroke"
       d="m 20.037938,464.5567 h 9.52476 v -9.43491 h 4.76238 v 9.43491 h 9.974042 v 5.03194 h -9.974042 v 9.16534 h -4.76238 v -9.16534 h -9.52476 z"
       id="path15" />
    <circle
       style="fill:none;fill-opacity:1;stroke:#000000;stroke-width:0.5;stroke-dasharray:none;stroke-opacity:1;paint-order:fill markers stroke"
       id="circle15"
       cy="29.967051"
       cx="1787.894"
       r="16.398762" />
    <path
       style="fill:none;fill-opacity:1;stroke:#000000;stroke-width:0.5;stroke-dasharray:none;stroke-opacity:1;paint-order:fill markers stroke"
       d="m 1775.7185,27.496011 h 9.5247 v -9.43491 h 4.7624 v 9.43491 h 9.9741 v 5.03194 h -9.9741 v 9.16534 h -4.7624 v -9.16534 h -9.5247 z"
       id="path16" />
    <circle
       style="fill:none;fill-opacity:1;stroke:#000000;stroke-width:0.5;stroke-dasharray:none;stroke-opacity:1;paint-order:fill markers stroke"
       id="circle16"
       cy="139.59164"
       cx="1785.894"
       r="16.398762" />
    <path
       style="fill:none;fill-opacity:1;stroke:#000000;stroke-width:0.5;stroke-dasharray:none;stroke-opacity:1;paint-order:fill markers stroke"
       d="m 1773.7185,137.12061 h 9.5247 v -9.43491 h 4.7624 v 9.43491 h 9.9741 v 5.03194 h -9.9741 v 9.16534 h -4.7624 v -9.16534 h -9.5247 z"
       id="path17" />
    <circle
       style="fill:none;fill-opacity:1;stroke:#000000;stroke-width:0.5;stroke-dasharray:none;stroke-opacity:1;paint-order:fill markers stroke"
       id="circle17"
       cy="357.76257"
       cx="1785.894"
       r="16.398762" />
    <path
       style="fill:none;fill-opacity:1;stroke:#000000;stroke-width:0.5;stroke-dasharray:none;stroke-opacity:1;paint-order:fill markers stroke"
       d="m 1773.7185,355.29153 h 9.5247 v -9.43491 h 4.7624 v 9.43491 h 9.9741 v 5.03194 h -9.9741 v 9.16534 h -4.7624 v -9.16534 h -9.5247 z"
       id="path18" />
    <circle
       style="fill:none;fill-opacity:1;stroke:#000000;stroke-width:0.5;stroke-dasharray:none;stroke-opacity:1;paint-order:fill markers stroke"
       id="circle18"
       cy="467.02774"
       cx="1787.894"
       r="16.398762" />
    <path
       style="fill:none;fill-opacity:1;stroke:#000000;stroke-width:0.5;stroke-dasharray:none;stroke-opacity:1;paint-order:fill markers stroke"
       d="m 1775.7185,464.5567 h 9.5247 v -9.43491 h 4.7624 v 9.43491 h 9.9741 v 5.03194 h -9.9741 v 9.16534 h -4.7624 v -9.16534 h -9.5247 z"
       id="path19" />
    <rect
       style="fill:none;fill-opacity:1;stroke:#000000;stroke-width:0.5;stroke-dasharray:none;stroke-opacity:1;paint-order:fill markers stroke"
       id="rect22"
       width="1649.4756"
       height="174.99309"
       x="85.109077"
       y="161.20207" />
    <circle
       style="fill:none;fill-opacity:1;stroke:#000000;stroke-width:0.80531;stroke-dasharray:none;stroke-opacity:1;paint-order:fill markers stroke"
       id="circle23"
       cy="357.76257"
       cx="34.213455"
       r="26.412178" />
    <circle
       style="fill:none;fill-opacity:1;stroke:#000000;stroke-width:0.80531;stroke-dasharray:none;stroke-opacity:1;paint-order:fill markers stroke"
       id="circle24"
       cy="139.59164"
       cx="34.213455"
       r="26.412178" />
    <circle
       style="fill:none;fill-opacity:1;stroke:#000000;stroke-width:0.80531;stroke-dasharray:none;stroke-opacity:1;paint-order:fill markers stroke"
       id="circle25"
       cy="357.76257"
       cx="1785.1611"
       r="26.412178" />
    <circle
       style="fill:none;fill-opacity:1;stroke:#000000;stroke-width:0.80531;stroke-dasharray:none;stroke-opacity:1;paint-order:fill markers stroke"
       id="circle26"
       cy="139.59164"
       cx="1785.1611"
       r="26.412178" />
  </g>
</svg>
