<?xml version="1.0" encoding="UTF-8" standalone="no"?>
<!-- Created with Inkscape (http://www.inkscape.org/) -->

<svg
   version="1.1"
   id="svg1"
   width="306.14172"
   height="177.63782"
   viewBox="0 0 306.14171 177.63782"
   sodipodi:docname="Schneider 2-63A 4P MCB with Aux.pdf"
   xmlns:inkscape="http://www.inkscape.org/namespaces/inkscape"
   xmlns:sodipodi="http://sodipodi.sourceforge.net/DTD/sodipodi-0.dtd"
   xmlns="http://www.w3.org/2000/svg"
   xmlns:svg="http://www.w3.org/2000/svg">
  <defs
     id="defs1">
    <clipPath
       clipPathUnits="userSpaceOnUse"
       id="clipPath2">
      <path
         d="M 2433,4169 H 4346 V 5279 H 2433 V 4169"
         transform="translate(-2.0833333e-6,2.0833333e-4)"
         id="path2" />
    </clipPath>
    <clipPath
       clipPathUnits="userSpaceOnUse"
       id="clipPath4">
      <path
         d="M 2433,4169 H 4346 V 5279 H 2433 V 4169"
         transform="translate(-2.0833333e-6,2.0833333e-4)"
         id="path4" />
    </clipPath>
    <clipPath
       clipPathUnits="userSpaceOnUse"
       id="clipPath6">
      <path
         d="M 2433,4169 H 4346 V 5279 H 2433 V 4169"
         transform="translate(-2.0833333e-6,2.0833333e-4)"
         id="path6" />
    </clipPath>
    <clipPath
       clipPathUnits="userSpaceOnUse"
       id="clipPath8">
      <path
         d="M 2433,4169 H 4346 V 5279 H 2433 V 4169"
         transform="translate(-2.0833333e-6,2.0833333e-4)"
         id="path8" />
    </clipPath>
    <clipPath
       clipPathUnits="userSpaceOnUse"
       id="clipPath10">
      <path
         d="M 2433,4169 H 4346 V 5279 H 2433 V 4169"
         transform="translate(-2.0833333e-6,2.0833333e-4)"
         id="path10" />
    </clipPath>
    <clipPath
       clipPathUnits="userSpaceOnUse"
       id="clipPath12">
      <path
         d="M 2433,4169 H 4346 V 5279 H 2433 V 4169"
         transform="translate(-2.0833333e-6,2.0833333e-4)"
         id="path12" />
    </clipPath>
    <clipPath
       clipPathUnits="userSpaceOnUse"
       id="clipPath14">
      <path
         d="M 2433,4169 H 4346 V 5279 H 2433 V 4169"
         transform="translate(-2.0833333e-6,2.0833333e-4)"
         id="path14" />
    </clipPath>
    <clipPath
       clipPathUnits="userSpaceOnUse"
       id="clipPath16">
      <path
         d="M 2433,4169 H 4346 V 5279 H 2433 V 4169"
         transform="translate(-2.0833333e-6,2.0833333e-4)"
         id="path16" />
    </clipPath>
    <clipPath
       clipPathUnits="userSpaceOnUse"
       id="clipPath26">
      <path
         d="M 2433,4169 H 4346 V 5279 H 2433 V 4169"
         transform="translate(-2.0833333e-6,2.0833333e-4)"
         id="path26" />
    </clipPath>
    <clipPath
       clipPathUnits="userSpaceOnUse"
       id="clipPath28">
      <path
         d="M 2433,4169 H 4346 V 5279 H 2433 V 4169"
         transform="translate(-2.0833333e-6,2.0833333e-4)"
         id="path28" />
    </clipPath>
    <clipPath
       clipPathUnits="userSpaceOnUse"
       id="clipPath30">
      <path
         d="M 2433,4169 H 4346 V 5279 H 2433 V 4169"
         transform="translate(-2.0833333e-6,2.0833333e-4)"
         id="path30" />
    </clipPath>
    <clipPath
       clipPathUnits="userSpaceOnUse"
       id="clipPath32">
      <path
         d="M 2433,4169 H 4346 V 5279 H 2433 V 4169"
         transform="translate(-2.0833333e-6,2.0833333e-4)"
         id="path32" />
    </clipPath>
    <clipPath
       clipPathUnits="userSpaceOnUse"
       id="clipPath39">
      <path
         d="M 2433,4169 H 4346 V 5279 H 2433 V 4169"
         transform="translate(-2.0833333e-6,2.0833333e-4)"
         id="path39" />
    </clipPath>
    <clipPath
       clipPathUnits="userSpaceOnUse"
       id="clipPath41">
      <path
         d="M 2433,4169 H 4346 V 5279 H 2433 V 4169"
         transform="translate(-2.0833333e-6,2.0833333e-4)"
         id="path41" />
    </clipPath>
    <clipPath
       clipPathUnits="userSpaceOnUse"
       id="clipPath43">
      <path
         d="M 2433,4169 H 4346 V 5279 H 2433 V 4169"
         transform="translate(-2.0833333e-6,2.0833333e-4)"
         id="path43" />
    </clipPath>
    <clipPath
       clipPathUnits="userSpaceOnUse"
       id="clipPath45">
      <path
         d="M 2433,4169 H 4346 V 5279 H 2433 V 4169"
         transform="translate(-2.0833333e-6,2.0833333e-4)"
         id="path45" />
    </clipPath>
    <clipPath
       clipPathUnits="userSpaceOnUse"
       id="clipPath47">
      <path
         d="M 2433,4169 H 4346 V 5279 H 2433 V 4169"
         transform="translate(-2.0833333e-6,2.0833333e-4)"
         id="path47" />
    </clipPath>
    <clipPath
       clipPathUnits="userSpaceOnUse"
       id="clipPath49">
      <path
         d="M 2433,4169 H 4346 V 5279 H 2433 V 4169"
         transform="translate(-2.0833333e-6,2.0833333e-4)"
         id="path49" />
    </clipPath>
    <clipPath
       clipPathUnits="userSpaceOnUse"
       id="clipPath51">
      <path
         d="M 2433,4169 H 4346 V 5279 H 2433 V 4169"
         transform="translate(-2.0833333e-6,2.0833333e-4)"
         id="path51" />
    </clipPath>
    <clipPath
       clipPathUnits="userSpaceOnUse"
       id="clipPath53">
      <path
         d="M 2433,4169 H 4346 V 5279 H 2433 V 4169"
         transform="translate(-2.0833333e-6,2.0833333e-4)"
         id="path53" />
    </clipPath>
    <clipPath
       clipPathUnits="userSpaceOnUse"
       id="clipPath55">
      <path
         d="M 2433,4169 H 4346 V 5279 H 2433 V 4169"
         transform="translate(-2.0833333e-6,2.0833333e-4)"
         id="path55" />
    </clipPath>
    <clipPath
       clipPathUnits="userSpaceOnUse"
       id="clipPath57">
      <path
         d="M 2433,4169 H 4346 V 5279 H 2433 V 4169"
         transform="translate(-2.0833333e-6,2.0833333e-4)"
         id="path57" />
    </clipPath>
    <clipPath
       clipPathUnits="userSpaceOnUse"
       id="clipPath59">
      <path
         d="M 2433,4169 H 4346 V 5279 H 2433 V 4169"
         transform="translate(-2.0833333e-6,2.0833333e-4)"
         id="path59" />
    </clipPath>
    <clipPath
       clipPathUnits="userSpaceOnUse"
       id="clipPath61">
      <path
         d="M 2433,4169 H 4346 V 5279 H 2433 V 4169"
         transform="translate(-2.0833333e-6,2.0833333e-4)"
         id="path61" />
    </clipPath>
    <clipPath
       clipPathUnits="userSpaceOnUse"
       id="clipPath63">
      <path
         d="M 2433,4169 H 4346 V 5279 H 2433 V 4169"
         transform="translate(-2.0833333e-6,2.0833333e-4)"
         id="path63" />
    </clipPath>
    <clipPath
       clipPathUnits="userSpaceOnUse"
       id="clipPath65">
      <path
         d="M 2433,4169 H 4346 V 5279 H 2433 V 4169"
         transform="translate(-2.0833333e-6,2.0833333e-4)"
         id="path65" />
    </clipPath>
    <clipPath
       clipPathUnits="userSpaceOnUse"
       id="clipPath67">
      <path
         d="M 2433,4169 H 4346 V 5279 H 2433 V 4169"
         transform="translate(-2.0833333e-6,2.0833333e-4)"
         id="path67" />
    </clipPath>
    <clipPath
       clipPathUnits="userSpaceOnUse"
       id="clipPath69">
      <path
         d="M 2433,4169 H 4346 V 5279 H 2433 V 4169"
         transform="translate(-2.0833333e-6,2.0833333e-4)"
         id="path69" />
    </clipPath>
    <clipPath
       clipPathUnits="userSpaceOnUse"
       id="clipPath71">
      <path
         d="M 2433,4169 H 4346 V 5279 H 2433 V 4169"
         transform="translate(-2.0833333e-6,2.0833333e-4)"
         id="path71" />
    </clipPath>
    <clipPath
       clipPathUnits="userSpaceOnUse"
       id="clipPath73">
      <path
         d="M 2433,4169 H 4346 V 5279 H 2433 V 4169"
         transform="translate(-2.0833333e-6,2.0833333e-4)"
         id="path73" />
    </clipPath>
    <clipPath
       clipPathUnits="userSpaceOnUse"
       id="clipPath75">
      <path
         d="M 2433,4169 H 4346 V 5279 H 2433 V 4169"
         transform="translate(-2.0833333e-6,2.0833333e-4)"
         id="path75" />
    </clipPath>
    <clipPath
       clipPathUnits="userSpaceOnUse"
       id="clipPath89">
      <path
         d="M 2433,4169 H 4346 V 5279 H 2433 V 4169"
         transform="translate(-2.0833333e-6,2.0833333e-4)"
         id="path89" />
    </clipPath>
    <clipPath
       clipPathUnits="userSpaceOnUse"
       id="clipPath91">
      <path
         d="M 2433,4169 H 4346 V 5279 H 2433 V 4169"
         transform="translate(-2.0833333e-6,2.0833333e-4)"
         id="path91" />
    </clipPath>
    <clipPath
       clipPathUnits="userSpaceOnUse"
       id="clipPath97">
      <path
         d="M 2433,4169 H 4346 V 5279 H 2433 V 4169"
         transform="translate(-2.0833333e-6,2.0833333e-4)"
         id="path97" />
    </clipPath>
  </defs>
  <sodipodi:namedview
     id="namedview1"
     pagecolor="#505050"
     bordercolor="#eeeeee"
     borderopacity="1"
     inkscape:showpageshadow="0"
     inkscape:pageopacity="0"
     inkscape:pagecheckerboard="0"
     inkscape:deskcolor="#505050" />
  <g
     id="layer-oc2"
     inkscape:groupmode="layer"
     inkscape:label="Breakers"
     transform="translate(-407.46669,-705.70667)">
    <path
       id="path1"
       d="m 3708,4169 h 333 l -333,1109 z m 333,0 -333,1109 h 92 z"
       style="fill:#d6d6d6;fill-opacity:1;fill-rule:nonzero;stroke:#d6d6d6;stroke-width:1;stroke-linecap:butt;stroke-linejoin:miter;stroke-miterlimit:10;stroke-dasharray:none;stroke-opacity:1"
       transform="matrix(0.15961555,0,0,-0.1593156,19.60042,1547.0528)"
       clip-path="url(#clipPath2)" />
    <path
       id="path3"
       d="m 4041,4169 h 92 l -333,1109 z m 92,0 -333,1109 h 333 z"
       style="fill:#d6d6d6;fill-opacity:1;fill-rule:nonzero;stroke:#d6d6d6;stroke-width:1;stroke-linecap:butt;stroke-linejoin:miter;stroke-miterlimit:10;stroke-dasharray:none;stroke-opacity:1"
       transform="matrix(0.15961555,0,0,-0.1593156,19.60042,1547.0528)"
       clip-path="url(#clipPath4)" />
    <path
       id="path5"
       d="m 3283,4169 h 333 l -333,1109 z m 333,0 -333,1109 h 92 z"
       style="fill:#d6d6d6;fill-opacity:1;fill-rule:nonzero;stroke:#d6d6d6;stroke-width:1;stroke-linecap:butt;stroke-linejoin:miter;stroke-miterlimit:10;stroke-dasharray:none;stroke-opacity:1"
       transform="matrix(0.15961555,0,0,-0.1593156,19.60042,1547.0528)"
       clip-path="url(#clipPath6)" />
    <path
       id="path7"
       d="m 3616,4169 h 92 l -333,1109 z m 92,0 -333,1109 h 333 z"
       style="fill:#d6d6d6;fill-opacity:1;fill-rule:nonzero;stroke:#d6d6d6;stroke-width:1;stroke-linecap:butt;stroke-linejoin:miter;stroke-miterlimit:10;stroke-dasharray:none;stroke-opacity:1"
       transform="matrix(0.15961555,0,0,-0.1593156,19.60042,1547.0528)"
       clip-path="url(#clipPath8)" />
    <path
       id="path9"
       d="m 2858,4169 h 333 l -333,1109 z m 333,0 -333,1109 h 92 z"
       style="fill:#d6d6d6;fill-opacity:1;fill-rule:nonzero;stroke:#d6d6d6;stroke-width:1;stroke-linecap:butt;stroke-linejoin:miter;stroke-miterlimit:10;stroke-dasharray:none;stroke-opacity:1"
       transform="matrix(0.15961555,0,0,-0.1593156,19.60042,1547.0528)"
       clip-path="url(#clipPath10)" />
    <path
       id="path11"
       d="m 3191,4169 h 92 l -333,1109 z m 92,0 -333,1109 h 333 z"
       style="fill:#d6d6d6;fill-opacity:1;fill-rule:nonzero;stroke:#d6d6d6;stroke-width:1;stroke-linecap:butt;stroke-linejoin:miter;stroke-miterlimit:10;stroke-dasharray:none;stroke-opacity:1"
       transform="matrix(0.15961555,0,0,-0.1593156,19.60042,1547.0528)"
       clip-path="url(#clipPath12)" />
    <path
       id="path13"
       d="m 2433,4169 h 332 l -332,1109 z m 332,0 -332,1109 h 92 z"
       style="fill:#d6d6d6;fill-opacity:1;fill-rule:nonzero;stroke:#d6d6d6;stroke-width:1;stroke-linecap:butt;stroke-linejoin:miter;stroke-miterlimit:10;stroke-dasharray:none;stroke-opacity:1"
       transform="matrix(0.15961555,0,0,-0.1593156,19.60042,1547.0528)"
       clip-path="url(#clipPath14)" />
    <path
       id="path15"
       d="m 2765,4169 h 93 l -333,1109 z m 93,0 -333,1109 h 333 z"
       style="fill:#d6d6d6;fill-opacity:1;fill-rule:nonzero;stroke:#d6d6d6;stroke-width:1;stroke-linecap:butt;stroke-linejoin:miter;stroke-miterlimit:10;stroke-dasharray:none;stroke-opacity:1"
       transform="matrix(0.15961555,0,0,-0.1593156,19.60042,1547.0528)"
       clip-path="url(#clipPath16)" />
    <path
       id="path17"
       d="M 475.78167,706.18509 V 882.8661"
       style="fill:none;stroke:#000000;stroke-width:0.956793;stroke-linecap:round;stroke-linejoin:round;stroke-miterlimit:10;stroke-dasharray:none;stroke-opacity:1" />
    <path
       id="path18"
       d="M 407.94506,882.8661 V 706.18509"
       style="fill:none;stroke:#000000;stroke-width:0.956793;stroke-linecap:round;stroke-linejoin:round;stroke-miterlimit:10;stroke-dasharray:none;stroke-opacity:1" />
    <path
       id="path19"
       d="M 543.61829,706.18509 V 882.8661"
       style="fill:none;stroke:#000000;stroke-width:0.956793;stroke-linecap:round;stroke-linejoin:round;stroke-miterlimit:10;stroke-dasharray:none;stroke-opacity:1" />
    <path
       id="path20"
       d="M 475.78167,882.8661 V 706.18509"
       style="fill:none;stroke:#000000;stroke-width:0.956793;stroke-linecap:round;stroke-linejoin:round;stroke-miterlimit:10;stroke-dasharray:none;stroke-opacity:1" />
    <path
       id="path21"
       d="M 611.45489,706.18509 V 882.8661"
       style="fill:none;stroke:#000000;stroke-width:0.956793;stroke-linecap:round;stroke-linejoin:round;stroke-miterlimit:10;stroke-dasharray:none;stroke-opacity:1" />
    <path
       id="path22"
       d="M 543.61829,882.8661 V 706.18509"
       style="fill:none;stroke:#000000;stroke-width:0.956793;stroke-linecap:round;stroke-linejoin:round;stroke-miterlimit:10;stroke-dasharray:none;stroke-opacity:1" />
    <path
       id="path23"
       d="M 679.29151,706.18509 V 882.8661"
       style="fill:none;stroke:#000000;stroke-width:0.956793;stroke-linecap:round;stroke-linejoin:round;stroke-miterlimit:10;stroke-dasharray:none;stroke-opacity:1" />
    <path
       id="path24"
       d="M 611.45489,882.8661 V 706.18509"
       style="fill:none;stroke:#000000;stroke-width:0.956793;stroke-linecap:round;stroke-linejoin:round;stroke-miterlimit:10;stroke-dasharray:none;stroke-opacity:1" />
    <path
       id="path25"
       d="m 2834,5219 h -378 l 378,-35 z m -378,0 378,-35 h -378 z"
       style="fill:#007f1f;fill-opacity:1;fill-rule:nonzero;stroke:#007f1f;stroke-width:1;stroke-linecap:round;stroke-linejoin:miter;stroke-miterlimit:10;stroke-dasharray:none;stroke-opacity:1"
       transform="matrix(0.15961555,0,0,-0.1593156,19.60042,1547.0528)"
       clip-path="url(#clipPath26)" />
    <path
       id="path27"
       d="m 3259,5219 h -378 l 378,-35 z m -378,0 378,-35 h -378 z"
       style="fill:#007f1f;fill-opacity:1;fill-rule:nonzero;stroke:#007f1f;stroke-width:1;stroke-linecap:round;stroke-linejoin:miter;stroke-miterlimit:10;stroke-dasharray:none;stroke-opacity:1"
       transform="matrix(0.15961555,0,0,-0.1593156,19.60042,1547.0528)"
       clip-path="url(#clipPath28)" />
    <path
       id="path29"
       d="m 3684,5219 h -378 l 378,-35 z m -378,0 378,-35 h -378 z"
       style="fill:#007f1f;fill-opacity:1;fill-rule:nonzero;stroke:#007f1f;stroke-width:1;stroke-linecap:round;stroke-linejoin:miter;stroke-miterlimit:10;stroke-dasharray:none;stroke-opacity:1"
       transform="matrix(0.15961555,0,0,-0.1593156,19.60042,1547.0528)"
       clip-path="url(#clipPath30)" />
    <path
       id="path31"
       d="m 4109,5219 h -378 l 378,-35 z m -378,0 378,-35 h -378 z"
       style="fill:#007f1f;fill-opacity:1;fill-rule:nonzero;stroke:#007f1f;stroke-width:1;stroke-linecap:round;stroke-linejoin:miter;stroke-miterlimit:10;stroke-dasharray:none;stroke-opacity:1"
       transform="matrix(0.15961555,0,0,-0.1593156,19.60042,1547.0528)"
       clip-path="url(#clipPath32)" />
    <path
       id="path33"
       d="M 407.94506,709.84936 H 679.29151"
       style="fill:none;stroke:#000000;stroke-width:0.956793;stroke-linecap:round;stroke-linejoin:round;stroke-miterlimit:10;stroke-dasharray:none;stroke-opacity:1" />
    <path
       id="path34"
       d="m 411.61622,715.58471 h 60.33468 v 5.57605 h -60.33468 v -5.57605"
       style="fill:none;stroke:#000000;stroke-width:0.956793;stroke-linecap:round;stroke-linejoin:round;stroke-miterlimit:10;stroke-dasharray:none;stroke-opacity:1" />
    <path
       id="path35"
       d="m 479.45283,715.58471 h 60.33468 v 5.57605 h -60.33468 v -5.57605"
       style="fill:none;stroke:#000000;stroke-width:0.956793;stroke-linecap:round;stroke-linejoin:round;stroke-miterlimit:10;stroke-dasharray:none;stroke-opacity:1" />
    <path
       id="path36"
       d="m 547.28944,715.58471 h 60.33468 v 5.57605 h -60.33468 v -5.57605"
       style="fill:none;stroke:#000000;stroke-width:0.956793;stroke-linecap:round;stroke-linejoin:round;stroke-miterlimit:10;stroke-dasharray:none;stroke-opacity:1" />
    <path
       id="path37"
       d="m 615.12606,715.58471 h 60.33467 v 5.57605 h -60.33467 v -5.57605"
       style="fill:none;stroke:#000000;stroke-width:0.956793;stroke-linecap:round;stroke-linejoin:round;stroke-miterlimit:10;stroke-dasharray:none;stroke-opacity:1" />
    <path
       id="path38"
       d="m 2760,4688 h -230 l 230,-24 z m -230,0 230,-24 h -230 z"
       style="fill:#007f1f;fill-opacity:1;fill-rule:nonzero;stroke:#007f1f;stroke-width:1;stroke-linecap:round;stroke-linejoin:miter;stroke-miterlimit:10;stroke-dasharray:none;stroke-opacity:1"
       transform="matrix(0.15961555,0,0,-0.1593156,19.60042,1547.0528)"
       clip-path="url(#clipPath39)" />
    <path
       id="path40"
       d="m 3186,4688 h -231 l 231,-24 z m -231,0 231,-24 h -231 z"
       style="fill:#007f1f;fill-opacity:1;fill-rule:nonzero;stroke:#007f1f;stroke-width:1;stroke-linecap:round;stroke-linejoin:miter;stroke-miterlimit:10;stroke-dasharray:none;stroke-opacity:1"
       transform="matrix(0.15961555,0,0,-0.1593156,19.60042,1547.0528)"
       clip-path="url(#clipPath41)" />
    <path
       id="path42"
       d="m 3611,4688 h -231 l 231,-24 z m -231,0 231,-24 h -231 z"
       style="fill:#007f1f;fill-opacity:1;fill-rule:nonzero;stroke:#007f1f;stroke-width:1;stroke-linecap:round;stroke-linejoin:miter;stroke-miterlimit:10;stroke-dasharray:none;stroke-opacity:1"
       transform="matrix(0.15961555,0,0,-0.1593156,19.60042,1547.0528)"
       clip-path="url(#clipPath43)" />
    <path
       id="path44"
       d="m 4036,4688 h -231 l 231,-24 z m -231,0 231,-24 h -231 z"
       style="fill:#007f1f;fill-opacity:1;fill-rule:nonzero;stroke:#007f1f;stroke-width:1;stroke-linecap:round;stroke-linejoin:miter;stroke-miterlimit:10;stroke-dasharray:none;stroke-opacity:1"
       transform="matrix(0.15961555,0,0,-0.1593156,19.60042,1547.0528)"
       clip-path="url(#clipPath45)" />
    <path
       id="path46"
       d="m 4036,4664 h -231 l 231,-212 z m -231,0 231,-212 h -231 z"
       style="fill:#333333;fill-opacity:1;fill-rule:nonzero;stroke:#333333;stroke-width:1;stroke-linecap:round;stroke-linejoin:miter;stroke-miterlimit:10;stroke-dasharray:none;stroke-opacity:1"
       transform="matrix(0.15961555,0,0,-0.1593156,19.60042,1547.0528)"
       clip-path="url(#clipPath47)" />
    <path
       id="path48"
       d="m 3611,4664 h -231 l 231,-212 z m -231,0 231,-212 h -231 z"
       style="fill:#333333;fill-opacity:1;fill-rule:nonzero;stroke:#333333;stroke-width:1;stroke-linecap:round;stroke-linejoin:miter;stroke-miterlimit:10;stroke-dasharray:none;stroke-opacity:1"
       transform="matrix(0.15961555,0,0,-0.1593156,19.60042,1547.0528)"
       clip-path="url(#clipPath49)" />
    <path
       id="path50"
       d="m 3186,4664 h -231 l 231,-212 z m -231,0 231,-212 h -231 z"
       style="fill:#333333;fill-opacity:1;fill-rule:nonzero;stroke:#333333;stroke-width:1;stroke-linecap:round;stroke-linejoin:miter;stroke-miterlimit:10;stroke-dasharray:none;stroke-opacity:1"
       transform="matrix(0.15961555,0,0,-0.1593156,19.60042,1547.0528)"
       clip-path="url(#clipPath51)" />
    <path
       id="path52"
       d="m 2760,4664 h -230 l 230,-212 z m -230,0 230,-212 h -230 z"
       style="fill:#333333;fill-opacity:1;fill-rule:nonzero;stroke:#333333;stroke-width:1;stroke-linecap:round;stroke-linejoin:miter;stroke-miterlimit:10;stroke-dasharray:none;stroke-opacity:1"
       transform="matrix(0.15961555,0,0,-0.1593156,19.60042,1547.0528)"
       clip-path="url(#clipPath53)" />
    <path
       id="path54"
       d="m 4133,4452 h -425 l 425,-50 z m -425,0 425,-50 h -425 z"
       style="fill:#333333;fill-opacity:1;fill-rule:nonzero;stroke:#333333;stroke-width:1;stroke-linecap:round;stroke-linejoin:miter;stroke-miterlimit:10;stroke-dasharray:none;stroke-opacity:1"
       transform="matrix(0.15961555,0,0,-0.1593156,19.60042,1547.0528)"
       clip-path="url(#clipPath55)" />
    <path
       id="path56"
       d="m 3708,4452 h -425 l 425,-50 z m -425,0 425,-50 h -425 z"
       style="fill:#333333;fill-opacity:1;fill-rule:nonzero;stroke:#333333;stroke-width:1;stroke-linecap:round;stroke-linejoin:miter;stroke-miterlimit:10;stroke-dasharray:none;stroke-opacity:1"
       transform="matrix(0.15961555,0,0,-0.1593156,19.60042,1547.0528)"
       clip-path="url(#clipPath57)" />
    <path
       id="path58"
       d="m 3283,4452 h -425 l 425,-50 z m -425,0 425,-50 h -425 z"
       style="fill:#333333;fill-opacity:1;fill-rule:nonzero;stroke:#333333;stroke-width:1;stroke-linecap:round;stroke-linejoin:miter;stroke-miterlimit:10;stroke-dasharray:none;stroke-opacity:1"
       transform="matrix(0.15961555,0,0,-0.1593156,19.60042,1547.0528)"
       clip-path="url(#clipPath59)" />
    <path
       id="path60"
       d="m 2858,4452 h -425 l 425,-50 z m -425,0 425,-50 h -425 z"
       style="fill:#333333;fill-opacity:1;fill-rule:nonzero;stroke:#333333;stroke-width:1;stroke-linecap:round;stroke-linejoin:miter;stroke-miterlimit:10;stroke-dasharray:none;stroke-opacity:1"
       transform="matrix(0.15961555,0,0,-0.1593156,19.60042,1547.0528)"
       clip-path="url(#clipPath61)" />
    <path
       id="path62"
       d="m 4133,4402 h -151 l 151,-61 z m -151,0 151,-61 h -151 z"
       style="fill:#333333;fill-opacity:1;fill-rule:nonzero;stroke:#333333;stroke-width:1;stroke-linecap:round;stroke-linejoin:miter;stroke-miterlimit:10;stroke-dasharray:none;stroke-opacity:1"
       transform="matrix(0.15961555,0,0,-0.1593156,19.60042,1547.0528)"
       clip-path="url(#clipPath63)" />
    <path
       id="path64"
       d="m 2574,4402 h -141 l 141,-61 z m -141,0 141,-61 h -141 z"
       style="fill:#333333;fill-opacity:1;fill-rule:nonzero;stroke:#333333;stroke-width:1;stroke-linecap:round;stroke-linejoin:miter;stroke-miterlimit:10;stroke-dasharray:none;stroke-opacity:1"
       transform="matrix(0.15961555,0,0,-0.1593156,19.60042,1547.0528)"
       clip-path="url(#clipPath65)" />
    <path
       id="path66"
       d="m 4133,4341 h -425 l 425,-54 z m -425,0 425,-54 h -425 z"
       style="fill:#333333;fill-opacity:1;fill-rule:nonzero;stroke:#333333;stroke-width:1;stroke-linecap:round;stroke-linejoin:miter;stroke-miterlimit:10;stroke-dasharray:none;stroke-opacity:1"
       transform="matrix(0.15961555,0,0,-0.1593156,19.60042,1547.0528)"
       clip-path="url(#clipPath67)" />
    <path
       id="path68"
       d="m 3708,4341 h -425 l 425,-54 z m -425,0 425,-54 h -425 z"
       style="fill:#333333;fill-opacity:1;fill-rule:nonzero;stroke:#333333;stroke-width:1;stroke-linecap:round;stroke-linejoin:miter;stroke-miterlimit:10;stroke-dasharray:none;stroke-opacity:1"
       transform="matrix(0.15961555,0,0,-0.1593156,19.60042,1547.0528)"
       clip-path="url(#clipPath69)" />
    <path
       id="path70"
       d="m 3283,4341 h -425 l 425,-54 z m -425,0 425,-54 h -425 z"
       style="fill:#333333;fill-opacity:1;fill-rule:nonzero;stroke:#333333;stroke-width:1;stroke-linecap:round;stroke-linejoin:miter;stroke-miterlimit:10;stroke-dasharray:none;stroke-opacity:1"
       transform="matrix(0.15961555,0,0,-0.1593156,19.60042,1547.0528)"
       clip-path="url(#clipPath71)" />
    <path
       id="path72"
       d="m 2858,4341 h -425 l 425,-54 z m -425,0 425,-54 h -425 z"
       style="fill:#333333;fill-opacity:1;fill-rule:nonzero;stroke:#333333;stroke-width:1;stroke-linecap:round;stroke-linejoin:miter;stroke-miterlimit:10;stroke-dasharray:none;stroke-opacity:1"
       transform="matrix(0.15961555,0,0,-0.1593156,19.60042,1547.0528)"
       clip-path="url(#clipPath73)" />
    <path
       id="path74"
       d="M 3982,4402 H 2574 l 1408,-61 z m -1408,0 1408,-61 H 2574 Z"
       style="fill:#adadad;fill-opacity:1;fill-rule:nonzero;stroke:#adadad;stroke-width:1;stroke-linecap:round;stroke-linejoin:miter;stroke-miterlimit:10;stroke-dasharray:none;stroke-opacity:1"
       transform="matrix(0.15961555,0,0,-0.1593156,19.60042,1547.0528)"
       clip-path="url(#clipPath75)" />
    <path
       id="path76"
       d="M 407.94506,800.1813 H 679.29151"
       style="fill:none;stroke:#000000;stroke-width:0.956793;stroke-linecap:round;stroke-linejoin:round;stroke-miterlimit:10;stroke-dasharray:none;stroke-opacity:1" />
    <path
       id="path77"
       d="M 407.94506,879.20183 H 679.29151"
       style="fill:none;stroke:#000000;stroke-width:0.956793;stroke-linecap:round;stroke-linejoin:round;stroke-miterlimit:10;stroke-dasharray:none;stroke-opacity:1" />
    <path
       id="path78"
       d="m 423.42777,804.00487 h 36.71158 v 33.77491 h -36.71158 v -33.77491"
       style="fill:none;stroke:#000000;stroke-width:0.956793;stroke-linecap:round;stroke-linejoin:round;stroke-miterlimit:10;stroke-dasharray:none;stroke-opacity:1" />
    <path
       id="path79"
       d="m 423.42777,800.1813 h 36.71158 v 3.82357 h -36.71158 v -3.82357"
       style="fill:none;stroke:#000000;stroke-width:0.956793;stroke-linecap:round;stroke-linejoin:round;stroke-miterlimit:10;stroke-dasharray:none;stroke-opacity:1" />
    <path
       id="path80"
       d="m 491.26438,804.00487 h 36.87119 v 33.77491 h -36.87119 v -33.77491"
       style="fill:none;stroke:#000000;stroke-width:0.956793;stroke-linecap:round;stroke-linejoin:round;stroke-miterlimit:10;stroke-dasharray:none;stroke-opacity:1" />
    <path
       id="path81"
       d="m 491.26438,800.1813 h 36.87119 v 3.82357 h -36.87119 v -3.82357"
       style="fill:none;stroke:#000000;stroke-width:0.956793;stroke-linecap:round;stroke-linejoin:round;stroke-miterlimit:10;stroke-dasharray:none;stroke-opacity:1" />
    <path
       id="path82"
       d="m 559.10099,804.00487 h 36.8712 v 33.77491 h -36.8712 v -33.77491"
       style="fill:none;stroke:#000000;stroke-width:0.956793;stroke-linecap:round;stroke-linejoin:round;stroke-miterlimit:10;stroke-dasharray:none;stroke-opacity:1" />
    <path
       id="path83"
       d="m 559.10099,800.1813 h 36.8712 v 3.82357 h -36.8712 v -3.82357"
       style="fill:none;stroke:#000000;stroke-width:0.956793;stroke-linecap:round;stroke-linejoin:round;stroke-miterlimit:10;stroke-dasharray:none;stroke-opacity:1" />
    <path
       id="path84"
       d="m 626.93761,800.1813 h 36.87118 v 3.82357 h -36.87118 v -3.82357"
       style="fill:none;stroke:#000000;stroke-width:0.956793;stroke-linecap:round;stroke-linejoin:round;stroke-miterlimit:10;stroke-dasharray:none;stroke-opacity:1" />
    <path
       id="path85"
       d="m 407.94506,837.77978 h 271.34645 v 26.28707 H 407.94506 v -26.28707"
       style="fill:none;stroke:#000000;stroke-width:0.956793;stroke-linecap:round;stroke-linejoin:round;stroke-miterlimit:10;stroke-dasharray:none;stroke-opacity:1" />
    <path
       id="path86"
       d="m 430.45085,845.74555 h 224.73871 v 9.71826 H 430.45085 v -9.71826"
       style="fill:none;stroke:#000000;stroke-width:0.956793;stroke-linecap:round;stroke-linejoin:round;stroke-miterlimit:10;stroke-dasharray:none;stroke-opacity:1" />
    <path
       id="path87"
       d="m 626.93761,804.00487 h 36.87118 v 33.77491 h -36.87118 v -33.77491"
       style="fill:none;stroke:#000000;stroke-width:0.956793;stroke-linecap:round;stroke-linejoin:round;stroke-miterlimit:10;stroke-dasharray:none;stroke-opacity:1" />
    <path
       id="path88"
       d="m 4133,4169 h 166 l -166,1109 z m 166,0 -166,1109 h 46 z"
       style="fill:#d6d6d6;fill-opacity:1;fill-rule:nonzero;stroke:#d6d6d6;stroke-width:1;stroke-linecap:round;stroke-linejoin:miter;stroke-miterlimit:10;stroke-dasharray:none;stroke-opacity:1"
       transform="matrix(0.15961555,0,0,-0.1593156,19.60042,1547.0528)"
       clip-path="url(#clipPath89)" />
    <path
       id="path90"
       d="m 4299,4169 h 46 l -166,1109 z m 46,0 -166,1109 h 166 z"
       style="fill:#d6d6d6;fill-opacity:1;fill-rule:nonzero;stroke:#d6d6d6;stroke-width:1;stroke-linecap:round;stroke-linejoin:miter;stroke-miterlimit:10;stroke-dasharray:none;stroke-opacity:1"
       transform="matrix(0.15961555,0,0,-0.1593156,19.60042,1547.0528)"
       clip-path="url(#clipPath91)" />
    <path
       id="path92"
       d="M 713.13001,706.18509 V 882.8661"
       style="fill:none;stroke:#000000;stroke-width:0.956793;stroke-linecap:round;stroke-linejoin:round;stroke-miterlimit:10;stroke-dasharray:none;stroke-opacity:1" />
    <path
       id="path93"
       d="M 679.29151,882.8661 V 706.18509"
       style="fill:none;stroke:#000000;stroke-width:0.956793;stroke-linecap:round;stroke-linejoin:round;stroke-miterlimit:10;stroke-dasharray:none;stroke-opacity:1" />
    <path
       id="path94"
       d="m 679.29151,709.84936 h 33.8385"
       style="fill:none;stroke:#000000;stroke-width:0.956793;stroke-linecap:round;stroke-linejoin:round;stroke-miterlimit:10;stroke-dasharray:none;stroke-opacity:1" />
    <path
       id="path95"
       d="m 679.29151,879.20183 h 33.8385"
       style="fill:none;stroke:#000000;stroke-width:0.956793;stroke-linecap:round;stroke-linejoin:round;stroke-miterlimit:10;stroke-dasharray:none;stroke-opacity:1" />
    <path
       id="path96"
       d="m 4345,5219 h -212 l 212,-35 z m -212,0 212,-35 h -212 z"
       style="fill:#007f1f;fill-opacity:1;fill-rule:nonzero;stroke:#007f1f;stroke-width:1;stroke-linecap:round;stroke-linejoin:miter;stroke-miterlimit:10;stroke-dasharray:none;stroke-opacity:1"
       transform="matrix(0.15961555,0,0,-0.1593156,19.60042,1547.0528)"
       clip-path="url(#clipPath97)" />
    <path
       id="path98"
       d="m 679.29151,715.58471 h 33.8385 v 5.57605 h -33.8385 v -5.57605"
       style="fill:none;stroke:#000000;stroke-width:0.956793;stroke-linecap:round;stroke-linejoin:round;stroke-miterlimit:10;stroke-dasharray:none;stroke-opacity:1" />
  </g>
  <g
     id="layer-oc3"
     inkscape:groupmode="layer"
     inkscape:label="Screws"
     transform="translate(-407.46669,-705.70667)">
    <path
       id="path99"
       d="m 696.21075,706.18509 v 0"
       style="fill:none;stroke:#000000;stroke-width:0.956793;stroke-linecap:round;stroke-linejoin:round;stroke-miterlimit:10;stroke-dasharray:none;stroke-opacity:1" />
    <path
       id="path100"
       d="m 696.37037,882.8661 h -0.15962 -0.15961"
       style="fill:none;stroke:#000000;stroke-width:0.956793;stroke-linecap:round;stroke-linejoin:round;stroke-miterlimit:10;stroke-dasharray:none;stroke-opacity:1" />
  </g>
  <g
     id="layer-oc4"
     inkscape:groupmode="layer"
     inkscape:label="0"
     transform="translate(-407.46669,-705.70667)">
    <path
       id="path101"
       d="M 713.13001,706.18509 H 407.94506"
       style="fill:none;stroke:#ffffff;stroke-width:0.159466;stroke-linecap:round;stroke-linejoin:round;stroke-miterlimit:10;stroke-dasharray:none;stroke-opacity:1" />
    <path
       id="path102"
       d="M 713.13001,706.18509 H 407.94506"
       style="fill:none;stroke:#000000;stroke-width:0.956793;stroke-linecap:round;stroke-linejoin:round;stroke-miterlimit:10;stroke-dasharray:none;stroke-opacity:1" />
    <path
       id="path103"
       d="M 713.13001,882.8661 H 407.94506"
       style="fill:none;stroke:#ffffff;stroke-width:0.159466;stroke-linecap:round;stroke-linejoin:round;stroke-miterlimit:10;stroke-dasharray:none;stroke-opacity:1" />
    <path
       id="path104"
       d="M 713.13001,882.8661 H 407.94506"
       style="fill:none;stroke:#000000;stroke-width:0.956793;stroke-linecap:round;stroke-linejoin:round;stroke-miterlimit:10;stroke-dasharray:none;stroke-opacity:1" />
  </g>
</svg>
