<?xml version="1.0" encoding="UTF-8" standalone="no"?>
<!-- Created with Inkscape (http://www.inkscape.org/) -->

<svg
   version="1.1"
   id="svg1"
   width="306.14172"
   height="177.63782"
   viewBox="0 0 306.14171 177.63782"
   sodipodi:docname="Schneider 63-125A 3P MCB.pdf"
   xmlns:inkscape="http://www.inkscape.org/namespaces/inkscape"
   xmlns:sodipodi="http://sodipodi.sourceforge.net/DTD/sodipodi-0.dtd"
   xmlns="http://www.w3.org/2000/svg"
   xmlns:svg="http://www.w3.org/2000/svg">
  <defs
     id="defs1">
    <clipPath
       clipPathUnits="userSpaceOnUse"
       id="clipPath2">
      <path
         d="M 2433,4169 H 4346 V 5279 H 2433 V 4169"
         transform="translate(-2.0833333e-6,2.0833333e-4)"
         id="path2" />
    </clipPath>
    <clipPath
       clipPathUnits="userSpaceOnUse"
       id="clipPath4">
      <path
         d="M 2433,4169 H 4346 V 5279 H 2433 V 4169"
         transform="translate(-2.0833333e-6,2.0833333e-4)"
         id="path4" />
    </clipPath>
    <clipPath
       clipPathUnits="userSpaceOnUse"
       id="clipPath6">
      <path
         d="M 2433,4169 H 4346 V 5279 H 2433 V 4169"
         transform="translate(-2.0833333e-6,2.0833333e-4)"
         id="path6" />
    </clipPath>
    <clipPath
       clipPathUnits="userSpaceOnUse"
       id="clipPath8">
      <path
         d="M 2433,4169 H 4346 V 5279 H 2433 V 4169"
         transform="translate(-2.0833333e-6,2.0833333e-4)"
         id="path8" />
    </clipPath>
    <clipPath
       clipPathUnits="userSpaceOnUse"
       id="clipPath10">
      <path
         d="M 2433,4169 H 4346 V 5279 H 2433 V 4169"
         transform="translate(-2.0833333e-6,2.0833333e-4)"
         id="path10" />
    </clipPath>
    <clipPath
       clipPathUnits="userSpaceOnUse"
       id="clipPath12">
      <path
         d="M 2433,4169 H 4346 V 5279 H 2433 V 4169"
         transform="translate(-2.0833333e-6,2.0833333e-4)"
         id="path12" />
    </clipPath>
    <clipPath
       clipPathUnits="userSpaceOnUse"
       id="clipPath21">
      <path
         d="M 2433,4169 H 4346 V 5279 H 2433 V 4169"
         transform="translate(-2.0833333e-6,2.0833333e-4)"
         id="path21" />
    </clipPath>
    <clipPath
       clipPathUnits="userSpaceOnUse"
       id="clipPath23">
      <path
         d="M 2433,4169 H 4346 V 5279 H 2433 V 4169"
         transform="translate(-2.0833333e-6,2.0833333e-4)"
         id="path23" />
    </clipPath>
    <clipPath
       clipPathUnits="userSpaceOnUse"
       id="clipPath25">
      <path
         d="M 2433,4169 H 4346 V 5279 H 2433 V 4169"
         transform="translate(-2.0833333e-6,2.0833333e-4)"
         id="path25" />
    </clipPath>
    <clipPath
       clipPathUnits="userSpaceOnUse"
       id="clipPath27">
      <path
         d="M 2433,4169 H 4346 V 5279 H 2433 V 4169"
         transform="translate(-2.0833333e-6,2.0833333e-4)"
         id="path27" />
    </clipPath>
    <clipPath
       clipPathUnits="userSpaceOnUse"
       id="clipPath29">
      <path
         d="M 2433,4169 H 4346 V 5279 H 2433 V 4169"
         transform="translate(-2.0833333e-6,2.0833333e-4)"
         id="path29" />
    </clipPath>
    <clipPath
       clipPathUnits="userSpaceOnUse"
       id="clipPath32">
      <path
         d="M 2433,4169 H 4346 V 5279 H 2433 V 4169"
         transform="translate(-2.0833333e-6,2.0833333e-4)"
         id="path32" />
    </clipPath>
    <clipPath
       clipPathUnits="userSpaceOnUse"
       id="clipPath38">
      <path
         d="M 2433,4169 H 4346 V 5279 H 2433 V 4169"
         transform="translate(-2.0833333e-6,2.0833333e-4)"
         id="path38" />
    </clipPath>
    <clipPath
       clipPathUnits="userSpaceOnUse"
       id="clipPath40">
      <path
         d="M 2433,4169 H 4346 V 5279 H 2433 V 4169"
         transform="translate(-2.0833333e-6,2.0833333e-4)"
         id="path40" />
    </clipPath>
    <clipPath
       clipPathUnits="userSpaceOnUse"
       id="clipPath42">
      <path
         d="M 2433,4169 H 4346 V 5279 H 2433 V 4169"
         transform="translate(-2.0833333e-6,2.0833333e-4)"
         id="path42" />
    </clipPath>
    <clipPath
       clipPathUnits="userSpaceOnUse"
       id="clipPath44">
      <path
         d="M 2433,4169 H 4346 V 5279 H 2433 V 4169"
         transform="translate(-2.0833333e-6,2.0833333e-4)"
         id="path44" />
    </clipPath>
    <clipPath
       clipPathUnits="userSpaceOnUse"
       id="clipPath46">
      <path
         d="M 2433,4169 H 4346 V 5279 H 2433 V 4169"
         transform="translate(-2.0833333e-6,2.0833333e-4)"
         id="path46" />
    </clipPath>
    <clipPath
       clipPathUnits="userSpaceOnUse"
       id="clipPath48">
      <path
         d="M 2433,4169 H 4346 V 5279 H 2433 V 4169"
         transform="translate(-2.0833333e-6,2.0833333e-4)"
         id="path48" />
    </clipPath>
  </defs>
  <sodipodi:namedview
     id="namedview1"
     pagecolor="#505050"
     bordercolor="#eeeeee"
     borderopacity="1"
     inkscape:showpageshadow="0"
     inkscape:pageopacity="0"
     inkscape:pagecheckerboard="0"
     inkscape:deskcolor="#505050" />
  <g
     id="layer-oc1"
     inkscape:groupmode="layer"
     inkscape:label="Breakers"
     transform="translate(-407.46669,-705.70667)">
    <path
       id="path1"
       d="m 3708,4169 h 499 l -499,1109 z m 499,0 -499,1109 h 138 z"
       style="fill:#d6d6d6;fill-opacity:1;fill-rule:nonzero;stroke:#d6d6d6;stroke-width:1;stroke-linecap:butt;stroke-linejoin:miter;stroke-miterlimit:10;stroke-dasharray:none;stroke-opacity:1"
       transform="matrix(0.15961555,0,0,-0.1593156,19.60042,1547.0528)"
       clip-path="url(#clipPath2)" />
    <path
       id="path3"
       d="m 4207,4169 h 138 l -499,1109 z m 138,0 -499,1109 h 499 z"
       style="fill:#d6d6d6;fill-opacity:1;fill-rule:nonzero;stroke:#d6d6d6;stroke-width:1;stroke-linecap:butt;stroke-linejoin:miter;stroke-miterlimit:10;stroke-dasharray:none;stroke-opacity:1"
       transform="matrix(0.15961555,0,0,-0.1593156,19.60042,1547.0528)"
       clip-path="url(#clipPath4)" />
    <path
       id="path5"
       d="m 3070,4169 h 500 l -500,1109 z m 500,0 -500,1109 h 138 z"
       style="fill:#d6d6d6;fill-opacity:1;fill-rule:nonzero;stroke:#d6d6d6;stroke-width:1;stroke-linecap:butt;stroke-linejoin:miter;stroke-miterlimit:10;stroke-dasharray:none;stroke-opacity:1"
       transform="matrix(0.15961555,0,0,-0.1593156,19.60042,1547.0528)"
       clip-path="url(#clipPath6)" />
    <path
       id="path7"
       d="m 3570,4169 h 138 l -500,1109 z m 138,0 -500,1109 h 500 z"
       style="fill:#d6d6d6;fill-opacity:1;fill-rule:nonzero;stroke:#d6d6d6;stroke-width:1;stroke-linecap:butt;stroke-linejoin:miter;stroke-miterlimit:10;stroke-dasharray:none;stroke-opacity:1"
       transform="matrix(0.15961555,0,0,-0.1593156,19.60042,1547.0528)"
       clip-path="url(#clipPath8)" />
    <path
       id="path9"
       d="m 2433,4169 h 499 l -499,1109 z m 499,0 -499,1109 h 138 z"
       style="fill:#d6d6d6;fill-opacity:1;fill-rule:nonzero;stroke:#d6d6d6;stroke-width:1;stroke-linecap:butt;stroke-linejoin:miter;stroke-miterlimit:10;stroke-dasharray:none;stroke-opacity:1"
       transform="matrix(0.15961555,0,0,-0.1593156,19.60042,1547.0528)"
       clip-path="url(#clipPath10)" />
    <path
       id="path11"
       d="m 2932,4169 h 138 l -499,1109 z m 138,0 -499,1109 h 499 z"
       style="fill:#d6d6d6;fill-opacity:1;fill-rule:nonzero;stroke:#d6d6d6;stroke-width:1;stroke-linecap:butt;stroke-linejoin:miter;stroke-miterlimit:10;stroke-dasharray:none;stroke-opacity:1"
       transform="matrix(0.15961555,0,0,-0.1593156,19.60042,1547.0528)"
       clip-path="url(#clipPath12)" />
    <path
       id="path13"
       d="M 407.94506,882.8661 V 706.18509"
       style="fill:none;stroke:#000000;stroke-width:0.956793;stroke-linecap:round;stroke-linejoin:round;stroke-miterlimit:10;stroke-dasharray:none;stroke-opacity:1" />
    <path
       id="path14"
       d="M 509.62017,706.18509 V 882.8661 706.18509"
       style="fill:none;stroke:#000000;stroke-width:0.956793;stroke-linecap:round;stroke-linejoin:round;stroke-miterlimit:10;stroke-dasharray:none;stroke-opacity:1" />
    <path
       id="path15"
       d="M 611.45489,706.18509 V 882.8661 706.18509"
       style="fill:none;stroke:#000000;stroke-width:0.956793;stroke-linecap:round;stroke-linejoin:round;stroke-miterlimit:10;stroke-dasharray:none;stroke-opacity:1" />
    <path
       id="path16"
       d="M 713.13001,706.18509 V 882.8661"
       style="fill:none;stroke:#000000;stroke-width:0.956793;stroke-linecap:round;stroke-linejoin:round;stroke-miterlimit:10;stroke-dasharray:none;stroke-opacity:1" />
    <path
       id="path17"
       d="M 407.94506,709.84936 H 713.13001"
       style="fill:none;stroke:#000000;stroke-width:0.956793;stroke-linecap:round;stroke-linejoin:round;stroke-miterlimit:10;stroke-dasharray:none;stroke-opacity:1" />
    <path
       id="path18"
       d="M 407.94506,800.1813 H 713.13001"
       style="fill:none;stroke:#000000;stroke-width:0.956793;stroke-linecap:round;stroke-linejoin:round;stroke-miterlimit:10;stroke-dasharray:none;stroke-opacity:1" />
    <path
       id="path19"
       d="M 407.94506,879.20183 H 713.13001"
       style="fill:none;stroke:#000000;stroke-width:0.956793;stroke-linecap:round;stroke-linejoin:round;stroke-miterlimit:10;stroke-dasharray:none;stroke-opacity:1" />
    <path
       id="path20"
       d="m 4200,4664 h -346 l 346,-212 z m -346,0 346,-212 h -346 z"
       style="fill:#333333;fill-opacity:1;fill-rule:nonzero;stroke:#333333;stroke-width:1;stroke-linecap:round;stroke-linejoin:miter;stroke-miterlimit:10;stroke-dasharray:none;stroke-opacity:1"
       transform="matrix(0.15961555,0,0,-0.1593156,19.60042,1547.0528)"
       clip-path="url(#clipPath21)" />
    <path
       id="path22"
       d="m 3562,4664 h -346 l 346,-212 z m -346,0 346,-212 h -346 z"
       style="fill:#333333;fill-opacity:1;fill-rule:nonzero;stroke:#333333;stroke-width:1;stroke-linecap:round;stroke-linejoin:miter;stroke-miterlimit:10;stroke-dasharray:none;stroke-opacity:1"
       transform="matrix(0.15961555,0,0,-0.1593156,19.60042,1547.0528)"
       clip-path="url(#clipPath23)" />
    <path
       id="path24"
       d="m 2924,4664 h -346 l 346,-212 z m -346,0 346,-212 h -346 z"
       style="fill:#333333;fill-opacity:1;fill-rule:nonzero;stroke:#333333;stroke-width:1;stroke-linecap:round;stroke-linejoin:miter;stroke-miterlimit:10;stroke-dasharray:none;stroke-opacity:1"
       transform="matrix(0.15961555,0,0,-0.1593156,19.60042,1547.0528)"
       clip-path="url(#clipPath25)" />
    <path
       id="path26"
       d="M 4345,4452 H 2433 l 1912,-50 z m -1912,0 1912,-50 H 2433 Z"
       style="fill:#333333;fill-opacity:1;fill-rule:nonzero;stroke:#333333;stroke-width:1;stroke-linecap:round;stroke-linejoin:miter;stroke-miterlimit:10;stroke-dasharray:none;stroke-opacity:1"
       transform="matrix(0.15961555,0,0,-0.1593156,19.60042,1547.0528)"
       clip-path="url(#clipPath27)" />
    <path
       id="path28"
       d="M 4345,4341 H 2433 l 1912,-54 z m -1912,0 1912,-54 H 2433 Z"
       style="fill:#333333;fill-opacity:1;fill-rule:nonzero;stroke:#333333;stroke-width:1;stroke-linecap:round;stroke-linejoin:miter;stroke-miterlimit:10;stroke-dasharray:none;stroke-opacity:1"
       transform="matrix(0.15961555,0,0,-0.1593156,19.60042,1547.0528)"
       clip-path="url(#clipPath29)" />
    <path
       id="path30"
       d="M 713.13001,864.06685 V 837.77978 H 407.94506 v 26.28707 h 305.18495"
       style="fill:none;stroke:#000000;stroke-width:0.956793;stroke-linecap:round;stroke-linejoin:round;stroke-miterlimit:10;stroke-dasharray:none;stroke-opacity:1" />
    <path
       id="path31"
       d="M 4345,4402 H 2433 l 1912,-61 z m -1912,0 1912,-61 H 2433 Z"
       style="fill:#adadad;fill-opacity:1;fill-rule:nonzero;stroke:#adadad;stroke-width:1;stroke-linecap:round;stroke-linejoin:miter;stroke-miterlimit:10;stroke-dasharray:none;stroke-opacity:1"
       transform="matrix(0.15961555,0,0,-0.1593156,19.60042,1547.0528)"
       clip-path="url(#clipPath32)" />
    <path
       id="path33"
       d="m 407.94506,845.74555 h 305.18495 v 9.71826 H 407.94506 v -9.71826"
       style="fill:none;stroke:#000000;stroke-width:0.956793;stroke-linecap:round;stroke-linejoin:round;stroke-miterlimit:10;stroke-dasharray:none;stroke-opacity:1" />
    <path
       id="path34"
       d="m 431.08932,804.00487 h 55.22698 v 33.77491 h -55.22698 v -33.77491"
       style="fill:none;stroke:#000000;stroke-width:0.956793;stroke-linecap:round;stroke-linejoin:round;stroke-miterlimit:10;stroke-dasharray:none;stroke-opacity:1" />
    <path
       id="path35"
       d="m 532.92404,804.00487 h 55.22699 v 33.77491 h -55.22699 v -33.77491"
       style="fill:none;stroke:#000000;stroke-width:0.956793;stroke-linecap:round;stroke-linejoin:round;stroke-miterlimit:10;stroke-dasharray:none;stroke-opacity:1" />
    <path
       id="path36"
       d="m 634.75877,804.00487 h 55.22698 v 33.77491 h -55.22698 v -33.77491"
       style="fill:none;stroke:#000000;stroke-width:0.956793;stroke-linecap:round;stroke-linejoin:round;stroke-miterlimit:10;stroke-dasharray:none;stroke-opacity:1" />
    <path
       id="path37"
       d="m 4310,5219 h -567 l 567,-35 z m -567,0 567,-35 h -567 z"
       style="fill:#007f1f;fill-opacity:1;fill-rule:nonzero;stroke:#007f1f;stroke-width:1;stroke-linecap:round;stroke-linejoin:miter;stroke-miterlimit:10;stroke-dasharray:none;stroke-opacity:1"
       transform="matrix(0.15961555,0,0,-0.1593156,19.60042,1547.0528)"
       clip-path="url(#clipPath38)" />
    <path
       id="path39"
       d="m 3672,5219 h -566 l 566,-35 z m -566,0 566,-35 h -566 z"
       style="fill:#007f1f;fill-opacity:1;fill-rule:nonzero;stroke:#007f1f;stroke-width:1;stroke-linecap:round;stroke-linejoin:miter;stroke-miterlimit:10;stroke-dasharray:none;stroke-opacity:1"
       transform="matrix(0.15961555,0,0,-0.1593156,19.60042,1547.0528)"
       clip-path="url(#clipPath40)" />
    <path
       id="path41"
       d="m 3035,5219 h -567 l 567,-35 z m -567,0 567,-35 h -567 z"
       style="fill:#007f1f;fill-opacity:1;fill-rule:nonzero;stroke:#007f1f;stroke-width:1;stroke-linecap:round;stroke-linejoin:miter;stroke-miterlimit:10;stroke-dasharray:none;stroke-opacity:1"
       transform="matrix(0.15961555,0,0,-0.1593156,19.60042,1547.0528)"
       clip-path="url(#clipPath42)" />
    <path
       id="path43"
       d="m 4200,4688 h -346 l 346,-24 z m -346,0 346,-24 h -346 z"
       style="fill:#007f1f;fill-opacity:1;fill-rule:nonzero;stroke:#007f1f;stroke-width:1;stroke-linecap:round;stroke-linejoin:miter;stroke-miterlimit:10;stroke-dasharray:none;stroke-opacity:1"
       transform="matrix(0.15961555,0,0,-0.1593156,19.60042,1547.0528)"
       clip-path="url(#clipPath44)" />
    <path
       id="path45"
       d="m 3562,4688 h -346 l 346,-24 z m -346,0 346,-24 h -346 z"
       style="fill:#007f1f;fill-opacity:1;fill-rule:nonzero;stroke:#007f1f;stroke-width:1;stroke-linecap:round;stroke-linejoin:miter;stroke-miterlimit:10;stroke-dasharray:none;stroke-opacity:1"
       transform="matrix(0.15961555,0,0,-0.1593156,19.60042,1547.0528)"
       clip-path="url(#clipPath46)" />
    <path
       id="path47"
       d="m 2924,4688 h -346 l 346,-24 z m -346,0 346,-24 h -346 z"
       style="fill:#007f1f;fill-opacity:1;fill-rule:nonzero;stroke:#007f1f;stroke-width:1;stroke-linecap:round;stroke-linejoin:miter;stroke-miterlimit:10;stroke-dasharray:none;stroke-opacity:1"
       transform="matrix(0.15961555,0,0,-0.1593156,19.60042,1547.0528)"
       clip-path="url(#clipPath48)" />
    <path
       id="path49"
       d="m 413.53161,715.58471 h 90.50202 v 5.57605 h -90.50202 v -5.57605"
       style="fill:none;stroke:#000000;stroke-width:0.956793;stroke-linecap:round;stroke-linejoin:round;stroke-miterlimit:10;stroke-dasharray:none;stroke-opacity:1" />
    <path
       id="path50"
       d="m 431.08932,800.1813 h 55.22698 v 3.82357 h -55.22698 v -3.82357"
       style="fill:none;stroke:#000000;stroke-width:0.956793;stroke-linecap:round;stroke-linejoin:round;stroke-miterlimit:10;stroke-dasharray:none;stroke-opacity:1" />
    <path
       id="path51"
       d="m 515.36634,715.58471 h 90.34239 v 5.57605 h -90.34239 v -5.57605"
       style="fill:none;stroke:#000000;stroke-width:0.956793;stroke-linecap:round;stroke-linejoin:round;stroke-miterlimit:10;stroke-dasharray:none;stroke-opacity:1" />
    <path
       id="path52"
       d="m 532.92404,800.1813 h 55.22699 v 3.82357 h -55.22699 v -3.82357"
       style="fill:none;stroke:#000000;stroke-width:0.956793;stroke-linecap:round;stroke-linejoin:round;stroke-miterlimit:10;stroke-dasharray:none;stroke-opacity:1" />
    <path
       id="path53"
       d="m 617.04144,715.58471 h 90.50202 v 5.57605 h -90.50202 v -5.57605"
       style="fill:none;stroke:#000000;stroke-width:0.956793;stroke-linecap:round;stroke-linejoin:round;stroke-miterlimit:10;stroke-dasharray:none;stroke-opacity:1" />
    <path
       id="path54"
       d="m 634.75877,800.1813 h 55.22698 v 3.82357 h -55.22698 v -3.82357"
       style="fill:none;stroke:#000000;stroke-width:0.956793;stroke-linecap:round;stroke-linejoin:round;stroke-miterlimit:10;stroke-dasharray:none;stroke-opacity:1" />
  </g>
  <g
     id="layer-oc4"
     inkscape:groupmode="layer"
     inkscape:label="0"
     transform="translate(-407.46669,-705.70667)">
    <path
       id="path55"
       d="M 713.13001,706.18509 H 407.94506"
       style="fill:none;stroke:#ffffff;stroke-width:0.159466;stroke-linecap:round;stroke-linejoin:round;stroke-miterlimit:10;stroke-dasharray:none;stroke-opacity:1" />
    <path
       id="path56"
       d="M 713.13001,706.18509 H 407.94506"
       style="fill:none;stroke:#000000;stroke-width:0.956793;stroke-linecap:round;stroke-linejoin:round;stroke-miterlimit:10;stroke-dasharray:none;stroke-opacity:1" />
    <path
       id="path57"
       d="M 713.13001,882.8661 H 407.94506"
       style="fill:none;stroke:#ffffff;stroke-width:0.159466;stroke-linecap:round;stroke-linejoin:round;stroke-miterlimit:10;stroke-dasharray:none;stroke-opacity:1" />
    <path
       id="path58"
       d="M 713.13001,882.8661 H 407.94506"
       style="fill:none;stroke:#000000;stroke-width:0.956793;stroke-linecap:round;stroke-linejoin:round;stroke-miterlimit:10;stroke-dasharray:none;stroke-opacity:1" />
  </g>
</svg>
