<?xml version="1.0" encoding="UTF-8" standalone="no"?>
<!-- Created with Inkscape (http://www.inkscape.org/) -->

<svg
   version="1.1"
   id="svg1"
   width="204.09448"
   height="177.63782"
   viewBox="0 0 204.09447 177.63782"
   sodipodi:docname="Schneider 63-125A 2P MCB.pdf"
   xmlns:inkscape="http://www.inkscape.org/namespaces/inkscape"
   xmlns:sodipodi="http://sodipodi.sourceforge.net/DTD/sodipodi-0.dtd"
   xmlns="http://www.w3.org/2000/svg"
   xmlns:svg="http://www.w3.org/2000/svg">
  <defs
     id="defs1">
    <clipPath
       clipPathUnits="userSpaceOnUse"
       id="clipPath2">
      <path
         d="M 2752,4169 H 4027 V 5279 H 2752 V 4169"
         transform="translate(-2.0833333e-6,2.0833333e-4)"
         id="path2" />
    </clipPath>
    <clipPath
       clipPathUnits="userSpaceOnUse"
       id="clipPath4">
      <path
         d="M 2752,4169 H 4027 V 5279 H 2752 V 4169"
         transform="translate(-2.0833333e-6,2.0833333e-4)"
         id="path4" />
    </clipPath>
    <clipPath
       clipPathUnits="userSpaceOnUse"
       id="clipPath6">
      <path
         d="M 2752,4169 H 4027 V 5279 H 2752 V 4169"
         transform="translate(-2.0833333e-6,2.0833333e-4)"
         id="path6" />
    </clipPath>
    <clipPath
       clipPathUnits="userSpaceOnUse"
       id="clipPath8">
      <path
         d="M 2752,4169 H 4027 V 5279 H 2752 V 4169"
         transform="translate(-2.0833333e-6,2.0833333e-4)"
         id="path8" />
    </clipPath>
    <clipPath
       clipPathUnits="userSpaceOnUse"
       id="clipPath13">
      <path
         d="M 2752,4169 H 4027 V 5279 H 2752 V 4169"
         transform="translate(-2.0833333e-6,2.0833333e-4)"
         id="path13" />
    </clipPath>
    <clipPath
       clipPathUnits="userSpaceOnUse"
       id="clipPath15">
      <path
         d="M 2752,4169 H 4027 V 5279 H 2752 V 4169"
         transform="translate(-2.0833333e-6,2.0833333e-4)"
         id="path15" />
    </clipPath>
    <clipPath
       clipPathUnits="userSpaceOnUse"
       id="clipPath20">
      <path
         d="M 2752,4169 H 4027 V 5279 H 2752 V 4169"
         transform="translate(-2.0833333e-6,2.0833333e-4)"
         id="path20" />
    </clipPath>
    <clipPath
       clipPathUnits="userSpaceOnUse"
       id="clipPath22">
      <path
         d="M 2752,4169 H 4027 V 5279 H 2752 V 4169"
         transform="translate(-2.0833333e-6,2.0833333e-4)"
         id="path22" />
    </clipPath>
    <clipPath
       clipPathUnits="userSpaceOnUse"
       id="clipPath24">
      <path
         d="M 2752,4169 H 4027 V 5279 H 2752 V 4169"
         transform="translate(-2.0833333e-6,2.0833333e-4)"
         id="path24" />
    </clipPath>
    <clipPath
       clipPathUnits="userSpaceOnUse"
       id="clipPath26">
      <path
         d="M 2752,4169 H 4027 V 5279 H 2752 V 4169"
         transform="translate(-2.0833333e-6,2.0833333e-4)"
         id="path26" />
    </clipPath>
    <clipPath
       clipPathUnits="userSpaceOnUse"
       id="clipPath28">
      <path
         d="M 2752,4169 H 4027 V 5279 H 2752 V 4169"
         transform="translate(-2.0833333e-6,2.0833333e-4)"
         id="path28" />
    </clipPath>
    <clipPath
       clipPathUnits="userSpaceOnUse"
       id="clipPath30">
      <path
         d="M 2752,4169 H 4027 V 5279 H 2752 V 4169"
         transform="translate(-2.0833333e-6,2.0833333e-4)"
         id="path30" />
    </clipPath>
    <clipPath
       clipPathUnits="userSpaceOnUse"
       id="clipPath32">
      <path
         d="M 2752,4169 H 4027 V 5279 H 2752 V 4169"
         transform="translate(-2.0833333e-6,2.0833333e-4)"
         id="path32" />
    </clipPath>
    <clipPath
       clipPathUnits="userSpaceOnUse"
       id="clipPath34">
      <path
         d="M 2752,4169 H 4027 V 5279 H 2752 V 4169"
         transform="translate(-2.0833333e-6,2.0833333e-4)"
         id="path34" />
    </clipPath>
    <clipPath
       clipPathUnits="userSpaceOnUse"
       id="clipPath36">
      <path
         d="M 2752,4169 H 4027 V 5279 H 2752 V 4169"
         transform="translate(-2.0833333e-6,2.0833333e-4)"
         id="path36" />
    </clipPath>
    <clipPath
       clipPathUnits="userSpaceOnUse"
       id="clipPath38">
      <path
         d="M 2752,4169 H 4027 V 5279 H 2752 V 4169"
         transform="translate(-2.0833333e-6,2.0833333e-4)"
         id="path38" />
    </clipPath>
  </defs>
  <sodipodi:namedview
     id="namedview1"
     pagecolor="#505050"
     bordercolor="#eeeeee"
     borderopacity="1"
     inkscape:showpageshadow="0"
     inkscape:pageopacity="0"
     inkscape:pagecheckerboard="0"
     inkscape:deskcolor="#505050" />
  <g
     id="layer-oc2"
     inkscape:groupmode="layer"
     inkscape:label="Breakers"
     transform="translate(-458.50664,-705.70667)">
    <path
       id="path1"
       d="m 3389,4169 h 499 l -499,1109 z m 499,0 -499,1109 h 138 z"
       style="fill:#d6d6d6;fill-opacity:1;fill-rule:nonzero;stroke:#d6d6d6;stroke-width:1;stroke-linecap:butt;stroke-linejoin:miter;stroke-miterlimit:10;stroke-dasharray:none;stroke-opacity:1"
       transform="matrix(0.15944913,0,0,-0.15931604,20.180806,1547.0549)"
       clip-path="url(#clipPath2)" />
    <path
       id="path3"
       d="m 3888,4169 h 138 l -499,1109 z m 138,0 -499,1109 h 499 z"
       style="fill:#d6d6d6;fill-opacity:1;fill-rule:nonzero;stroke:#d6d6d6;stroke-width:1;stroke-linecap:butt;stroke-linejoin:miter;stroke-miterlimit:10;stroke-dasharray:none;stroke-opacity:1"
       transform="matrix(0.15944913,0,0,-0.15931604,20.180806,1547.0549)"
       clip-path="url(#clipPath4)" />
    <path
       id="path5"
       d="m 2752,4169 h 499 l -499,1109 z m 499,0 -499,1109 h 138 z"
       style="fill:#d6d6d6;fill-opacity:1;fill-rule:nonzero;stroke:#d6d6d6;stroke-width:1;stroke-linecap:butt;stroke-linejoin:miter;stroke-miterlimit:10;stroke-dasharray:none;stroke-opacity:1"
       transform="matrix(0.15944913,0,0,-0.15931604,20.180806,1547.0549)"
       clip-path="url(#clipPath6)" />
    <path
       id="path7"
       d="m 3251,4169 h 138 l -499,1109 z m 138,0 -499,1109 h 499 z"
       style="fill:#d6d6d6;fill-opacity:1;fill-rule:nonzero;stroke:#d6d6d6;stroke-width:1;stroke-linecap:butt;stroke-linejoin:miter;stroke-miterlimit:10;stroke-dasharray:none;stroke-opacity:1"
       transform="matrix(0.15944913,0,0,-0.15931604,20.180806,1547.0549)"
       clip-path="url(#clipPath8)" />
    <path
       id="path9"
       d="M 458.98481,882.86634 V 706.18484"
       style="fill:none;stroke:#000000;stroke-width:0.956296;stroke-linecap:round;stroke-linejoin:round;stroke-miterlimit:10;stroke-dasharray:none;stroke-opacity:1" />
    <path
       id="path10"
       d="m 560.55391,706.18484 v 176.6815 -176.6815"
       style="fill:none;stroke:#000000;stroke-width:0.956296;stroke-linecap:round;stroke-linejoin:round;stroke-miterlimit:10;stroke-dasharray:none;stroke-opacity:1" />
    <path
       id="path11"
       d="m 662.12301,706.18484 v 176.6815"
       style="fill:none;stroke:#000000;stroke-width:0.956296;stroke-linecap:round;stroke-linejoin:round;stroke-miterlimit:10;stroke-dasharray:none;stroke-opacity:1" />
    <path
       id="path12"
       d="m 3991,5219 h -567 l 567,-35 z m -567,0 567,-35 h -567 z"
       style="fill:#007f1f;fill-opacity:1;fill-rule:nonzero;stroke:#007f1f;stroke-width:1;stroke-linecap:round;stroke-linejoin:miter;stroke-miterlimit:10;stroke-dasharray:none;stroke-opacity:1"
       transform="matrix(0.15944913,0,0,-0.15931604,20.180806,1547.0549)"
       clip-path="url(#clipPath13)" />
    <path
       id="path14"
       d="m 3354,5219 h -567 l 567,-35 z m -567,0 567,-35 h -567 z"
       style="fill:#007f1f;fill-opacity:1;fill-rule:nonzero;stroke:#007f1f;stroke-width:1;stroke-linecap:round;stroke-linejoin:miter;stroke-miterlimit:10;stroke-dasharray:none;stroke-opacity:1"
       transform="matrix(0.15944913,0,0,-0.15931604,20.180806,1547.0549)"
       clip-path="url(#clipPath15)" />
    <path
       id="path16"
       d="m 458.98481,709.84912 h 203.1382"
       style="fill:none;stroke:#000000;stroke-width:0.956296;stroke-linecap:round;stroke-linejoin:round;stroke-miterlimit:10;stroke-dasharray:none;stroke-opacity:1" />
    <path
       id="path17"
       d="m 464.56553,715.58449 h 90.40766 v 5.57606 h -90.40766 v -5.57606"
       style="fill:none;stroke:#000000;stroke-width:0.956296;stroke-linecap:round;stroke-linejoin:round;stroke-miterlimit:10;stroke-dasharray:none;stroke-opacity:1" />
    <path
       id="path18"
       d="m 566.13463,715.58449 h 90.40766 v 5.57606 h -90.40766 v -5.57606"
       style="fill:none;stroke:#000000;stroke-width:0.956296;stroke-linecap:round;stroke-linejoin:round;stroke-miterlimit:10;stroke-dasharray:none;stroke-opacity:1" />
    <path
       id="path19"
       d="m 4026,4402 h -637 l 637,-61 z m -637,0 637,-61 h -637 z"
       style="fill:#adadad;fill-opacity:1;fill-rule:nonzero;stroke:#adadad;stroke-width:1;stroke-linecap:round;stroke-linejoin:miter;stroke-miterlimit:10;stroke-dasharray:none;stroke-opacity:1"
       transform="matrix(0.15944913,0,0,-0.15931604,20.180806,1547.0549)"
       clip-path="url(#clipPath20)" />
    <path
       id="path21"
       d="m 3389,4402 h -637 l 637,-61 z m -637,0 637,-61 h -637 z"
       style="fill:#adadad;fill-opacity:1;fill-rule:nonzero;stroke:#adadad;stroke-width:1;stroke-linecap:round;stroke-linejoin:miter;stroke-miterlimit:10;stroke-dasharray:none;stroke-opacity:1"
       transform="matrix(0.15944913,0,0,-0.15931604,20.180806,1547.0549)"
       clip-path="url(#clipPath22)" />
    <path
       id="path23"
       d="m 3881,4664 h -346 l 346,-212 z m -346,0 346,-212 h -346 z"
       style="fill:#333333;fill-opacity:1;fill-rule:nonzero;stroke:#333333;stroke-width:1;stroke-linecap:round;stroke-linejoin:miter;stroke-miterlimit:10;stroke-dasharray:none;stroke-opacity:1"
       transform="matrix(0.15944913,0,0,-0.15931604,20.180806,1547.0549)"
       clip-path="url(#clipPath24)" />
    <path
       id="path25"
       d="m 3243,4664 h -346 l 346,-212 z m -346,0 346,-212 h -346 z"
       style="fill:#333333;fill-opacity:1;fill-rule:nonzero;stroke:#333333;stroke-width:1;stroke-linecap:round;stroke-linejoin:miter;stroke-miterlimit:10;stroke-dasharray:none;stroke-opacity:1"
       transform="matrix(0.15944913,0,0,-0.15931604,20.180806,1547.0549)"
       clip-path="url(#clipPath26)" />
    <path
       id="path27"
       d="m 4026,4452 h -637 l 637,-50 z m -637,0 637,-50 h -637 z"
       style="fill:#333333;fill-opacity:1;fill-rule:nonzero;stroke:#333333;stroke-width:1;stroke-linecap:round;stroke-linejoin:miter;stroke-miterlimit:10;stroke-dasharray:none;stroke-opacity:1"
       transform="matrix(0.15944913,0,0,-0.15931604,20.180806,1547.0549)"
       clip-path="url(#clipPath28)" />
    <path
       id="path29"
       d="m 3389,4452 h -637 l 637,-50 z m -637,0 637,-50 h -637 z"
       style="fill:#333333;fill-opacity:1;fill-rule:nonzero;stroke:#333333;stroke-width:1;stroke-linecap:round;stroke-linejoin:miter;stroke-miterlimit:10;stroke-dasharray:none;stroke-opacity:1"
       transform="matrix(0.15944913,0,0,-0.15931604,20.180806,1547.0549)"
       clip-path="url(#clipPath30)" />
    <path
       id="path31"
       d="m 4026,4341 h -637 l 637,-54 z m -637,0 637,-54 h -637 z"
       style="fill:#333333;fill-opacity:1;fill-rule:nonzero;stroke:#333333;stroke-width:1;stroke-linecap:round;stroke-linejoin:miter;stroke-miterlimit:10;stroke-dasharray:none;stroke-opacity:1"
       transform="matrix(0.15944913,0,0,-0.15931604,20.180806,1547.0549)"
       clip-path="url(#clipPath32)" />
    <path
       id="path33"
       d="m 3389,4341 h -637 l 637,-54 z m -637,0 637,-54 h -637 z"
       style="fill:#333333;fill-opacity:1;fill-rule:nonzero;stroke:#333333;stroke-width:1;stroke-linecap:round;stroke-linejoin:miter;stroke-miterlimit:10;stroke-dasharray:none;stroke-opacity:1"
       transform="matrix(0.15944913,0,0,-0.15931604,20.180806,1547.0549)"
       clip-path="url(#clipPath34)" />
    <path
       id="path35"
       d="m 3881,4688 h -346 l 346,-24 z m -346,0 346,-24 h -346 z"
       style="fill:#007f1f;fill-opacity:1;fill-rule:nonzero;stroke:#007f1f;stroke-width:1;stroke-linecap:round;stroke-linejoin:miter;stroke-miterlimit:10;stroke-dasharray:none;stroke-opacity:1"
       transform="matrix(0.15944913,0,0,-0.15931604,20.180806,1547.0549)"
       clip-path="url(#clipPath36)" />
    <path
       id="path37"
       d="m 3243,4688 h -346 l 346,-24 z m -346,0 346,-24 h -346 z"
       style="fill:#007f1f;fill-opacity:1;fill-rule:nonzero;stroke:#007f1f;stroke-width:1;stroke-linecap:round;stroke-linejoin:miter;stroke-miterlimit:10;stroke-dasharray:none;stroke-opacity:1"
       transform="matrix(0.15944913,0,0,-0.15931604,20.180806,1547.0549)"
       clip-path="url(#clipPath38)" />
    <path
       id="path39"
       d="m 458.98481,800.18131 h 203.1382"
       style="fill:none;stroke:#000000;stroke-width:0.956296;stroke-linecap:round;stroke-linejoin:round;stroke-miterlimit:10;stroke-dasharray:none;stroke-opacity:1" />
    <path
       id="path40"
       d="m 458.98481,879.20207 h 203.1382"
       style="fill:none;stroke:#000000;stroke-width:0.956296;stroke-linecap:round;stroke-linejoin:round;stroke-miterlimit:10;stroke-dasharray:none;stroke-opacity:1" />
    <path
       id="path41"
       d="m 482.10494,804.0049 h 55.1694 v 33.77501 h -55.1694 V 804.0049"
       style="fill:none;stroke:#000000;stroke-width:0.956296;stroke-linecap:round;stroke-linejoin:round;stroke-miterlimit:10;stroke-dasharray:none;stroke-opacity:1" />
    <path
       id="path42"
       d="m 482.10494,800.18131 h 55.1694 v 3.82359 h -55.1694 v -3.82359"
       style="fill:none;stroke:#000000;stroke-width:0.956296;stroke-linecap:round;stroke-linejoin:round;stroke-miterlimit:10;stroke-dasharray:none;stroke-opacity:1" />
    <path
       id="path43"
       d="m 662.12301,864.06705 v -26.28714 h -203.1382 v 26.28714 h 203.1382"
       style="fill:none;stroke:#000000;stroke-width:0.956296;stroke-linecap:round;stroke-linejoin:round;stroke-miterlimit:10;stroke-dasharray:none;stroke-opacity:1" />
    <path
       id="path44"
       d="m 458.98481,845.7457 h 203.1382 v 9.71828 h -203.1382 v -9.71828"
       style="fill:none;stroke:#000000;stroke-width:0.956296;stroke-linecap:round;stroke-linejoin:round;stroke-miterlimit:10;stroke-dasharray:none;stroke-opacity:1" />
    <path
       id="path45"
       d="m 583.83348,800.18131 h 55.1694 v 3.82359 h -55.1694 v -3.82359"
       style="fill:none;stroke:#000000;stroke-width:0.956296;stroke-linecap:round;stroke-linejoin:round;stroke-miterlimit:10;stroke-dasharray:none;stroke-opacity:1" />
    <path
       id="path46"
       d="m 583.83348,804.0049 h 55.1694 v 33.77501 h -55.1694 V 804.0049"
       style="fill:none;stroke:#000000;stroke-width:0.956296;stroke-linecap:round;stroke-linejoin:round;stroke-miterlimit:10;stroke-dasharray:none;stroke-opacity:1" />
  </g>
  <g
     id="layer-oc4"
     inkscape:groupmode="layer"
     inkscape:label="0"
     transform="translate(-458.50664,-705.70667)">
    <path
       id="path47"
       d="M 662.12301,706.18484 H 458.98481"
       style="fill:none;stroke:#ffffff;stroke-width:0.159382;stroke-linecap:round;stroke-linejoin:round;stroke-miterlimit:10;stroke-dasharray:none;stroke-opacity:1" />
    <path
       id="path48"
       d="M 662.12301,706.18484 H 458.98481"
       style="fill:none;stroke:#000000;stroke-width:0.956296;stroke-linecap:round;stroke-linejoin:round;stroke-miterlimit:10;stroke-dasharray:none;stroke-opacity:1" />
    <path
       id="path49"
       d="M 662.12301,882.86634 H 458.98481"
       style="fill:none;stroke:#ffffff;stroke-width:0.159382;stroke-linecap:round;stroke-linejoin:round;stroke-miterlimit:10;stroke-dasharray:none;stroke-opacity:1" />
    <path
       id="path50"
       d="M 662.12301,882.86634 H 458.98481"
       style="fill:none;stroke:#000000;stroke-width:0.956296;stroke-linecap:round;stroke-linejoin:round;stroke-miterlimit:10;stroke-dasharray:none;stroke-opacity:1" />
  </g>
</svg>
