<?xml version="1.0" encoding="UTF-8" standalone="no"?>
<!-- Created with Inkscape (http://www.inkscape.org/) -->

<svg
   version="1.1"
   id="svg1"
   width="204.09448"
   height="177.63782"
   viewBox="0 0 204.09447 177.63782"
   sodipodi:docname="Schneider 2-63A 3P MCB.pdf"
   xmlns:inkscape="http://www.inkscape.org/namespaces/inkscape"
   xmlns:sodipodi="http://sodipodi.sourceforge.net/DTD/sodipodi-0.dtd"
   xmlns="http://www.w3.org/2000/svg"
   xmlns:svg="http://www.w3.org/2000/svg">
  <defs
     id="defs1">
    <clipPath
       clipPathUnits="userSpaceOnUse"
       id="clipPath2">
      <path
         d="M 2752,4169 H 4027 V 5279 H 2752 V 4169"
         transform="translate(-2.0833333e-6,2.0833333e-4)"
         id="path2" />
    </clipPath>
    <clipPath
       clipPathUnits="userSpaceOnUse"
       id="clipPath4">
      <path
         d="M 2752,4169 H 4027 V 5279 H 2752 V 4169"
         transform="translate(-2.0833333e-6,2.0833333e-4)"
         id="path4" />
    </clipPath>
    <clipPath
       clipPathUnits="userSpaceOnUse"
       id="clipPath6">
      <path
         d="M 2752,4169 H 4027 V 5279 H 2752 V 4169"
         transform="translate(-2.0833333e-6,2.0833333e-4)"
         id="path6" />
    </clipPath>
    <clipPath
       clipPathUnits="userSpaceOnUse"
       id="clipPath8">
      <path
         d="M 2752,4169 H 4027 V 5279 H 2752 V 4169"
         transform="translate(-2.0833333e-6,2.0833333e-4)"
         id="path8" />
    </clipPath>
    <clipPath
       clipPathUnits="userSpaceOnUse"
       id="clipPath10">
      <path
         d="M 2752,4169 H 4027 V 5279 H 2752 V 4169"
         transform="translate(-2.0833333e-6,2.0833333e-4)"
         id="path10" />
    </clipPath>
    <clipPath
       clipPathUnits="userSpaceOnUse"
       id="clipPath12">
      <path
         d="M 2752,4169 H 4027 V 5279 H 2752 V 4169"
         transform="translate(-2.0833333e-6,2.0833333e-4)"
         id="path12" />
    </clipPath>
    <clipPath
       clipPathUnits="userSpaceOnUse"
       id="clipPath23">
      <path
         d="M 2752,4169 H 4027 V 5279 H 2752 V 4169"
         transform="translate(-2.0833333e-6,2.0833333e-4)"
         id="path23" />
    </clipPath>
    <clipPath
       clipPathUnits="userSpaceOnUse"
       id="clipPath26">
      <path
         d="M 2752,4169 H 4027 V 5279 H 2752 V 4169"
         transform="translate(-2.0833333e-6,2.0833333e-4)"
         id="path26" />
    </clipPath>
    <clipPath
       clipPathUnits="userSpaceOnUse"
       id="clipPath29">
      <path
         d="M 2752,4169 H 4027 V 5279 H 2752 V 4169"
         transform="translate(-2.0833333e-6,2.0833333e-4)"
         id="path29" />
    </clipPath>
    <clipPath
       clipPathUnits="userSpaceOnUse"
       id="clipPath31">
      <path
         d="M 2752,4169 H 4027 V 5279 H 2752 V 4169"
         transform="translate(-2.0833333e-6,2.0833333e-4)"
         id="path31" />
    </clipPath>
    <clipPath
       clipPathUnits="userSpaceOnUse"
       id="clipPath33">
      <path
         d="M 2752,4169 H 4027 V 5279 H 2752 V 4169"
         transform="translate(-2.0833333e-6,2.0833333e-4)"
         id="path33" />
    </clipPath>
    <clipPath
       clipPathUnits="userSpaceOnUse"
       id="clipPath35">
      <path
         d="M 2752,4169 H 4027 V 5279 H 2752 V 4169"
         transform="translate(-2.0833333e-6,2.0833333e-4)"
         id="path35" />
    </clipPath>
    <clipPath
       clipPathUnits="userSpaceOnUse"
       id="clipPath37">
      <path
         d="M 2752,4169 H 4027 V 5279 H 2752 V 4169"
         transform="translate(-2.0833333e-6,2.0833333e-4)"
         id="path37" />
    </clipPath>
    <clipPath
       clipPathUnits="userSpaceOnUse"
       id="clipPath39">
      <path
         d="M 2752,4169 H 4027 V 5279 H 2752 V 4169"
         transform="translate(-2.0833333e-6,2.0833333e-4)"
         id="path39" />
    </clipPath>
    <clipPath
       clipPathUnits="userSpaceOnUse"
       id="clipPath41">
      <path
         d="M 2752,4169 H 4027 V 5279 H 2752 V 4169"
         transform="translate(-2.0833333e-6,2.0833333e-4)"
         id="path41" />
    </clipPath>
    <clipPath
       clipPathUnits="userSpaceOnUse"
       id="clipPath44">
      <path
         d="M 2752,4169 H 4027 V 5279 H 2752 V 4169"
         transform="translate(-2.0833333e-6,2.0833333e-4)"
         id="path44" />
    </clipPath>
    <clipPath
       clipPathUnits="userSpaceOnUse"
       id="clipPath48">
      <path
         d="M 2752,4169 H 4027 V 5279 H 2752 V 4169"
         transform="translate(-2.0833333e-6,2.0833333e-4)"
         id="path48" />
    </clipPath>
    <clipPath
       clipPathUnits="userSpaceOnUse"
       id="clipPath51">
      <path
         d="M 2752,4169 H 4027 V 5279 H 2752 V 4169"
         transform="translate(-2.0833333e-6,2.0833333e-4)"
         id="path51" />
    </clipPath>
    <clipPath
       clipPathUnits="userSpaceOnUse"
       id="clipPath55">
      <path
         d="M 2752,4169 H 4027 V 5279 H 2752 V 4169"
         transform="translate(-2.0833333e-6,2.0833333e-4)"
         id="path55" />
    </clipPath>
    <clipPath
       clipPathUnits="userSpaceOnUse"
       id="clipPath59">
      <path
         d="M 2752,4169 H 4027 V 5279 H 2752 V 4169"
         transform="translate(-2.0833333e-6,2.0833333e-4)"
         id="path59" />
    </clipPath>
  </defs>
  <sodipodi:namedview
     id="namedview1"
     pagecolor="#505050"
     bordercolor="#eeeeee"
     borderopacity="1"
     inkscape:showpageshadow="0"
     inkscape:pageopacity="0"
     inkscape:pagecheckerboard="0"
     inkscape:deskcolor="#505050" />
  <g
     id="layer-oc2"
     inkscape:groupmode="layer"
     inkscape:label="Breakers"
     transform="translate(-458.50664,-705.70667)">
    <path
       id="path1"
       d="m 3601,4169 h 333 l -333,1109 z m 333,0 -333,1109 h 93 z"
       style="fill:#d6d6d6;fill-opacity:1;fill-rule:nonzero;stroke:#d6d6d6;stroke-width:1;stroke-linecap:butt;stroke-linejoin:miter;stroke-miterlimit:10;stroke-dasharray:none;stroke-opacity:1"
       transform="matrix(0.15944913,0,0,-0.15931604,20.180806,1547.0549)"
       clip-path="url(#clipPath2)" />
    <path
       id="path3"
       d="m 3934,4169 h 92 l -332,1109 z m 92,0 -332,1109 h 332 z"
       style="fill:#d6d6d6;fill-opacity:1;fill-rule:nonzero;stroke:#d6d6d6;stroke-width:1;stroke-linecap:butt;stroke-linejoin:miter;stroke-miterlimit:10;stroke-dasharray:none;stroke-opacity:1"
       transform="matrix(0.15944913,0,0,-0.15931604,20.180806,1547.0549)"
       clip-path="url(#clipPath4)" />
    <path
       id="path5"
       d="m 3177,4169 h 332 l -332,1109 z m 332,0 -332,1109 h 92 z"
       style="fill:#d6d6d6;fill-opacity:1;fill-rule:nonzero;stroke:#d6d6d6;stroke-width:1;stroke-linecap:butt;stroke-linejoin:miter;stroke-miterlimit:10;stroke-dasharray:none;stroke-opacity:1"
       transform="matrix(0.15944913,0,0,-0.15931604,20.180806,1547.0549)"
       clip-path="url(#clipPath6)" />
    <path
       id="path7"
       d="m 3509,4169 h 92 l -332,1109 z m 92,0 -332,1109 h 332 z"
       style="fill:#d6d6d6;fill-opacity:1;fill-rule:nonzero;stroke:#d6d6d6;stroke-width:1;stroke-linecap:butt;stroke-linejoin:miter;stroke-miterlimit:10;stroke-dasharray:none;stroke-opacity:1"
       transform="matrix(0.15944913,0,0,-0.15931604,20.180806,1547.0549)"
       clip-path="url(#clipPath8)" />
    <path
       id="path9"
       d="m 2752,4169 h 332 l -332,1109 z m 332,0 -332,1109 h 92 z"
       style="fill:#d6d6d6;fill-opacity:1;fill-rule:nonzero;stroke:#d6d6d6;stroke-width:1;stroke-linecap:butt;stroke-linejoin:miter;stroke-miterlimit:10;stroke-dasharray:none;stroke-opacity:1"
       transform="matrix(0.15944913,0,0,-0.15931604,20.180806,1547.0549)"
       clip-path="url(#clipPath10)" />
    <path
       id="path11"
       d="m 3084,4169 h 93 l -333,1109 z m 93,0 -333,1109 h 333 z"
       style="fill:#d6d6d6;fill-opacity:1;fill-rule:nonzero;stroke:#d6d6d6;stroke-width:1;stroke-linecap:butt;stroke-linejoin:miter;stroke-miterlimit:10;stroke-dasharray:none;stroke-opacity:1"
       transform="matrix(0.15944913,0,0,-0.15931604,20.180806,1547.0549)"
       clip-path="url(#clipPath12)" />
    <path
       id="path13"
       d="m 526.7507,706.18484 v 176.6815"
       style="fill:none;stroke:#000000;stroke-width:0.956296;stroke-linecap:round;stroke-linejoin:round;stroke-miterlimit:10;stroke-dasharray:none;stroke-opacity:1" />
    <path
       id="path14"
       d="M 458.98481,882.86634 V 706.18484"
       style="fill:none;stroke:#000000;stroke-width:0.956296;stroke-linecap:round;stroke-linejoin:round;stroke-miterlimit:10;stroke-dasharray:none;stroke-opacity:1" />
    <path
       id="path15"
       d="m 594.35713,706.18484 v 176.6815"
       style="fill:none;stroke:#000000;stroke-width:0.956296;stroke-linecap:round;stroke-linejoin:round;stroke-miterlimit:10;stroke-dasharray:none;stroke-opacity:1" />
    <path
       id="path16"
       d="M 526.7507,882.86634 V 706.18484"
       style="fill:none;stroke:#000000;stroke-width:0.956296;stroke-linecap:round;stroke-linejoin:round;stroke-miterlimit:10;stroke-dasharray:none;stroke-opacity:1" />
    <path
       id="path17"
       d="m 662.12301,706.18484 v 176.6815"
       style="fill:none;stroke:#000000;stroke-width:0.956296;stroke-linecap:round;stroke-linejoin:round;stroke-miterlimit:10;stroke-dasharray:none;stroke-opacity:1" />
    <path
       id="path18"
       d="M 594.35713,882.86634 V 706.18484"
       style="fill:none;stroke:#000000;stroke-width:0.956296;stroke-linecap:round;stroke-linejoin:round;stroke-miterlimit:10;stroke-dasharray:none;stroke-opacity:1" />
    <path
       id="path19"
       d="m 458.98481,709.84912 h 203.1382"
       style="fill:none;stroke:#000000;stroke-width:0.956296;stroke-linecap:round;stroke-linejoin:round;stroke-miterlimit:10;stroke-dasharray:none;stroke-opacity:1" />
    <path
       id="path20"
       d="m 458.98481,800.18131 h 203.1382"
       style="fill:none;stroke:#000000;stroke-width:0.956296;stroke-linecap:round;stroke-linejoin:round;stroke-miterlimit:10;stroke-dasharray:none;stroke-opacity:1" />
    <path
       id="path21"
       d="m 458.98481,879.20207 h 203.1382"
       style="fill:none;stroke:#000000;stroke-width:0.956296;stroke-linecap:round;stroke-linejoin:round;stroke-miterlimit:10;stroke-dasharray:none;stroke-opacity:1" />
    <path
       id="path22"
       d="m 3153,5219 h -378 l 378,-35 z m -378,0 378,-35 h -378 z"
       style="fill:#007f1f;fill-opacity:1;fill-rule:nonzero;stroke:#007f1f;stroke-width:1;stroke-linecap:round;stroke-linejoin:miter;stroke-miterlimit:10;stroke-dasharray:none;stroke-opacity:1"
       transform="matrix(0.15944913,0,0,-0.15931604,20.180806,1547.0549)"
       clip-path="url(#clipPath23)" />
    <path
       id="path24"
       d="m 462.65214,715.58449 h 60.27178 v 5.57606 h -60.27178 v -5.57606"
       style="fill:none;stroke:#000000;stroke-width:0.956296;stroke-linecap:round;stroke-linejoin:round;stroke-miterlimit:10;stroke-dasharray:none;stroke-opacity:1" />
    <path
       id="path25"
       d="m 3578,5219 h -378 l 378,-35 z m -378,0 378,-35 h -378 z"
       style="fill:#007f1f;fill-opacity:1;fill-rule:nonzero;stroke:#007f1f;stroke-width:1;stroke-linecap:round;stroke-linejoin:miter;stroke-miterlimit:10;stroke-dasharray:none;stroke-opacity:1"
       transform="matrix(0.15944913,0,0,-0.15931604,20.180806,1547.0549)"
       clip-path="url(#clipPath26)" />
    <path
       id="path27"
       d="m 530.41803,715.58449 h 60.27176 v 5.57606 h -60.27176 v -5.57606"
       style="fill:none;stroke:#000000;stroke-width:0.956296;stroke-linecap:round;stroke-linejoin:round;stroke-miterlimit:10;stroke-dasharray:none;stroke-opacity:1" />
    <path
       id="path28"
       d="m 3929,4664 h -230 l 230,-212 z m -230,0 230,-212 h -230 z"
       style="fill:#333333;fill-opacity:1;fill-rule:nonzero;stroke:#333333;stroke-width:1;stroke-linecap:round;stroke-linejoin:miter;stroke-miterlimit:10;stroke-dasharray:none;stroke-opacity:1"
       transform="matrix(0.15944913,0,0,-0.15931604,20.180806,1547.0549)"
       clip-path="url(#clipPath29)" />
    <path
       id="path30"
       d="m 3504,4664 h -230 l 230,-212 z m -230,0 230,-212 h -230 z"
       style="fill:#333333;fill-opacity:1;fill-rule:nonzero;stroke:#333333;stroke-width:1;stroke-linecap:round;stroke-linejoin:miter;stroke-miterlimit:10;stroke-dasharray:none;stroke-opacity:1"
       transform="matrix(0.15944913,0,0,-0.15931604,20.180806,1547.0549)"
       clip-path="url(#clipPath31)" />
    <path
       id="path32"
       d="m 3079,4664 h -230 l 230,-212 z m -230,0 230,-212 h -230 z"
       style="fill:#333333;fill-opacity:1;fill-rule:nonzero;stroke:#333333;stroke-width:1;stroke-linecap:round;stroke-linejoin:miter;stroke-miterlimit:10;stroke-dasharray:none;stroke-opacity:1"
       transform="matrix(0.15944913,0,0,-0.15931604,20.180806,1547.0549)"
       clip-path="url(#clipPath33)" />
    <path
       id="path34"
       d="M 4026,4452 H 2752 l 1274,-50 z m -1274,0 1274,-50 H 2752 Z"
       style="fill:#333333;fill-opacity:1;fill-rule:nonzero;stroke:#333333;stroke-width:1;stroke-linecap:round;stroke-linejoin:miter;stroke-miterlimit:10;stroke-dasharray:none;stroke-opacity:1"
       transform="matrix(0.15944913,0,0,-0.15931604,20.180806,1547.0549)"
       clip-path="url(#clipPath35)" />
    <path
       id="path36"
       d="m 4026,4402 h -151 l 151,-61 z m -151,0 151,-61 h -151 z"
       style="fill:#333333;fill-opacity:1;fill-rule:nonzero;stroke:#333333;stroke-width:1;stroke-linecap:round;stroke-linejoin:miter;stroke-miterlimit:10;stroke-dasharray:none;stroke-opacity:1"
       transform="matrix(0.15944913,0,0,-0.15931604,20.180806,1547.0549)"
       clip-path="url(#clipPath37)" />
    <path
       id="path38"
       d="m 2893,4402 h -141 l 141,-61 z m -141,0 141,-61 h -141 z"
       style="fill:#333333;fill-opacity:1;fill-rule:nonzero;stroke:#333333;stroke-width:1;stroke-linecap:round;stroke-linejoin:miter;stroke-miterlimit:10;stroke-dasharray:none;stroke-opacity:1"
       transform="matrix(0.15944913,0,0,-0.15931604,20.180806,1547.0549)"
       clip-path="url(#clipPath39)" />
    <path
       id="path40"
       d="M 4026,4341 H 2752 l 1274,-54 z m -1274,0 1274,-54 H 2752 Z"
       style="fill:#333333;fill-opacity:1;fill-rule:nonzero;stroke:#333333;stroke-width:1;stroke-linecap:round;stroke-linejoin:miter;stroke-miterlimit:10;stroke-dasharray:none;stroke-opacity:1"
       transform="matrix(0.15944913,0,0,-0.15931604,20.180806,1547.0549)"
       clip-path="url(#clipPath41)" />
    <path
       id="path42"
       d="m 474.45138,804.0049 h 36.6733 v 33.77501 h -36.6733 V 804.0049"
       style="fill:none;stroke:#000000;stroke-width:0.956296;stroke-linecap:round;stroke-linejoin:round;stroke-miterlimit:10;stroke-dasharray:none;stroke-opacity:1" />
    <path
       id="path43"
       d="m 3079,4688 h -230 l 230,-24 z m -230,0 230,-24 h -230 z"
       style="fill:#007f1f;fill-opacity:1;fill-rule:nonzero;stroke:#007f1f;stroke-width:1;stroke-linecap:round;stroke-linejoin:miter;stroke-miterlimit:10;stroke-dasharray:none;stroke-opacity:1"
       transform="matrix(0.15944913,0,0,-0.15931604,20.180806,1547.0549)"
       clip-path="url(#clipPath44)" />
    <path
       id="path45"
       d="m 474.45138,800.18131 h 36.6733 v 3.82359 h -36.6733 v -3.82359"
       style="fill:none;stroke:#000000;stroke-width:0.956296;stroke-linecap:round;stroke-linejoin:round;stroke-miterlimit:10;stroke-dasharray:none;stroke-opacity:1" />
    <path
       id="path46"
       d="m 542.21726,804.0049 h 36.67331 v 33.77501 H 542.21726 V 804.0049"
       style="fill:none;stroke:#000000;stroke-width:0.956296;stroke-linecap:round;stroke-linejoin:round;stroke-miterlimit:10;stroke-dasharray:none;stroke-opacity:1" />
    <path
       id="path47"
       d="m 3504,4688 h -230 l 230,-24 z m -230,0 230,-24 h -230 z"
       style="fill:#007f1f;fill-opacity:1;fill-rule:nonzero;stroke:#007f1f;stroke-width:1;stroke-linecap:round;stroke-linejoin:miter;stroke-miterlimit:10;stroke-dasharray:none;stroke-opacity:1"
       transform="matrix(0.15944913,0,0,-0.15931604,20.180806,1547.0549)"
       clip-path="url(#clipPath48)" />
    <path
       id="path49"
       d="m 542.21726,800.18131 h 36.67331 v 3.82359 h -36.67331 v -3.82359"
       style="fill:none;stroke:#000000;stroke-width:0.956296;stroke-linecap:round;stroke-linejoin:round;stroke-miterlimit:10;stroke-dasharray:none;stroke-opacity:1" />
    <path
       id="path50"
       d="m 4003,5219 h -378 l 378,-35 z m -378,0 378,-35 h -378 z"
       style="fill:#007f1f;fill-opacity:1;fill-rule:nonzero;stroke:#007f1f;stroke-width:1;stroke-linecap:round;stroke-linejoin:miter;stroke-miterlimit:10;stroke-dasharray:none;stroke-opacity:1"
       transform="matrix(0.15944913,0,0,-0.15931604,20.180806,1547.0549)"
       clip-path="url(#clipPath51)" />
    <path
       id="path52"
       d="m 598.18391,715.58449 h 60.27177 v 5.57606 h -60.27177 v -5.57606"
       style="fill:none;stroke:#000000;stroke-width:0.956296;stroke-linecap:round;stroke-linejoin:round;stroke-miterlimit:10;stroke-dasharray:none;stroke-opacity:1" />
    <path
       id="path53"
       d="m 609.98314,804.0049 h 36.6733 v 33.77501 h -36.6733 V 804.0049"
       style="fill:none;stroke:#000000;stroke-width:0.956296;stroke-linecap:round;stroke-linejoin:round;stroke-miterlimit:10;stroke-dasharray:none;stroke-opacity:1" />
    <path
       id="path54"
       d="m 3929,4688 h -230 l 230,-24 z m -230,0 230,-24 h -230 z"
       style="fill:#007f1f;fill-opacity:1;fill-rule:nonzero;stroke:#007f1f;stroke-width:1;stroke-linecap:round;stroke-linejoin:miter;stroke-miterlimit:10;stroke-dasharray:none;stroke-opacity:1"
       transform="matrix(0.15944913,0,0,-0.15931604,20.180806,1547.0549)"
       clip-path="url(#clipPath55)" />
    <path
       id="path56"
       d="m 609.98314,800.18131 h 36.6733 v 3.82359 h -36.6733 v -3.82359"
       style="fill:none;stroke:#000000;stroke-width:0.956296;stroke-linecap:round;stroke-linejoin:round;stroke-miterlimit:10;stroke-dasharray:none;stroke-opacity:1" />
    <path
       id="path57"
       d="m 458.98481,837.77991 h 203.1382 v 26.28714 h -203.1382 v -26.28714"
       style="fill:none;stroke:#000000;stroke-width:0.956296;stroke-linecap:round;stroke-linejoin:round;stroke-miterlimit:10;stroke-dasharray:none;stroke-opacity:1" />
    <path
       id="path58"
       d="m 3875,4402 h -982 l 982,-61 z m -982,0 982,-61 h -982 z"
       style="fill:#adadad;fill-opacity:1;fill-rule:nonzero;stroke:#adadad;stroke-width:1;stroke-linecap:round;stroke-linejoin:miter;stroke-miterlimit:10;stroke-dasharray:none;stroke-opacity:1"
       transform="matrix(0.15944913,0,0,-0.15931604,20.180806,1547.0549)"
       clip-path="url(#clipPath59)" />
    <path
       id="path60"
       d="m 481.46714,845.7457 h 156.57905 v 9.71828 H 481.46714 v -9.71828"
       style="fill:none;stroke:#000000;stroke-width:0.956296;stroke-linecap:round;stroke-linejoin:round;stroke-miterlimit:10;stroke-dasharray:none;stroke-opacity:1" />
  </g>
  <g
     id="layer-oc4"
     inkscape:groupmode="layer"
     inkscape:label="0"
     transform="translate(-458.50664,-705.70667)">
    <path
       id="path61"
       d="M 662.12301,706.18484 H 458.98481"
       style="fill:none;stroke:#ffffff;stroke-width:0.159382;stroke-linecap:round;stroke-linejoin:round;stroke-miterlimit:10;stroke-dasharray:none;stroke-opacity:1" />
    <path
       id="path62"
       d="M 662.12301,706.18484 H 458.98481"
       style="fill:none;stroke:#000000;stroke-width:0.956296;stroke-linecap:round;stroke-linejoin:round;stroke-miterlimit:10;stroke-dasharray:none;stroke-opacity:1" />
    <path
       id="path63"
       d="M 662.12301,882.86634 H 458.98481"
       style="fill:none;stroke:#ffffff;stroke-width:0.159382;stroke-linecap:round;stroke-linejoin:round;stroke-miterlimit:10;stroke-dasharray:none;stroke-opacity:1" />
    <path
       id="path64"
       d="M 662.12301,882.86634 H 458.98481"
       style="fill:none;stroke:#000000;stroke-width:0.956296;stroke-linecap:round;stroke-linejoin:round;stroke-miterlimit:10;stroke-dasharray:none;stroke-opacity:1" />
  </g>
</svg>
