<?xml version="1.0" encoding="UTF-8" standalone="no"?>
<!-- Created with Inkscape (http://www.inkscape.org/) -->

<svg
   version="1.1"
   id="svg1"
   width="238.11026"
   height="177.63776"
   viewBox="0 0 238.11025 177.63776"
   sodipodi:docname="Schneider 63-125A 2P MCB with Aux.pdf"
   xmlns:inkscape="http://www.inkscape.org/namespaces/inkscape"
   xmlns:sodipodi="http://sodipodi.sourceforge.net/DTD/sodipodi-0.dtd"
   xmlns="http://www.w3.org/2000/svg"
   xmlns:svg="http://www.w3.org/2000/svg">
  <defs
     id="defs1">
    <clipPath
       clipPathUnits="userSpaceOnUse"
       id="clipPath2">
      <path
         d="M 2646,4169 H 4134 V 5279 H 2646 V 4169"
         transform="translate(-2.0833333e-6,2.0833333e-4)"
         id="path2" />
    </clipPath>
    <clipPath
       clipPathUnits="userSpaceOnUse"
       id="clipPath4">
      <path
         d="M 2646,4169 H 4134 V 5279 H 2646 V 4169"
         transform="translate(-2.0833333e-6,2.0833333e-4)"
         id="path4" />
    </clipPath>
    <clipPath
       clipPathUnits="userSpaceOnUse"
       id="clipPath6">
      <path
         d="M 2646,4169 H 4134 V 5279 H 2646 V 4169"
         transform="translate(-2.0833333e-6,2.0833333e-4)"
         id="path6" />
    </clipPath>
    <clipPath
       clipPathUnits="userSpaceOnUse"
       id="clipPath8">
      <path
         d="M 2646,4169 H 4134 V 5279 H 2646 V 4169"
         transform="translate(-2.0833333e-6,2.0833333e-4)"
         id="path8" />
    </clipPath>
    <clipPath
       clipPathUnits="userSpaceOnUse"
       id="clipPath13">
      <path
         d="M 2646,4169 H 4134 V 5279 H 2646 V 4169"
         transform="translate(-2.0833333e-6,2.0833333e-4)"
         id="path13" />
    </clipPath>
    <clipPath
       clipPathUnits="userSpaceOnUse"
       id="clipPath15">
      <path
         d="M 2646,4169 H 4134 V 5279 H 2646 V 4169"
         transform="translate(-2.0833333e-6,2.0833333e-4)"
         id="path15" />
    </clipPath>
    <clipPath
       clipPathUnits="userSpaceOnUse"
       id="clipPath20">
      <path
         d="M 2646,4169 H 4134 V 5279 H 2646 V 4169"
         transform="translate(-2.0833333e-6,2.0833333e-4)"
         id="path20" />
    </clipPath>
    <clipPath
       clipPathUnits="userSpaceOnUse"
       id="clipPath22">
      <path
         d="M 2646,4169 H 4134 V 5279 H 2646 V 4169"
         transform="translate(-2.0833333e-6,2.0833333e-4)"
         id="path22" />
    </clipPath>
    <clipPath
       clipPathUnits="userSpaceOnUse"
       id="clipPath24">
      <path
         d="M 2646,4169 H 4134 V 5279 H 2646 V 4169"
         transform="translate(-2.0833333e-6,2.0833333e-4)"
         id="path24" />
    </clipPath>
    <clipPath
       clipPathUnits="userSpaceOnUse"
       id="clipPath26">
      <path
         d="M 2646,4169 H 4134 V 5279 H 2646 V 4169"
         transform="translate(-2.0833333e-6,2.0833333e-4)"
         id="path26" />
    </clipPath>
    <clipPath
       clipPathUnits="userSpaceOnUse"
       id="clipPath28">
      <path
         d="M 2646,4169 H 4134 V 5279 H 2646 V 4169"
         transform="translate(-2.0833333e-6,2.0833333e-4)"
         id="path28" />
    </clipPath>
    <clipPath
       clipPathUnits="userSpaceOnUse"
       id="clipPath30">
      <path
         d="M 2646,4169 H 4134 V 5279 H 2646 V 4169"
         transform="translate(-2.0833333e-6,2.0833333e-4)"
         id="path30" />
    </clipPath>
    <clipPath
       clipPathUnits="userSpaceOnUse"
       id="clipPath32">
      <path
         d="M 2646,4169 H 4134 V 5279 H 2646 V 4169"
         transform="translate(-2.0833333e-6,2.0833333e-4)"
         id="path32" />
    </clipPath>
    <clipPath
       clipPathUnits="userSpaceOnUse"
       id="clipPath34">
      <path
         d="M 2646,4169 H 4134 V 5279 H 2646 V 4169"
         transform="translate(-2.0833333e-6,2.0833333e-4)"
         id="path34" />
    </clipPath>
    <clipPath
       clipPathUnits="userSpaceOnUse"
       id="clipPath36">
      <path
         d="M 2646,4169 H 4134 V 5279 H 2646 V 4169"
         transform="translate(-2.0833333e-6,2.0833333e-4)"
         id="path36" />
    </clipPath>
    <clipPath
       clipPathUnits="userSpaceOnUse"
       id="clipPath38">
      <path
         d="M 2646,4169 H 4134 V 5279 H 2646 V 4169"
         transform="translate(-2.0833333e-6,2.0833333e-4)"
         id="path38" />
    </clipPath>
    <clipPath
       clipPathUnits="userSpaceOnUse"
       id="clipPath48">
      <path
         d="M 2646,4169 H 4134 V 5279 H 2646 V 4169"
         transform="translate(-2.0833333e-6,2.0833333e-4)"
         id="path48" />
    </clipPath>
    <clipPath
       clipPathUnits="userSpaceOnUse"
       id="clipPath50">
      <path
         d="M 2646,4169 H 4134 V 5279 H 2646 V 4169"
         transform="translate(-2.0833333e-6,2.0833333e-4)"
         id="path50" />
    </clipPath>
    <clipPath
       clipPathUnits="userSpaceOnUse"
       id="clipPath56">
      <path
         d="M 2646,4169 H 4134 V 5279 H 2646 V 4169"
         transform="translate(-2.0833333e-6,2.0833333e-4)"
         id="path56" />
    </clipPath>
  </defs>
  <sodipodi:namedview
     id="namedview1"
     pagecolor="#505050"
     bordercolor="#eeeeee"
     borderopacity="1"
     inkscape:showpageshadow="0"
     inkscape:pageopacity="0"
     inkscape:pagecheckerboard="0"
     inkscape:deskcolor="#505050" />
  <g
     id="layer-oc1"
     inkscape:groupmode="layer"
     inkscape:label="Breakers"
     transform="translate(-441.54665,-705.70673)">
    <path
       id="path1"
       d="m 3283,4169 h 500 l -500,1109 z m 500,0 -500,1109 h 139 z"
       style="fill:#d6d6d6;fill-opacity:1;fill-rule:nonzero;stroke:#d6d6d6;stroke-width:1;stroke-linecap:butt;stroke-linejoin:miter;stroke-miterlimit:10;stroke-dasharray:none;stroke-opacity:1"
       transform="matrix(0.15948476,0,0,-0.15931596,20.0282,1547.0546)"
       clip-path="url(#clipPath2)" />
    <path
       id="path3"
       d="m 3783,4169 h 138 l -499,1109 z m 138,0 -499,1109 h 499 z"
       style="fill:#d6d6d6;fill-opacity:1;fill-rule:nonzero;stroke:#d6d6d6;stroke-width:1;stroke-linecap:butt;stroke-linejoin:miter;stroke-miterlimit:10;stroke-dasharray:none;stroke-opacity:1"
       transform="matrix(0.15948476,0,0,-0.15931596,20.0282,1547.0546)"
       clip-path="url(#clipPath4)" />
    <path
       id="path5"
       d="m 2646,4169 h 499 l -499,1109 z m 499,0 -499,1109 h 138 z"
       style="fill:#d6d6d6;fill-opacity:1;fill-rule:nonzero;stroke:#d6d6d6;stroke-width:1;stroke-linecap:butt;stroke-linejoin:miter;stroke-miterlimit:10;stroke-dasharray:none;stroke-opacity:1"
       transform="matrix(0.15948476,0,0,-0.15931596,20.0282,1547.0546)"
       clip-path="url(#clipPath6)" />
    <path
       id="path7"
       d="m 3145,4169 h 138 l -499,1109 z m 138,0 -499,1109 h 499 z"
       style="fill:#d6d6d6;fill-opacity:1;fill-rule:nonzero;stroke:#d6d6d6;stroke-width:1;stroke-linecap:butt;stroke-linejoin:miter;stroke-miterlimit:10;stroke-dasharray:none;stroke-opacity:1"
       transform="matrix(0.15948476,0,0,-0.15931596,20.0282,1547.0546)"
       clip-path="url(#clipPath8)" />
    <path
       id="path9"
       d="M 442.02486,882.8663 V 706.1849"
       style="fill:none;stroke:#000000;stroke-width:0.956402;stroke-linecap:round;stroke-linejoin:round;stroke-miterlimit:10;stroke-dasharray:none;stroke-opacity:1" />
    <path
       id="path10"
       d="M 543.61666,706.1849 V 882.8663 706.1849"
       style="fill:none;stroke:#000000;stroke-width:0.956402;stroke-linecap:round;stroke-linejoin:round;stroke-miterlimit:10;stroke-dasharray:none;stroke-opacity:1" />
    <path
       id="path11"
       d="M 645.36793,706.1849 V 882.8663"
       style="fill:none;stroke:#000000;stroke-width:0.956402;stroke-linecap:round;stroke-linejoin:round;stroke-miterlimit:10;stroke-dasharray:none;stroke-opacity:1" />
    <path
       id="path12"
       d="m 3885,5219 h -566 l 566,-35 z m -566,0 566,-35 h -566 z"
       style="fill:#007f1f;fill-opacity:1;fill-rule:nonzero;stroke:#007f1f;stroke-width:1;stroke-linecap:round;stroke-linejoin:miter;stroke-miterlimit:10;stroke-dasharray:none;stroke-opacity:1"
       transform="matrix(0.15948476,0,0,-0.15931596,20.0282,1547.0546)"
       clip-path="url(#clipPath13)" />
    <path
       id="path14"
       d="m 3248,5219 h -567 l 567,-35 z m -567,0 567,-35 h -567 z"
       style="fill:#007f1f;fill-opacity:1;fill-rule:nonzero;stroke:#007f1f;stroke-width:1;stroke-linecap:round;stroke-linejoin:miter;stroke-miterlimit:10;stroke-dasharray:none;stroke-opacity:1"
       transform="matrix(0.15948476,0,0,-0.15931596,20.0282,1547.0546)"
       clip-path="url(#clipPath15)" />
    <path
       id="path16"
       d="M 442.02486,709.84917 H 645.36793"
       style="fill:none;stroke:#000000;stroke-width:0.956402;stroke-linecap:round;stroke-linejoin:round;stroke-miterlimit:10;stroke-dasharray:none;stroke-opacity:1" />
    <path
       id="path17"
       d="m 447.60683,715.58454 h 90.42786 v 5.57606 h -90.42786 v -5.57606"
       style="fill:none;stroke:#000000;stroke-width:0.956402;stroke-linecap:round;stroke-linejoin:round;stroke-miterlimit:10;stroke-dasharray:none;stroke-opacity:1" />
    <path
       id="path18"
       d="m 549.35811,715.58454 h 90.26837 v 5.57606 h -90.26837 v -5.57606"
       style="fill:none;stroke:#000000;stroke-width:0.956402;stroke-linecap:round;stroke-linejoin:round;stroke-miterlimit:10;stroke-dasharray:none;stroke-opacity:1" />
    <path
       id="path19"
       d="m 3921,4402 h -638 l 638,-61 z m -638,0 638,-61 h -638 z"
       style="fill:#adadad;fill-opacity:1;fill-rule:nonzero;stroke:#adadad;stroke-width:1;stroke-linecap:round;stroke-linejoin:miter;stroke-miterlimit:10;stroke-dasharray:none;stroke-opacity:1"
       transform="matrix(0.15948476,0,0,-0.15931596,20.0282,1547.0546)"
       clip-path="url(#clipPath20)" />
    <path
       id="path21"
       d="m 3283,4402 h -637 l 637,-61 z m -637,0 637,-61 h -637 z"
       style="fill:#adadad;fill-opacity:1;fill-rule:nonzero;stroke:#adadad;stroke-width:1;stroke-linecap:round;stroke-linejoin:miter;stroke-miterlimit:10;stroke-dasharray:none;stroke-opacity:1"
       transform="matrix(0.15948476,0,0,-0.15931596,20.0282,1547.0546)"
       clip-path="url(#clipPath22)" />
    <path
       id="path23"
       d="m 3775,4664 h -346 l 346,-212 z m -346,0 346,-212 h -346 z"
       style="fill:#333333;fill-opacity:1;fill-rule:nonzero;stroke:#333333;stroke-width:1;stroke-linecap:round;stroke-linejoin:miter;stroke-miterlimit:10;stroke-dasharray:none;stroke-opacity:1"
       transform="matrix(0.15948476,0,0,-0.15931596,20.0282,1547.0546)"
       clip-path="url(#clipPath24)" />
    <path
       id="path25"
       d="m 3137,4664 h -346 l 346,-212 z m -346,0 346,-212 h -346 z"
       style="fill:#333333;fill-opacity:1;fill-rule:nonzero;stroke:#333333;stroke-width:1;stroke-linecap:round;stroke-linejoin:miter;stroke-miterlimit:10;stroke-dasharray:none;stroke-opacity:1"
       transform="matrix(0.15948476,0,0,-0.15931596,20.0282,1547.0546)"
       clip-path="url(#clipPath26)" />
    <path
       id="path27"
       d="m 3921,4452 h -638 l 638,-50 z m -638,0 638,-50 h -638 z"
       style="fill:#333333;fill-opacity:1;fill-rule:nonzero;stroke:#333333;stroke-width:1;stroke-linecap:round;stroke-linejoin:miter;stroke-miterlimit:10;stroke-dasharray:none;stroke-opacity:1"
       transform="matrix(0.15948476,0,0,-0.15931596,20.0282,1547.0546)"
       clip-path="url(#clipPath28)" />
    <path
       id="path29"
       d="m 3283,4452 h -637 l 637,-50 z m -637,0 637,-50 h -637 z"
       style="fill:#333333;fill-opacity:1;fill-rule:nonzero;stroke:#333333;stroke-width:1;stroke-linecap:round;stroke-linejoin:miter;stroke-miterlimit:10;stroke-dasharray:none;stroke-opacity:1"
       transform="matrix(0.15948476,0,0,-0.15931596,20.0282,1547.0546)"
       clip-path="url(#clipPath30)" />
    <path
       id="path31"
       d="m 3921,4341 h -638 l 638,-54 z m -638,0 638,-54 h -638 z"
       style="fill:#333333;fill-opacity:1;fill-rule:nonzero;stroke:#333333;stroke-width:1;stroke-linecap:round;stroke-linejoin:miter;stroke-miterlimit:10;stroke-dasharray:none;stroke-opacity:1"
       transform="matrix(0.15948476,0,0,-0.15931596,20.0282,1547.0546)"
       clip-path="url(#clipPath32)" />
    <path
       id="path33"
       d="m 3283,4341 h -637 l 637,-54 z m -637,0 637,-54 h -637 z"
       style="fill:#333333;fill-opacity:1;fill-rule:nonzero;stroke:#333333;stroke-width:1;stroke-linecap:round;stroke-linejoin:miter;stroke-miterlimit:10;stroke-dasharray:none;stroke-opacity:1"
       transform="matrix(0.15948476,0,0,-0.15931596,20.0282,1547.0546)"
       clip-path="url(#clipPath34)" />
    <path
       id="path35"
       d="m 3775,4688 h -346 l 346,-24 z m -346,0 346,-24 h -346 z"
       style="fill:#007f1f;fill-opacity:1;fill-rule:nonzero;stroke:#007f1f;stroke-width:1;stroke-linecap:round;stroke-linejoin:miter;stroke-miterlimit:10;stroke-dasharray:none;stroke-opacity:1"
       transform="matrix(0.15948476,0,0,-0.15931596,20.0282,1547.0546)"
       clip-path="url(#clipPath36)" />
    <path
       id="path37"
       d="m 3137,4688 h -346 l 346,-24 z m -346,0 346,-24 h -346 z"
       style="fill:#007f1f;fill-opacity:1;fill-rule:nonzero;stroke:#007f1f;stroke-width:1;stroke-linecap:round;stroke-linejoin:miter;stroke-miterlimit:10;stroke-dasharray:none;stroke-opacity:1"
       transform="matrix(0.15948476,0,0,-0.15931596,20.0282,1547.0546)"
       clip-path="url(#clipPath38)" />
    <path
       id="path39"
       d="M 442.02486,800.18132 H 645.36793"
       style="fill:none;stroke:#000000;stroke-width:0.956402;stroke-linecap:round;stroke-linejoin:round;stroke-miterlimit:10;stroke-dasharray:none;stroke-opacity:1" />
    <path
       id="path40"
       d="M 442.02486,879.20203 H 645.36793"
       style="fill:none;stroke:#000000;stroke-width:0.956402;stroke-linecap:round;stroke-linejoin:round;stroke-miterlimit:10;stroke-dasharray:none;stroke-opacity:1" />
    <path
       id="path41"
       d="m 465.15015,804.0049 h 55.18173 v 33.77499 H 465.15015 V 804.0049"
       style="fill:none;stroke:#000000;stroke-width:0.956402;stroke-linecap:round;stroke-linejoin:round;stroke-miterlimit:10;stroke-dasharray:none;stroke-opacity:1" />
    <path
       id="path42"
       d="m 465.15015,800.18132 h 55.18173 v 3.82358 h -55.18173 v -3.82358"
       style="fill:none;stroke:#000000;stroke-width:0.956402;stroke-linecap:round;stroke-linejoin:round;stroke-miterlimit:10;stroke-dasharray:none;stroke-opacity:1" />
    <path
       id="path43"
       d="M 645.36793,864.06702 V 837.77989 H 442.02486 v 26.28713 h 203.34307"
       style="fill:none;stroke:#000000;stroke-width:0.956402;stroke-linecap:round;stroke-linejoin:round;stroke-miterlimit:10;stroke-dasharray:none;stroke-opacity:1" />
    <path
       id="path44"
       d="m 442.02486,845.74568 h 203.34307 v 9.71827 H 442.02486 v -9.71827"
       style="fill:none;stroke:#000000;stroke-width:0.956402;stroke-linecap:round;stroke-linejoin:round;stroke-miterlimit:10;stroke-dasharray:none;stroke-opacity:1" />
    <path
       id="path45"
       d="m 566.90143,800.18132 h 55.18173 v 3.82358 h -55.18173 v -3.82358"
       style="fill:none;stroke:#000000;stroke-width:0.956402;stroke-linecap:round;stroke-linejoin:round;stroke-miterlimit:10;stroke-dasharray:none;stroke-opacity:1" />
    <path
       id="path46"
       d="m 566.90143,804.0049 h 55.18173 v 33.77499 H 566.90143 V 804.0049"
       style="fill:none;stroke:#000000;stroke-width:0.956402;stroke-linecap:round;stroke-linejoin:round;stroke-miterlimit:10;stroke-dasharray:none;stroke-opacity:1" />
    <path
       id="path47"
       d="m 3921,4169 h 166 l -166,1109 z m 166,0 -166,1109 h 46 z"
       style="fill:#d6d6d6;fill-opacity:1;fill-rule:nonzero;stroke:#d6d6d6;stroke-width:1;stroke-linecap:round;stroke-linejoin:miter;stroke-miterlimit:10;stroke-dasharray:none;stroke-opacity:1"
       transform="matrix(0.15948476,0,0,-0.15931596,20.0282,1547.0546)"
       clip-path="url(#clipPath48)" />
    <path
       id="path49"
       d="m 4087,4169 h 46 l -166,1109 z m 46,0 -166,1109 h 166 z"
       style="fill:#d6d6d6;fill-opacity:1;fill-rule:nonzero;stroke:#d6d6d6;stroke-width:1;stroke-linecap:round;stroke-linejoin:miter;stroke-miterlimit:10;stroke-dasharray:none;stroke-opacity:1"
       transform="matrix(0.15948476,0,0,-0.15931596,20.0282,1547.0546)"
       clip-path="url(#clipPath50)" />
    <path
       id="path51"
       d="M 679.17871,706.1849 V 882.8663"
       style="fill:none;stroke:#000000;stroke-width:0.956402;stroke-linecap:round;stroke-linejoin:round;stroke-miterlimit:10;stroke-dasharray:none;stroke-opacity:1" />
    <path
       id="path52"
       d="M 645.36793,882.8663 V 706.1849"
       style="fill:none;stroke:#000000;stroke-width:0.956402;stroke-linecap:round;stroke-linejoin:round;stroke-miterlimit:10;stroke-dasharray:none;stroke-opacity:1" />
    <path
       id="path53"
       d="m 645.36793,709.84917 h 33.81078"
       style="fill:none;stroke:#000000;stroke-width:0.956402;stroke-linecap:round;stroke-linejoin:round;stroke-miterlimit:10;stroke-dasharray:none;stroke-opacity:1" />
    <path
       id="path54"
       d="m 645.36793,879.20203 h 33.81078"
       style="fill:none;stroke:#000000;stroke-width:0.956402;stroke-linecap:round;stroke-linejoin:round;stroke-miterlimit:10;stroke-dasharray:none;stroke-opacity:1" />
    <path
       id="path55"
       d="m 4133,5219 h -212 l 212,-35 z m -212,0 212,-35 h -212 z"
       style="fill:#007f1f;fill-opacity:1;fill-rule:nonzero;stroke:#007f1f;stroke-width:1;stroke-linecap:round;stroke-linejoin:miter;stroke-miterlimit:10;stroke-dasharray:none;stroke-opacity:1"
       transform="matrix(0.15948476,0,0,-0.15931596,20.0282,1547.0546)"
       clip-path="url(#clipPath56)" />
    <path
       id="path57"
       d="m 645.36793,715.58454 h 33.81078 v 5.57606 h -33.81078 v -5.57606"
       style="fill:none;stroke:#000000;stroke-width:0.956402;stroke-linecap:round;stroke-linejoin:round;stroke-miterlimit:10;stroke-dasharray:none;stroke-opacity:1" />
  </g>
  <g
     id="layer-oc2"
     inkscape:groupmode="layer"
     inkscape:label="Screws"
     transform="translate(-441.54665,-705.70673)">
    <path
       id="path58"
       d="m 662.27332,706.1849 v 0"
       style="fill:none;stroke:#000000;stroke-width:0.956402;stroke-linecap:round;stroke-linejoin:round;stroke-miterlimit:10;stroke-dasharray:none;stroke-opacity:1" />
    <path
       id="path59"
       d="m 662.4328,882.8663 h -0.15948 -0.15948"
       style="fill:none;stroke:#000000;stroke-width:0.956402;stroke-linecap:round;stroke-linejoin:round;stroke-miterlimit:10;stroke-dasharray:none;stroke-opacity:1" />
  </g>
  <g
     id="layer-oc4"
     inkscape:groupmode="layer"
     inkscape:label="0"
     transform="translate(-441.54665,-705.70673)">
    <path
       id="path60"
       d="M 679.17871,706.1849 H 442.02486"
       style="fill:none;stroke:#ffffff;stroke-width:0.1594;stroke-linecap:round;stroke-linejoin:round;stroke-miterlimit:10;stroke-dasharray:none;stroke-opacity:1" />
    <path
       id="path61"
       d="M 679.17871,706.1849 H 442.02486"
       style="fill:none;stroke:#000000;stroke-width:0.956402;stroke-linecap:round;stroke-linejoin:round;stroke-miterlimit:10;stroke-dasharray:none;stroke-opacity:1" />
    <path
       id="path62"
       d="M 679.17871,882.8663 H 442.02486"
       style="fill:none;stroke:#ffffff;stroke-width:0.1594;stroke-linecap:round;stroke-linejoin:round;stroke-miterlimit:10;stroke-dasharray:none;stroke-opacity:1" />
    <path
       id="path63"
       d="M 679.17871,882.8663 H 442.02486"
       style="fill:none;stroke:#000000;stroke-width:0.956402;stroke-linecap:round;stroke-linejoin:round;stroke-miterlimit:10;stroke-dasharray:none;stroke-opacity:1" />
  </g>
</svg>
