<?xml version="1.0" encoding="UTF-8" standalone="no"?>
<!-- Created with Inkscape (http://www.inkscape.org/) -->

<svg
   version="1.1"
   id="svg1"
   width="170.07874"
   height="177.63776"
   viewBox="0 0 170.07873 177.63776"
   sodipodi:docname="Schneider 2-63A 2P MCB with Aux.pdf"
   xmlns:inkscape="http://www.inkscape.org/namespaces/inkscape"
   xmlns:sodipodi="http://sodipodi.sourceforge.net/DTD/sodipodi-0.dtd"
   xmlns="http://www.w3.org/2000/svg"
   xmlns:svg="http://www.w3.org/2000/svg">
  <defs
     id="defs1">
    <clipPath
       clipPathUnits="userSpaceOnUse"
       id="clipPath2">
      <path
         d="M 2858,4169 H 3920 V 5279 H 2858 V 4169"
         transform="translate(-2.0833333e-6,2.0833333e-4)"
         id="path2" />
    </clipPath>
    <clipPath
       clipPathUnits="userSpaceOnUse"
       id="clipPath4">
      <path
         d="M 2858,4169 H 3920 V 5279 H 2858 V 4169"
         transform="translate(-2.0833333e-6,2.0833333e-4)"
         id="path4" />
    </clipPath>
    <clipPath
       clipPathUnits="userSpaceOnUse"
       id="clipPath10">
      <path
         d="M 2858,4169 H 3920 V 5279 H 2858 V 4169"
         transform="translate(-2.0833333e-6,2.0833333e-4)"
         id="path10" />
    </clipPath>
    <clipPath
       clipPathUnits="userSpaceOnUse"
       id="clipPath15">
      <path
         d="M 2858,4169 H 3920 V 5279 H 2858 V 4169"
         transform="translate(-2.0833333e-6,2.0833333e-4)"
         id="path15" />
    </clipPath>
    <clipPath
       clipPathUnits="userSpaceOnUse"
       id="clipPath17">
      <path
         d="M 2858,4169 H 3920 V 5279 H 2858 V 4169"
         transform="translate(-2.0833333e-6,2.0833333e-4)"
         id="path17" />
    </clipPath>
    <clipPath
       clipPathUnits="userSpaceOnUse"
       id="clipPath19">
      <path
         d="M 2858,4169 H 3920 V 5279 H 2858 V 4169"
         transform="translate(-2.0833333e-6,2.0833333e-4)"
         id="path19" />
    </clipPath>
    <clipPath
       clipPathUnits="userSpaceOnUse"
       id="clipPath21">
      <path
         d="M 2858,4169 H 3920 V 5279 H 2858 V 4169"
         transform="translate(-2.0833333e-6,2.0833333e-4)"
         id="path21" />
    </clipPath>
    <clipPath
       clipPathUnits="userSpaceOnUse"
       id="clipPath23">
      <path
         d="M 2858,4169 H 3920 V 5279 H 2858 V 4169"
         transform="translate(-2.0833333e-6,2.0833333e-4)"
         id="path23" />
    </clipPath>
    <clipPath
       clipPathUnits="userSpaceOnUse"
       id="clipPath25">
      <path
         d="M 2858,4169 H 3920 V 5279 H 2858 V 4169"
         transform="translate(-2.0833333e-6,2.0833333e-4)"
         id="path25" />
    </clipPath>
    <clipPath
       clipPathUnits="userSpaceOnUse"
       id="clipPath27">
      <path
         d="M 2858,4169 H 3920 V 5279 H 2858 V 4169"
         transform="translate(-2.0833333e-6,2.0833333e-4)"
         id="path27" />
    </clipPath>
    <clipPath
       clipPathUnits="userSpaceOnUse"
       id="clipPath29">
      <path
         d="M 2858,4169 H 3920 V 5279 H 2858 V 4169"
         transform="translate(-2.0833333e-6,2.0833333e-4)"
         id="path29" />
    </clipPath>
    <clipPath
       clipPathUnits="userSpaceOnUse"
       id="clipPath31">
      <path
         d="M 2858,4169 H 3920 V 5279 H 2858 V 4169"
         transform="translate(-2.0833333e-6,2.0833333e-4)"
         id="path31" />
    </clipPath>
    <clipPath
       clipPathUnits="userSpaceOnUse"
       id="clipPath33">
      <path
         d="M 2858,4169 H 3920 V 5279 H 2858 V 4169"
         transform="translate(-2.0833333e-6,2.0833333e-4)"
         id="path33" />
    </clipPath>
    <clipPath
       clipPathUnits="userSpaceOnUse"
       id="clipPath35">
      <path
         d="M 2858,4169 H 3920 V 5279 H 2858 V 4169"
         transform="translate(-2.0833333e-6,2.0833333e-4)"
         id="path35" />
    </clipPath>
    <clipPath
       clipPathUnits="userSpaceOnUse"
       id="clipPath37">
      <path
         d="M 2858,4169 H 3920 V 5279 H 2858 V 4169"
         transform="translate(-2.0833333e-6,2.0833333e-4)"
         id="path37" />
    </clipPath>
    <clipPath
       clipPathUnits="userSpaceOnUse"
       id="clipPath39">
      <path
         d="M 2858,4169 H 3920 V 5279 H 2858 V 4169"
         transform="translate(-2.0833333e-6,2.0833333e-4)"
         id="path39" />
    </clipPath>
    <clipPath
       clipPathUnits="userSpaceOnUse"
       id="clipPath41">
      <path
         d="M 2858,4169 H 3920 V 5279 H 2858 V 4169"
         transform="translate(-2.0833333e-6,2.0833333e-4)"
         id="path41" />
    </clipPath>
    <clipPath
       clipPathUnits="userSpaceOnUse"
       id="clipPath43">
      <path
         d="M 2858,4169 H 3920 V 5279 H 2858 V 4169"
         transform="translate(-2.0833333e-6,2.0833333e-4)"
         id="path43" />
    </clipPath>
    <clipPath
       clipPathUnits="userSpaceOnUse"
       id="clipPath45">
      <path
         d="M 2858,4169 H 3920 V 5279 H 2858 V 4169"
         transform="translate(-2.0833333e-6,2.0833333e-4)"
         id="path45" />
    </clipPath>
    <clipPath
       clipPathUnits="userSpaceOnUse"
       id="clipPath47">
      <path
         d="M 2858,4169 H 3920 V 5279 H 2858 V 4169"
         transform="translate(-2.0833333e-6,2.0833333e-4)"
         id="path47" />
    </clipPath>
    <clipPath
       clipPathUnits="userSpaceOnUse"
       id="clipPath49">
      <path
         d="M 2858,4169 H 3920 V 5279 H 2858 V 4169"
         transform="translate(-2.0833333e-6,2.0833333e-4)"
         id="path49" />
    </clipPath>
    <clipPath
       clipPathUnits="userSpaceOnUse"
       id="clipPath51">
      <path
         d="M 2858,4169 H 3920 V 5279 H 2858 V 4169"
         transform="translate(-2.0833333e-6,2.0833333e-4)"
         id="path51" />
    </clipPath>
    <clipPath
       clipPathUnits="userSpaceOnUse"
       id="clipPath53">
      <path
         d="M 2858,4169 H 3920 V 5279 H 2858 V 4169"
         transform="translate(-2.0833333e-6,2.0833333e-4)"
         id="path53" />
    </clipPath>
    <clipPath
       clipPathUnits="userSpaceOnUse"
       id="clipPath55">
      <path
         d="M 2858,4169 H 3920 V 5279 H 2858 V 4169"
         transform="translate(-2.0833333e-6,2.0833333e-4)"
         id="path55" />
    </clipPath>
    <clipPath
       clipPathUnits="userSpaceOnUse"
       id="clipPath57">
      <path
         d="M 2858,4169 H 3920 V 5279 H 2858 V 4169"
         transform="translate(-2.0833333e-6,2.0833333e-4)"
         id="path57" />
    </clipPath>
    <clipPath
       clipPathUnits="userSpaceOnUse"
       id="clipPath59">
      <path
         d="M 2858,4169 H 3920 V 5279 H 2858 V 4169"
         transform="translate(-2.0833333e-6,2.0833333e-4)"
         id="path59" />
    </clipPath>
    <clipPath
       clipPathUnits="userSpaceOnUse"
       id="clipPath61">
      <path
         d="M 2858,4169 H 3920 V 5279 H 2858 V 4169"
         transform="translate(-2.0833333e-6,2.0833333e-4)"
         id="path61" />
    </clipPath>
    <clipPath
       clipPathUnits="userSpaceOnUse"
       id="clipPath63">
      <path
         d="M 2858,4169 H 3920 V 5279 H 2858 V 4169"
         transform="translate(-2.0833333e-6,2.0833333e-4)"
         id="path63" />
    </clipPath>
    <clipPath
       clipPathUnits="userSpaceOnUse"
       id="clipPath65">
      <path
         d="M 2858,4169 H 3920 V 5279 H 2858 V 4169"
         transform="translate(-2.0833333e-6,2.0833333e-4)"
         id="path65" />
    </clipPath>
    <clipPath
       clipPathUnits="userSpaceOnUse"
       id="clipPath67">
      <path
         d="M 2858,4169 H 3920 V 5279 H 2858 V 4169"
         transform="translate(-2.0833333e-6,2.0833333e-4)"
         id="path67" />
    </clipPath>
    <clipPath
       clipPathUnits="userSpaceOnUse"
       id="clipPath69">
      <path
         d="M 2858,4169 H 3920 V 5279 H 2858 V 4169"
         transform="translate(-2.0833333e-6,2.0833333e-4)"
         id="path69" />
    </clipPath>
    <clipPath
       clipPathUnits="userSpaceOnUse"
       id="clipPath71">
      <path
         d="M 2858,4169 H 3920 V 5279 H 2858 V 4169"
         transform="translate(-2.0833333e-6,2.0833333e-4)"
         id="path71" />
    </clipPath>
    <clipPath
       clipPathUnits="userSpaceOnUse"
       id="clipPath73">
      <path
         d="M 2858,4169 H 3920 V 5279 H 2858 V 4169"
         transform="translate(-2.0833333e-6,2.0833333e-4)"
         id="path73" />
    </clipPath>
    <clipPath
       clipPathUnits="userSpaceOnUse"
       id="clipPath75">
      <path
         d="M 2858,4169 H 3920 V 5279 H 2858 V 4169"
         transform="translate(-2.0833333e-6,2.0833333e-4)"
         id="path75" />
    </clipPath>
    <clipPath
       clipPathUnits="userSpaceOnUse"
       id="clipPath77">
      <path
         d="M 2858,4169 H 3920 V 5279 H 2858 V 4169"
         transform="translate(-2.0833333e-6,2.0833333e-4)"
         id="path77" />
    </clipPath>
    <clipPath
       clipPathUnits="userSpaceOnUse"
       id="clipPath79">
      <path
         d="M 2858,4169 H 3920 V 5279 H 2858 V 4169"
         transform="translate(-2.0833333e-6,2.0833333e-4)"
         id="path79" />
    </clipPath>
    <clipPath
       clipPathUnits="userSpaceOnUse"
       id="clipPath81">
      <path
         d="M 2858,4169 H 3920 V 5279 H 2858 V 4169"
         transform="translate(-2.0833333e-6,2.0833333e-4)"
         id="path81" />
    </clipPath>
  </defs>
  <sodipodi:namedview
     id="namedview1"
     pagecolor="#505050"
     bordercolor="#eeeeee"
     borderopacity="1"
     inkscape:showpageshadow="0"
     inkscape:pageopacity="0"
     inkscape:pagecheckerboard="0"
     inkscape:deskcolor="#505050" />
  <g
     id="layer-oc2"
     inkscape:groupmode="layer"
     inkscape:label="Breakers"
     transform="translate(-475.46666,-705.70673)">
    <path
       id="path1"
       d="m 3707,4169 h 166 l -166,1109 z m 166,0 -166,1109 h 46 z"
       style="fill:#d6d6d6;fill-opacity:1;fill-rule:nonzero;stroke:#d6d6d6;stroke-width:1;stroke-linecap:butt;stroke-linejoin:miter;stroke-miterlimit:10;stroke-dasharray:none;stroke-opacity:1"
       transform="matrix(0.15939924,0,0,-0.15931619,20.381712,1547.0556)"
       clip-path="url(#clipPath2)" />
    <path
       id="path3"
       d="m 3873,4169 h 46 l -166,1109 z m 46,0 -166,1109 h 166 z"
       style="fill:#d6d6d6;fill-opacity:1;fill-rule:nonzero;stroke:#d6d6d6;stroke-width:1;stroke-linecap:butt;stroke-linejoin:miter;stroke-miterlimit:10;stroke-dasharray:none;stroke-opacity:1"
       transform="matrix(0.15939924,0,0,-0.15931619,20.381712,1547.0556)"
       clip-path="url(#clipPath4)" />
    <path
       id="path5"
       d="M 645.06733,706.18478 V 882.86643"
       style="fill:none;stroke:#000000;stroke-width:0.956146;stroke-linecap:round;stroke-linejoin:round;stroke-miterlimit:10;stroke-dasharray:none;stroke-opacity:1" />
    <path
       id="path6"
       d="M 611.27469,882.86643 V 706.18478"
       style="fill:none;stroke:#000000;stroke-width:0.956146;stroke-linecap:round;stroke-linejoin:round;stroke-miterlimit:10;stroke-dasharray:none;stroke-opacity:1" />
    <path
       id="path7"
       d="m 611.27469,709.84904 h 33.79264"
       style="fill:none;stroke:#000000;stroke-width:0.956146;stroke-linecap:round;stroke-linejoin:round;stroke-miterlimit:10;stroke-dasharray:none;stroke-opacity:1" />
    <path
       id="path8"
       d="m 611.27469,879.20215 h 33.79264"
       style="fill:none;stroke:#000000;stroke-width:0.956146;stroke-linecap:round;stroke-linejoin:round;stroke-miterlimit:10;stroke-dasharray:none;stroke-opacity:1" />
    <path
       id="path9"
       d="m 3919,5219 h -212 l 212,-35 z m -212,0 212,-35 h -212 z"
       style="fill:#007f1f;fill-opacity:1;fill-rule:nonzero;stroke:#007f1f;stroke-width:1;stroke-linecap:round;stroke-linejoin:miter;stroke-miterlimit:10;stroke-dasharray:none;stroke-opacity:1"
       transform="matrix(0.15939924,0,0,-0.15931619,20.381712,1547.0556)"
       clip-path="url(#clipPath10)" />
    <path
       id="path11"
       d="m 611.27469,715.58443 h 33.79264 v 5.57606 h -33.79264 v -5.57606"
       style="fill:none;stroke:#000000;stroke-width:0.956146;stroke-linecap:round;stroke-linejoin:round;stroke-miterlimit:10;stroke-dasharray:none;stroke-opacity:1" />
    <path
       id="path14"
       d="m 3282,4169 h 333 l -333,1109 z m 333,0 -333,1109 h 92 z"
       style="fill:#d6d6d6;fill-opacity:1;fill-rule:nonzero;stroke:#d6d6d6;stroke-width:1;stroke-linecap:round;stroke-linejoin:miter;stroke-miterlimit:10;stroke-dasharray:none;stroke-opacity:1"
       transform="matrix(0.15939924,0,0,-0.15931619,20.381712,1547.0556)"
       clip-path="url(#clipPath15)" />
    <path
       id="path16"
       d="m 3615,4169 h 92 l -333,1109 z m 92,0 -333,1109 h 333 z"
       style="fill:#d6d6d6;fill-opacity:1;fill-rule:nonzero;stroke:#d6d6d6;stroke-width:1;stroke-linecap:round;stroke-linejoin:miter;stroke-miterlimit:10;stroke-dasharray:none;stroke-opacity:1"
       transform="matrix(0.15939924,0,0,-0.15931619,20.381712,1547.0556)"
       clip-path="url(#clipPath17)" />
    <path
       id="path18"
       d="m 2858,4169 h 332 l -332,1109 z m 332,0 -332,1109 h 92 z"
       style="fill:#d6d6d6;fill-opacity:1;fill-rule:nonzero;stroke:#d6d6d6;stroke-width:1;stroke-linecap:round;stroke-linejoin:miter;stroke-miterlimit:10;stroke-dasharray:none;stroke-opacity:1"
       transform="matrix(0.15939924,0,0,-0.15931619,20.381712,1547.0556)"
       clip-path="url(#clipPath19)" />
    <path
       id="path20"
       d="m 3190,4169 h 92 l -332,1109 z m 92,0 -332,1109 h 332 z"
       style="fill:#d6d6d6;fill-opacity:1;fill-rule:nonzero;stroke:#d6d6d6;stroke-width:1;stroke-linecap:round;stroke-linejoin:miter;stroke-miterlimit:10;stroke-dasharray:none;stroke-opacity:1"
       transform="matrix(0.15939924,0,0,-0.15931619,20.381712,1547.0556)"
       clip-path="url(#clipPath21)" />
    <path
       id="path22"
       d="M 3282,5278 V 4169"
       style="fill:none;stroke:#000000;stroke-width:6;stroke-linecap:round;stroke-linejoin:round;stroke-miterlimit:10;stroke-dasharray:none;stroke-opacity:1"
       transform="matrix(0.15939924,0,0,-0.15931619,20.381712,1547.0556)"
       clip-path="url(#clipPath23)" />
    <path
       id="path24"
       d="M 2858,4169 V 5278"
       style="fill:none;stroke:#000000;stroke-width:6;stroke-linecap:round;stroke-linejoin:round;stroke-miterlimit:10;stroke-dasharray:none;stroke-opacity:1"
       transform="matrix(0.15939924,0,0,-0.15931619,20.381712,1547.0556)"
       clip-path="url(#clipPath25)" />
    <path
       id="path26"
       d="M 3707,5278 V 4169"
       style="fill:none;stroke:#000000;stroke-width:6;stroke-linecap:round;stroke-linejoin:round;stroke-miterlimit:10;stroke-dasharray:none;stroke-opacity:1"
       transform="matrix(0.15939924,0,0,-0.15931619,20.381712,1547.0556)"
       clip-path="url(#clipPath27)" />
    <path
       id="path28"
       d="M 3282,4169 V 5278"
       style="fill:none;stroke:#000000;stroke-width:6;stroke-linecap:round;stroke-linejoin:round;stroke-miterlimit:10;stroke-dasharray:none;stroke-opacity:1"
       transform="matrix(0.15939924,0,0,-0.15931619,20.381712,1547.0556)"
       clip-path="url(#clipPath29)" />
    <path
       id="path30"
       d="m 3610,4664 h -231 l 231,-212 z m -231,0 231,-212 h -231 z"
       style="fill:#333333;fill-opacity:1;fill-rule:nonzero;stroke:#333333;stroke-width:1;stroke-linecap:round;stroke-linejoin:miter;stroke-miterlimit:10;stroke-dasharray:none;stroke-opacity:1"
       transform="matrix(0.15939924,0,0,-0.15931619,20.381712,1547.0556)"
       clip-path="url(#clipPath31)" />
    <path
       id="path32"
       d="m 3185,4664 h -230 l 230,-212 z m -230,0 230,-212 h -230 z"
       style="fill:#333333;fill-opacity:1;fill-rule:nonzero;stroke:#333333;stroke-width:1;stroke-linecap:round;stroke-linejoin:miter;stroke-miterlimit:10;stroke-dasharray:none;stroke-opacity:1"
       transform="matrix(0.15939924,0,0,-0.15931619,20.381712,1547.0556)"
       clip-path="url(#clipPath33)" />
    <path
       id="path34"
       d="m 3707,4452 h -425 l 425,-50 z m -425,0 425,-50 h -425 z"
       style="fill:#333333;fill-opacity:1;fill-rule:nonzero;stroke:#333333;stroke-width:1;stroke-linecap:round;stroke-linejoin:miter;stroke-miterlimit:10;stroke-dasharray:none;stroke-opacity:1"
       transform="matrix(0.15939924,0,0,-0.15931619,20.381712,1547.0556)"
       clip-path="url(#clipPath35)" />
    <path
       id="path36"
       d="m 3282,4452 h -424 l 424,-50 z m -424,0 424,-50 h -424 z"
       style="fill:#333333;fill-opacity:1;fill-rule:nonzero;stroke:#333333;stroke-width:1;stroke-linecap:round;stroke-linejoin:miter;stroke-miterlimit:10;stroke-dasharray:none;stroke-opacity:1"
       transform="matrix(0.15939924,0,0,-0.15931619,20.381712,1547.0556)"
       clip-path="url(#clipPath37)" />
    <path
       id="path38"
       d="m 3707,4402 h -142 l 142,-61 z m -142,0 142,-61 h -142 z"
       style="fill:#333333;fill-opacity:1;fill-rule:nonzero;stroke:#333333;stroke-width:1;stroke-linecap:round;stroke-linejoin:miter;stroke-miterlimit:10;stroke-dasharray:none;stroke-opacity:1"
       transform="matrix(0.15939924,0,0,-0.15931619,20.381712,1547.0556)"
       clip-path="url(#clipPath39)" />
    <path
       id="path40"
       d="m 2999,4402 h -141 l 141,-61 z m -141,0 141,-61 h -141 z"
       style="fill:#333333;fill-opacity:1;fill-rule:nonzero;stroke:#333333;stroke-width:1;stroke-linecap:round;stroke-linejoin:miter;stroke-miterlimit:10;stroke-dasharray:none;stroke-opacity:1"
       transform="matrix(0.15939924,0,0,-0.15931619,20.381712,1547.0556)"
       clip-path="url(#clipPath41)" />
    <path
       id="path42"
       d="m 3707,4341 h -425 l 425,-54 z m -425,0 425,-54 h -425 z"
       style="fill:#333333;fill-opacity:1;fill-rule:nonzero;stroke:#333333;stroke-width:1;stroke-linecap:round;stroke-linejoin:miter;stroke-miterlimit:10;stroke-dasharray:none;stroke-opacity:1"
       transform="matrix(0.15939924,0,0,-0.15931619,20.381712,1547.0556)"
       clip-path="url(#clipPath43)" />
    <path
       id="path44"
       d="m 3282,4341 h -424 l 424,-54 z m -424,0 424,-54 h -424 z"
       style="fill:#333333;fill-opacity:1;fill-rule:nonzero;stroke:#333333;stroke-width:1;stroke-linecap:round;stroke-linejoin:miter;stroke-miterlimit:10;stroke-dasharray:none;stroke-opacity:1"
       transform="matrix(0.15939924,0,0,-0.15931619,20.381712,1547.0556)"
       clip-path="url(#clipPath45)" />
    <path
       id="path46"
       d="m 2858,5255 h 849"
       style="fill:none;stroke:#000000;stroke-width:6;stroke-linecap:round;stroke-linejoin:round;stroke-miterlimit:10;stroke-dasharray:none;stroke-opacity:1"
       transform="matrix(0.15939924,0,0,-0.15931619,20.381712,1547.0556)"
       clip-path="url(#clipPath47)" />
    <path
       id="path48"
       d="m 2858,4688 h 849"
       style="fill:none;stroke:#000000;stroke-width:6;stroke-linecap:round;stroke-linejoin:round;stroke-miterlimit:10;stroke-dasharray:none;stroke-opacity:1"
       transform="matrix(0.15939924,0,0,-0.15931619,20.381712,1547.0556)"
       clip-path="url(#clipPath49)" />
    <path
       id="path50"
       d="m 2858,4192 h 849"
       style="fill:none;stroke:#000000;stroke-width:6;stroke-linecap:round;stroke-linejoin:round;stroke-miterlimit:10;stroke-dasharray:none;stroke-opacity:1"
       transform="matrix(0.15939924,0,0,-0.15931619,20.381712,1547.0556)"
       clip-path="url(#clipPath51)" />
    <path
       id="path52"
       d="m 3259,5219 h -378 l 378,-35 z m -378,0 378,-35 h -378 z"
       style="fill:#007f1f;fill-opacity:1;fill-rule:nonzero;stroke:#007f1f;stroke-width:1;stroke-linecap:round;stroke-linejoin:miter;stroke-miterlimit:10;stroke-dasharray:none;stroke-opacity:1"
       transform="matrix(0.15939924,0,0,-0.15931619,20.381712,1547.0556)"
       clip-path="url(#clipPath53)" />
    <path
       id="path54"
       d="m 2881,5219 h 378 v -35 h -378 v 35"
       style="fill:none;stroke:#000000;stroke-width:6;stroke-linecap:round;stroke-linejoin:round;stroke-miterlimit:10;stroke-dasharray:none;stroke-opacity:1"
       transform="matrix(0.15939924,0,0,-0.15931619,20.381712,1547.0556)"
       clip-path="url(#clipPath55)" />
    <path
       id="path56"
       d="m 3683,5219 h -377 l 377,-35 z m -377,0 377,-35 h -377 z"
       style="fill:#007f1f;fill-opacity:1;fill-rule:nonzero;stroke:#007f1f;stroke-width:1;stroke-linecap:round;stroke-linejoin:miter;stroke-miterlimit:10;stroke-dasharray:none;stroke-opacity:1"
       transform="matrix(0.15939924,0,0,-0.15931619,20.381712,1547.0556)"
       clip-path="url(#clipPath57)" />
    <path
       id="path58"
       d="m 3306,5219 h 377 v -35 h -377 v 35"
       style="fill:none;stroke:#000000;stroke-width:6;stroke-linecap:round;stroke-linejoin:round;stroke-miterlimit:10;stroke-dasharray:none;stroke-opacity:1"
       transform="matrix(0.15939924,0,0,-0.15931619,20.381712,1547.0556)"
       clip-path="url(#clipPath59)" />
    <path
       id="path60"
       d="m 2858,4287 h 849"
       style="fill:none;stroke:#000000;stroke-width:6;stroke-linecap:round;stroke-linejoin:round;stroke-miterlimit:10;stroke-dasharray:none;stroke-opacity:1"
       transform="matrix(0.15939924,0,0,-0.15931619,20.381712,1547.0556)"
       clip-path="url(#clipPath61)" />
    <path
       id="path62"
       d="m 2858,4452 h 849"
       style="fill:none;stroke:#000000;stroke-width:6;stroke-linecap:round;stroke-linejoin:round;stroke-miterlimit:10;stroke-dasharray:none;stroke-opacity:1"
       transform="matrix(0.15939924,0,0,-0.15931619,20.381712,1547.0556)"
       clip-path="url(#clipPath63)" />
    <path
       id="path64"
       d="m 2955,4664 h 230 v -212 h -230 v 212"
       style="fill:none;stroke:#000000;stroke-width:6;stroke-linecap:round;stroke-linejoin:round;stroke-miterlimit:10;stroke-dasharray:none;stroke-opacity:1"
       transform="matrix(0.15939924,0,0,-0.15931619,20.381712,1547.0556)"
       clip-path="url(#clipPath65)" />
    <path
       id="path66"
       d="m 3185,4688 h -230 l 230,-24 z m -230,0 230,-24 h -230 z"
       style="fill:#007f1f;fill-opacity:1;fill-rule:nonzero;stroke:#007f1f;stroke-width:1;stroke-linecap:round;stroke-linejoin:miter;stroke-miterlimit:10;stroke-dasharray:none;stroke-opacity:1"
       transform="matrix(0.15939924,0,0,-0.15931619,20.381712,1547.0556)"
       clip-path="url(#clipPath67)" />
    <path
       id="path68"
       d="m 2955,4688 h 230 v -24 h -230 v 24"
       style="fill:none;stroke:#000000;stroke-width:6;stroke-linecap:round;stroke-linejoin:round;stroke-miterlimit:10;stroke-dasharray:none;stroke-opacity:1"
       transform="matrix(0.15939924,0,0,-0.15931619,20.381712,1547.0556)"
       clip-path="url(#clipPath69)" />
    <path
       id="path70"
       d="m 2858,4452 h 849 v -165 h -849 v 165"
       style="fill:none;stroke:#000000;stroke-width:6;stroke-linecap:round;stroke-linejoin:round;stroke-miterlimit:10;stroke-dasharray:none;stroke-opacity:1"
       transform="matrix(0.15939924,0,0,-0.15931619,20.381712,1547.0556)"
       clip-path="url(#clipPath71)" />
    <path
       id="path72"
       d="m 3565,4402 h -566 l 566,-61 z m -566,0 566,-61 h -566 z"
       style="fill:#adadad;fill-opacity:1;fill-rule:nonzero;stroke:#adadad;stroke-width:1;stroke-linecap:round;stroke-linejoin:miter;stroke-miterlimit:10;stroke-dasharray:none;stroke-opacity:1"
       transform="matrix(0.15939924,0,0,-0.15931619,20.381712,1547.0556)"
       clip-path="url(#clipPath73)" />
    <path
       id="path74"
       d="m 2999,4402 h 566 v -61 h -566 v 61"
       style="fill:none;stroke:#000000;stroke-width:6;stroke-linecap:round;stroke-linejoin:round;stroke-miterlimit:10;stroke-dasharray:none;stroke-opacity:1"
       transform="matrix(0.15939924,0,0,-0.15931619,20.381712,1547.0556)"
       clip-path="url(#clipPath75)" />
    <path
       id="path76"
       d="m 3379,4664 h 231 v -212 h -231 v 212"
       style="fill:none;stroke:#000000;stroke-width:6;stroke-linecap:round;stroke-linejoin:round;stroke-miterlimit:10;stroke-dasharray:none;stroke-opacity:1"
       transform="matrix(0.15939924,0,0,-0.15931619,20.381712,1547.0556)"
       clip-path="url(#clipPath77)" />
    <path
       id="path78"
       d="m 3610,4688 h -231 l 231,-24 z m -231,0 231,-24 h -231 z"
       style="fill:#007f1f;fill-opacity:1;fill-rule:nonzero;stroke:#007f1f;stroke-width:1;stroke-linecap:round;stroke-linejoin:miter;stroke-miterlimit:10;stroke-dasharray:none;stroke-opacity:1"
       transform="matrix(0.15939924,0,0,-0.15931619,20.381712,1547.0556)"
       clip-path="url(#clipPath79)" />
    <path
       id="path80"
       d="m 3379,4688 h 231 v -24 h -231 v 24"
       style="fill:none;stroke:#000000;stroke-width:6;stroke-linecap:round;stroke-linejoin:round;stroke-miterlimit:10;stroke-dasharray:none;stroke-opacity:1"
       transform="matrix(0.15939924,0,0,-0.15931619,20.381712,1547.0556)"
       clip-path="url(#clipPath81)" />
  </g>
  <g
     id="layer-oc3"
     inkscape:groupmode="layer"
     inkscape:label="Screws"
     transform="translate(-475.46666,-705.70673)">
    <path
       id="path12"
       d="m 628.17102,706.18478 v 0"
       style="fill:none;stroke:#000000;stroke-width:0.956146;stroke-linecap:round;stroke-linejoin:round;stroke-miterlimit:10;stroke-dasharray:none;stroke-opacity:1" />
    <path
       id="path13"
       d="m 628.33041,882.86643 h -0.15939 -0.1594"
       style="fill:none;stroke:#000000;stroke-width:0.956146;stroke-linecap:round;stroke-linejoin:round;stroke-miterlimit:10;stroke-dasharray:none;stroke-opacity:1" />
  </g>
  <g
     id="layer-oc4"
     inkscape:groupmode="layer"
     inkscape:label="0"
     transform="translate(-475.46666,-705.70673)">
    <path
       id="path82"
       d="M 645.06733,706.18478 H 475.94474"
       style="fill:none;stroke:#ffffff;stroke-width:0.159358;stroke-linecap:round;stroke-linejoin:round;stroke-miterlimit:10;stroke-dasharray:none;stroke-opacity:1" />
    <path
       id="path83"
       d="M 645.06733,706.18478 H 475.94474"
       style="fill:none;stroke:#000000;stroke-width:0.956146;stroke-linecap:round;stroke-linejoin:round;stroke-miterlimit:10;stroke-dasharray:none;stroke-opacity:1" />
    <path
       id="path84"
       d="M 645.06733,882.86643 H 475.94474"
       style="fill:none;stroke:#ffffff;stroke-width:0.159358;stroke-linecap:round;stroke-linejoin:round;stroke-miterlimit:10;stroke-dasharray:none;stroke-opacity:1" />
    <path
       id="path85"
       d="M 645.06733,882.86643 H 475.94474"
       style="fill:none;stroke:#000000;stroke-width:0.956146;stroke-linecap:round;stroke-linejoin:round;stroke-miterlimit:10;stroke-dasharray:none;stroke-opacity:1" />
  </g>
</svg>
