<?xml version="1.0" encoding="UTF-8" standalone="no"?>
<!-- Created with Inkscape (http://www.inkscape.org/) -->

<svg
   version="1.1"
   id="svg1"
   width="340.15747"
   height="177.63776"
   viewBox="0 0 340.15746 177.63776"
   sodipodi:docname="Schneider 63-125A 3P MCB with Aux.pdf"
   xmlns:inkscape="http://www.inkscape.org/namespaces/inkscape"
   xmlns:sodipodi="http://sodipodi.sourceforge.net/DTD/sodipodi-0.dtd"
   xmlns="http://www.w3.org/2000/svg"
   xmlns:svg="http://www.w3.org/2000/svg">
  <defs
     id="defs1">
    <clipPath
       clipPathUnits="userSpaceOnUse"
       id="clipPath2">
      <path
         d="M 2327,4169 H 4452 V 5279 H 2327 V 4169"
         transform="translate(-2.0833333e-6,2.0833333e-4)"
         id="path2" />
    </clipPath>
    <clipPath
       clipPathUnits="userSpaceOnUse"
       id="clipPath4">
      <path
         d="M 2327,4169 H 4452 V 5279 H 2327 V 4169"
         transform="translate(-2.0833333e-6,2.0833333e-4)"
         id="path4" />
    </clipPath>
    <clipPath
       clipPathUnits="userSpaceOnUse"
       id="clipPath6">
      <path
         d="M 2327,4169 H 4452 V 5279 H 2327 V 4169"
         transform="translate(-2.0833333e-6,2.0833333e-4)"
         id="path6" />
    </clipPath>
    <clipPath
       clipPathUnits="userSpaceOnUse"
       id="clipPath8">
      <path
         d="M 2327,4169 H 4452 V 5279 H 2327 V 4169"
         transform="translate(-2.0833333e-6,2.0833333e-4)"
         id="path8" />
    </clipPath>
    <clipPath
       clipPathUnits="userSpaceOnUse"
       id="clipPath10">
      <path
         d="M 2327,4169 H 4452 V 5279 H 2327 V 4169"
         transform="translate(-2.0833333e-6,2.0833333e-4)"
         id="path10" />
    </clipPath>
    <clipPath
       clipPathUnits="userSpaceOnUse"
       id="clipPath12">
      <path
         d="M 2327,4169 H 4452 V 5279 H 2327 V 4169"
         transform="translate(-2.0833333e-6,2.0833333e-4)"
         id="path12" />
    </clipPath>
    <clipPath
       clipPathUnits="userSpaceOnUse"
       id="clipPath21">
      <path
         d="M 2327,4169 H 4452 V 5279 H 2327 V 4169"
         transform="translate(-2.0833333e-6,2.0833333e-4)"
         id="path21" />
    </clipPath>
    <clipPath
       clipPathUnits="userSpaceOnUse"
       id="clipPath23">
      <path
         d="M 2327,4169 H 4452 V 5279 H 2327 V 4169"
         transform="translate(-2.0833333e-6,2.0833333e-4)"
         id="path23" />
    </clipPath>
    <clipPath
       clipPathUnits="userSpaceOnUse"
       id="clipPath25">
      <path
         d="M 2327,4169 H 4452 V 5279 H 2327 V 4169"
         transform="translate(-2.0833333e-6,2.0833333e-4)"
         id="path25" />
    </clipPath>
    <clipPath
       clipPathUnits="userSpaceOnUse"
       id="clipPath27">
      <path
         d="M 2327,4169 H 4452 V 5279 H 2327 V 4169"
         transform="translate(-2.0833333e-6,2.0833333e-4)"
         id="path27" />
    </clipPath>
    <clipPath
       clipPathUnits="userSpaceOnUse"
       id="clipPath29">
      <path
         d="M 2327,4169 H 4452 V 5279 H 2327 V 4169"
         transform="translate(-2.0833333e-6,2.0833333e-4)"
         id="path29" />
    </clipPath>
    <clipPath
       clipPathUnits="userSpaceOnUse"
       id="clipPath32">
      <path
         d="M 2327,4169 H 4452 V 5279 H 2327 V 4169"
         transform="translate(-2.0833333e-6,2.0833333e-4)"
         id="path32" />
    </clipPath>
    <clipPath
       clipPathUnits="userSpaceOnUse"
       id="clipPath38">
      <path
         d="M 2327,4169 H 4452 V 5279 H 2327 V 4169"
         transform="translate(-2.0833333e-6,2.0833333e-4)"
         id="path38" />
    </clipPath>
    <clipPath
       clipPathUnits="userSpaceOnUse"
       id="clipPath40">
      <path
         d="M 2327,4169 H 4452 V 5279 H 2327 V 4169"
         transform="translate(-2.0833333e-6,2.0833333e-4)"
         id="path40" />
    </clipPath>
    <clipPath
       clipPathUnits="userSpaceOnUse"
       id="clipPath42">
      <path
         d="M 2327,4169 H 4452 V 5279 H 2327 V 4169"
         transform="translate(-2.0833333e-6,2.0833333e-4)"
         id="path42" />
    </clipPath>
    <clipPath
       clipPathUnits="userSpaceOnUse"
       id="clipPath44">
      <path
         d="M 2327,4169 H 4452 V 5279 H 2327 V 4169"
         transform="translate(-2.0833333e-6,2.0833333e-4)"
         id="path44" />
    </clipPath>
    <clipPath
       clipPathUnits="userSpaceOnUse"
       id="clipPath46">
      <path
         d="M 2327,4169 H 4452 V 5279 H 2327 V 4169"
         transform="translate(-2.0833333e-6,2.0833333e-4)"
         id="path46" />
    </clipPath>
    <clipPath
       clipPathUnits="userSpaceOnUse"
       id="clipPath48">
      <path
         d="M 2327,4169 H 4452 V 5279 H 2327 V 4169"
         transform="translate(-2.0833333e-6,2.0833333e-4)"
         id="path48" />
    </clipPath>
    <clipPath
       clipPathUnits="userSpaceOnUse"
       id="clipPath56">
      <path
         d="M 2327,4169 H 4452 V 5279 H 2327 V 4169"
         transform="translate(-2.0833333e-6,2.0833333e-4)"
         id="path56" />
    </clipPath>
    <clipPath
       clipPathUnits="userSpaceOnUse"
       id="clipPath58">
      <path
         d="M 2327,4169 H 4452 V 5279 H 2327 V 4169"
         transform="translate(-2.0833333e-6,2.0833333e-4)"
         id="path58" />
    </clipPath>
    <clipPath
       clipPathUnits="userSpaceOnUse"
       id="clipPath64">
      <path
         d="M 2327,4169 H 4452 V 5279 H 2327 V 4169"
         transform="translate(-2.0833333e-6,2.0833333e-4)"
         id="path64" />
    </clipPath>
  </defs>
  <sodipodi:namedview
     id="namedview1"
     pagecolor="#505050"
     bordercolor="#eeeeee"
     borderopacity="1"
     inkscape:showpageshadow="0"
     inkscape:pageopacity="0"
     inkscape:pagecheckerboard="0"
     inkscape:deskcolor="#505050" />
  <g
     id="layer-oc2"
     inkscape:groupmode="layer"
     inkscape:label="Breakers"
     transform="translate(-390.50667,-705.70673)">
    <path
       id="path1"
       d="m 3601,4169 h 500 l -500,1109 z m 500,0 -500,1109 h 139 z"
       style="fill:#d6d6d6;fill-opacity:1;fill-rule:nonzero;stroke:#d6d6d6;stroke-width:1;stroke-linecap:butt;stroke-linejoin:miter;stroke-miterlimit:10;stroke-dasharray:none;stroke-opacity:1"
       transform="matrix(0.15969889,0,0,-0.15931539,19.365875,1547.0518)"
       clip-path="url(#clipPath2)" />
    <path
       id="path3"
       d="m 4101,4169 h 138 l -499,1109 z m 138,0 -499,1109 h 499 z"
       style="fill:#d6d6d6;fill-opacity:1;fill-rule:nonzero;stroke:#d6d6d6;stroke-width:1;stroke-linecap:butt;stroke-linejoin:miter;stroke-miterlimit:10;stroke-dasharray:none;stroke-opacity:1"
       transform="matrix(0.15969889,0,0,-0.15931539,19.365875,1547.0518)"
       clip-path="url(#clipPath4)" />
    <path
       id="path5"
       d="m 2964,4169 h 499 l -499,1109 z m 499,0 -499,1109 h 138 z"
       style="fill:#d6d6d6;fill-opacity:1;fill-rule:nonzero;stroke:#d6d6d6;stroke-width:1;stroke-linecap:butt;stroke-linejoin:miter;stroke-miterlimit:10;stroke-dasharray:none;stroke-opacity:1"
       transform="matrix(0.15969889,0,0,-0.15931539,19.365875,1547.0518)"
       clip-path="url(#clipPath6)" />
    <path
       id="path7"
       d="m 3463,4169 h 138 l -499,1109 z m 138,0 -499,1109 h 499 z"
       style="fill:#d6d6d6;fill-opacity:1;fill-rule:nonzero;stroke:#d6d6d6;stroke-width:1;stroke-linecap:butt;stroke-linejoin:miter;stroke-miterlimit:10;stroke-dasharray:none;stroke-opacity:1"
       transform="matrix(0.15969889,0,0,-0.15931539,19.365875,1547.0518)"
       clip-path="url(#clipPath8)" />
    <path
       id="path9"
       d="m 2327,4169 h 499 l -499,1109 z m 499,0 -499,1109 h 138 z"
       style="fill:#d6d6d6;fill-opacity:1;fill-rule:nonzero;stroke:#d6d6d6;stroke-width:1;stroke-linecap:butt;stroke-linejoin:miter;stroke-miterlimit:10;stroke-dasharray:none;stroke-opacity:1"
       transform="matrix(0.15969889,0,0,-0.15931539,19.365875,1547.0518)"
       clip-path="url(#clipPath10)" />
    <path
       id="path11"
       d="m 2826,4169 h 138 l -499,1109 z m 138,0 -499,1109 h 499 z"
       style="fill:#d6d6d6;fill-opacity:1;fill-rule:nonzero;stroke:#d6d6d6;stroke-width:1;stroke-linecap:butt;stroke-linejoin:miter;stroke-miterlimit:10;stroke-dasharray:none;stroke-opacity:1"
       transform="matrix(0.15969889,0,0,-0.15931539,19.365875,1547.0518)"
       clip-path="url(#clipPath12)" />
    <path
       id="path13"
       d="M 390.98518,882.86598 V 706.18522"
       style="fill:none;stroke:#000000;stroke-width:0.957042;stroke-linecap:round;stroke-linejoin:round;stroke-miterlimit:10;stroke-dasharray:none;stroke-opacity:1" />
    <path
       id="path14"
       d="M 492.71338,706.18522 V 882.86598 706.18522"
       style="fill:none;stroke:#000000;stroke-width:0.957042;stroke-linecap:round;stroke-linejoin:round;stroke-miterlimit:10;stroke-dasharray:none;stroke-opacity:1" />
    <path
       id="path15"
       d="M 594.44157,706.18522 V 882.86598 706.18522"
       style="fill:none;stroke:#000000;stroke-width:0.957042;stroke-linecap:round;stroke-linejoin:round;stroke-miterlimit:10;stroke-dasharray:none;stroke-opacity:1" />
    <path
       id="path16"
       d="M 696.32946,706.18522 V 882.86598"
       style="fill:none;stroke:#000000;stroke-width:0.957042;stroke-linecap:round;stroke-linejoin:round;stroke-miterlimit:10;stroke-dasharray:none;stroke-opacity:1" />
    <path
       id="path17"
       d="M 390.98518,709.84948 H 696.32946"
       style="fill:none;stroke:#000000;stroke-width:0.957042;stroke-linecap:round;stroke-linejoin:round;stroke-miterlimit:10;stroke-dasharray:none;stroke-opacity:1" />
    <path
       id="path18"
       d="M 390.98518,800.1813 H 696.32946"
       style="fill:none;stroke:#000000;stroke-width:0.957042;stroke-linecap:round;stroke-linejoin:round;stroke-miterlimit:10;stroke-dasharray:none;stroke-opacity:1" />
    <path
       id="path19"
       d="M 390.98518,879.20172 H 696.32946"
       style="fill:none;stroke:#000000;stroke-width:0.957042;stroke-linecap:round;stroke-linejoin:round;stroke-miterlimit:10;stroke-dasharray:none;stroke-opacity:1" />
    <path
       id="path20"
       d="m 4093,4664 h -346 l 346,-212 z m -346,0 346,-212 h -346 z"
       style="fill:#333333;fill-opacity:1;fill-rule:nonzero;stroke:#333333;stroke-width:1;stroke-linecap:round;stroke-linejoin:miter;stroke-miterlimit:10;stroke-dasharray:none;stroke-opacity:1"
       transform="matrix(0.15969889,0,0,-0.15931539,19.365875,1547.0518)"
       clip-path="url(#clipPath21)" />
    <path
       id="path22"
       d="m 3456,4664 h -346 l 346,-212 z m -346,0 346,-212 h -346 z"
       style="fill:#333333;fill-opacity:1;fill-rule:nonzero;stroke:#333333;stroke-width:1;stroke-linecap:round;stroke-linejoin:miter;stroke-miterlimit:10;stroke-dasharray:none;stroke-opacity:1"
       transform="matrix(0.15969889,0,0,-0.15931539,19.365875,1547.0518)"
       clip-path="url(#clipPath23)" />
    <path
       id="path24"
       d="m 2818,4664 h -346 l 346,-212 z m -346,0 346,-212 h -346 z"
       style="fill:#333333;fill-opacity:1;fill-rule:nonzero;stroke:#333333;stroke-width:1;stroke-linecap:round;stroke-linejoin:miter;stroke-miterlimit:10;stroke-dasharray:none;stroke-opacity:1"
       transform="matrix(0.15969889,0,0,-0.15931539,19.365875,1547.0518)"
       clip-path="url(#clipPath25)" />
    <path
       id="path26"
       d="M 4239,4452 H 2327 l 1912,-50 z m -1912,0 1912,-50 H 2327 Z"
       style="fill:#333333;fill-opacity:1;fill-rule:nonzero;stroke:#333333;stroke-width:1;stroke-linecap:round;stroke-linejoin:miter;stroke-miterlimit:10;stroke-dasharray:none;stroke-opacity:1"
       transform="matrix(0.15969889,0,0,-0.15931539,19.365875,1547.0518)"
       clip-path="url(#clipPath27)" />
    <path
       id="path28"
       d="M 4239,4341 H 2327 l 1912,-54 z m -1912,0 1912,-54 H 2327 Z"
       style="fill:#333333;fill-opacity:1;fill-rule:nonzero;stroke:#333333;stroke-width:1;stroke-linecap:round;stroke-linejoin:miter;stroke-miterlimit:10;stroke-dasharray:none;stroke-opacity:1"
       transform="matrix(0.15969889,0,0,-0.15931539,19.365875,1547.0518)"
       clip-path="url(#clipPath29)" />
    <path
       id="path30"
       d="M 696.32946,864.06677 V 837.77972 H 390.98518 v 26.28705 h 305.34428"
       style="fill:none;stroke:#000000;stroke-width:0.957042;stroke-linecap:round;stroke-linejoin:round;stroke-miterlimit:10;stroke-dasharray:none;stroke-opacity:1" />
    <path
       id="path31"
       d="M 4239,4402 H 2327 l 1912,-61 z m -1912,0 1912,-61 H 2327 Z"
       style="fill:#adadad;fill-opacity:1;fill-rule:nonzero;stroke:#adadad;stroke-width:1;stroke-linecap:round;stroke-linejoin:miter;stroke-miterlimit:10;stroke-dasharray:none;stroke-opacity:1"
       transform="matrix(0.15969889,0,0,-0.15931539,19.365875,1547.0518)"
       clip-path="url(#clipPath32)" />
    <path
       id="path33"
       d="m 390.98518,845.74549 h 305.34428 v 9.71824 H 390.98518 v -9.71824"
       style="fill:none;stroke:#000000;stroke-width:0.957042;stroke-linecap:round;stroke-linejoin:round;stroke-miterlimit:10;stroke-dasharray:none;stroke-opacity:1" />
    <path
       id="path34"
       d="m 414.14152,804.00487 h 55.25582 v 33.77485 h -55.25582 v -33.77485"
       style="fill:none;stroke:#000000;stroke-width:0.957042;stroke-linecap:round;stroke-linejoin:round;stroke-miterlimit:10;stroke-dasharray:none;stroke-opacity:1" />
    <path
       id="path35"
       d="m 516.02942,804.00487 h 55.25581 v 33.77485 h -55.25581 v -33.77485"
       style="fill:none;stroke:#000000;stroke-width:0.957042;stroke-linecap:round;stroke-linejoin:round;stroke-miterlimit:10;stroke-dasharray:none;stroke-opacity:1" />
    <path
       id="path36"
       d="m 617.75761,804.00487 h 55.25581 v 33.77485 h -55.25581 v -33.77485"
       style="fill:none;stroke:#000000;stroke-width:0.957042;stroke-linecap:round;stroke-linejoin:round;stroke-miterlimit:10;stroke-dasharray:none;stroke-opacity:1" />
    <path
       id="path37"
       d="m 4204,5219 h -567 l 567,-35 z m -567,0 567,-35 h -567 z"
       style="fill:#007f1f;fill-opacity:1;fill-rule:nonzero;stroke:#007f1f;stroke-width:1;stroke-linecap:round;stroke-linejoin:miter;stroke-miterlimit:10;stroke-dasharray:none;stroke-opacity:1"
       transform="matrix(0.15969889,0,0,-0.15931539,19.365875,1547.0518)"
       clip-path="url(#clipPath38)" />
    <path
       id="path39"
       d="m 3566,5219 h -567 l 567,-35 z m -567,0 567,-35 h -567 z"
       style="fill:#007f1f;fill-opacity:1;fill-rule:nonzero;stroke:#007f1f;stroke-width:1;stroke-linecap:round;stroke-linejoin:miter;stroke-miterlimit:10;stroke-dasharray:none;stroke-opacity:1"
       transform="matrix(0.15969889,0,0,-0.15931539,19.365875,1547.0518)"
       clip-path="url(#clipPath40)" />
    <path
       id="path41"
       d="m 2929,5219 h -567 l 567,-35 z m -567,0 567,-35 h -567 z"
       style="fill:#007f1f;fill-opacity:1;fill-rule:nonzero;stroke:#007f1f;stroke-width:1;stroke-linecap:round;stroke-linejoin:miter;stroke-miterlimit:10;stroke-dasharray:none;stroke-opacity:1"
       transform="matrix(0.15969889,0,0,-0.15931539,19.365875,1547.0518)"
       clip-path="url(#clipPath42)" />
    <path
       id="path43"
       d="m 4093,4688 h -346 l 346,-24 z m -346,0 346,-24 h -346 z"
       style="fill:#007f1f;fill-opacity:1;fill-rule:nonzero;stroke:#007f1f;stroke-width:1;stroke-linecap:round;stroke-linejoin:miter;stroke-miterlimit:10;stroke-dasharray:none;stroke-opacity:1"
       transform="matrix(0.15969889,0,0,-0.15931539,19.365875,1547.0518)"
       clip-path="url(#clipPath44)" />
    <path
       id="path45"
       d="m 3456,4688 h -346 l 346,-24 z m -346,0 346,-24 h -346 z"
       style="fill:#007f1f;fill-opacity:1;fill-rule:nonzero;stroke:#007f1f;stroke-width:1;stroke-linecap:round;stroke-linejoin:miter;stroke-miterlimit:10;stroke-dasharray:none;stroke-opacity:1"
       transform="matrix(0.15969889,0,0,-0.15931539,19.365875,1547.0518)"
       clip-path="url(#clipPath46)" />
    <path
       id="path47"
       d="m 2818,4688 h -346 l 346,-24 z m -346,0 346,-24 h -346 z"
       style="fill:#007f1f;fill-opacity:1;fill-rule:nonzero;stroke:#007f1f;stroke-width:1;stroke-linecap:round;stroke-linejoin:miter;stroke-miterlimit:10;stroke-dasharray:none;stroke-opacity:1"
       transform="matrix(0.15969889,0,0,-0.15931539,19.365875,1547.0518)"
       clip-path="url(#clipPath48)" />
    <path
       id="path49"
       d="m 396.57465,715.58483 h 90.54927 v 5.57603 h -90.54927 v -5.57603"
       style="fill:none;stroke:#000000;stroke-width:0.957042;stroke-linecap:round;stroke-linejoin:round;stroke-miterlimit:10;stroke-dasharray:none;stroke-opacity:1" />
    <path
       id="path50"
       d="m 414.14152,800.1813 h 55.25582 v 3.82357 h -55.25582 v -3.82357"
       style="fill:none;stroke:#000000;stroke-width:0.957042;stroke-linecap:round;stroke-linejoin:round;stroke-miterlimit:10;stroke-dasharray:none;stroke-opacity:1" />
    <path
       id="path51"
       d="m 498.30284,715.58483 h 90.54927 v 5.57603 h -90.54927 v -5.57603"
       style="fill:none;stroke:#000000;stroke-width:0.957042;stroke-linecap:round;stroke-linejoin:round;stroke-miterlimit:10;stroke-dasharray:none;stroke-opacity:1" />
    <path
       id="path52"
       d="m 516.02942,800.1813 h 55.25581 v 3.82357 h -55.25581 v -3.82357"
       style="fill:none;stroke:#000000;stroke-width:0.957042;stroke-linecap:round;stroke-linejoin:round;stroke-miterlimit:10;stroke-dasharray:none;stroke-opacity:1" />
    <path
       id="path53"
       d="M 600.19073,715.58483 H 690.74 v 5.57603 h -90.54927 v -5.57603"
       style="fill:none;stroke:#000000;stroke-width:0.957042;stroke-linecap:round;stroke-linejoin:round;stroke-miterlimit:10;stroke-dasharray:none;stroke-opacity:1" />
    <path
       id="path54"
       d="m 617.75761,800.1813 h 55.25581 v 3.82357 h -55.25581 v -3.82357"
       style="fill:none;stroke:#000000;stroke-width:0.957042;stroke-linecap:round;stroke-linejoin:round;stroke-miterlimit:10;stroke-dasharray:none;stroke-opacity:1" />
    <path
       id="path55"
       d="m 4239,4169 h 166 l -166,1109 z m 166,0 -166,1109 h 46 z"
       style="fill:#d6d6d6;fill-opacity:1;fill-rule:nonzero;stroke:#d6d6d6;stroke-width:1;stroke-linecap:round;stroke-linejoin:miter;stroke-miterlimit:10;stroke-dasharray:none;stroke-opacity:1"
       transform="matrix(0.15969889,0,0,-0.15931539,19.365875,1547.0518)"
       clip-path="url(#clipPath56)" />
    <path
       id="path57"
       d="m 4405,4169 h 46 l -166,1109 z m 46,0 -166,1109 h 166 z"
       style="fill:#d6d6d6;fill-opacity:1;fill-rule:nonzero;stroke:#d6d6d6;stroke-width:1;stroke-linecap:round;stroke-linejoin:miter;stroke-miterlimit:10;stroke-dasharray:none;stroke-opacity:1"
       transform="matrix(0.15969889,0,0,-0.15931539,19.365875,1547.0518)"
       clip-path="url(#clipPath58)" />
    <path
       id="path59"
       d="M 730.18563,706.18522 V 882.86598"
       style="fill:none;stroke:#000000;stroke-width:0.957042;stroke-linecap:round;stroke-linejoin:round;stroke-miterlimit:10;stroke-dasharray:none;stroke-opacity:1" />
    <path
       id="path60"
       d="M 696.32946,882.86598 V 706.18522"
       style="fill:none;stroke:#000000;stroke-width:0.957042;stroke-linecap:round;stroke-linejoin:round;stroke-miterlimit:10;stroke-dasharray:none;stroke-opacity:1" />
    <path
       id="path61"
       d="m 696.32946,709.84948 h 33.85617"
       style="fill:none;stroke:#000000;stroke-width:0.957042;stroke-linecap:round;stroke-linejoin:round;stroke-miterlimit:10;stroke-dasharray:none;stroke-opacity:1" />
    <path
       id="path62"
       d="m 696.32946,879.20172 h 33.85617"
       style="fill:none;stroke:#000000;stroke-width:0.957042;stroke-linecap:round;stroke-linejoin:round;stroke-miterlimit:10;stroke-dasharray:none;stroke-opacity:1" />
    <path
       id="path63"
       d="m 4451,5219 h -212 l 212,-35 z m -212,0 212,-35 h -212 z"
       style="fill:#007f1f;fill-opacity:1;fill-rule:nonzero;stroke:#007f1f;stroke-width:1;stroke-linecap:round;stroke-linejoin:miter;stroke-miterlimit:10;stroke-dasharray:none;stroke-opacity:1"
       transform="matrix(0.15969889,0,0,-0.15931539,19.365875,1547.0518)"
       clip-path="url(#clipPath64)" />
    <path
       id="path65"
       d="m 696.32946,715.58483 h 33.85617 v 5.57603 h -33.85617 v -5.57603"
       style="fill:none;stroke:#000000;stroke-width:0.957042;stroke-linecap:round;stroke-linejoin:round;stroke-miterlimit:10;stroke-dasharray:none;stroke-opacity:1" />
  </g>
  <g
     id="layer-oc3"
     inkscape:groupmode="layer"
     inkscape:label="Screws"
     transform="translate(-390.50667,-705.70673)">
    <path
       id="path66"
       d="m 713.25754,706.18522 v 0"
       style="fill:none;stroke:#000000;stroke-width:0.957042;stroke-linecap:round;stroke-linejoin:round;stroke-miterlimit:10;stroke-dasharray:none;stroke-opacity:1" />
    <path
       id="path67"
       d="m 713.41725,882.86598 h -0.15971 -0.1597"
       style="fill:none;stroke:#000000;stroke-width:0.957042;stroke-linecap:round;stroke-linejoin:round;stroke-miterlimit:10;stroke-dasharray:none;stroke-opacity:1" />
  </g>
  <g
     id="layer-oc4"
     inkscape:groupmode="layer"
     inkscape:label="0"
     transform="translate(-390.50667,-705.70673)">
    <path
       id="path68"
       d="M 730.18563,706.18522 H 390.98518"
       style="fill:none;stroke:#ffffff;stroke-width:0.159507;stroke-linecap:round;stroke-linejoin:round;stroke-miterlimit:10;stroke-dasharray:none;stroke-opacity:1" />
    <path
       id="path69"
       d="M 730.18563,706.18522 H 390.98518"
       style="fill:none;stroke:#000000;stroke-width:0.957042;stroke-linecap:round;stroke-linejoin:round;stroke-miterlimit:10;stroke-dasharray:none;stroke-opacity:1" />
    <path
       id="path70"
       d="M 730.18563,882.86598 H 390.98518"
       style="fill:none;stroke:#ffffff;stroke-width:0.159507;stroke-linecap:round;stroke-linejoin:round;stroke-miterlimit:10;stroke-dasharray:none;stroke-opacity:1" />
    <path
       id="path71"
       d="M 730.18563,882.86598 H 390.98518"
       style="fill:none;stroke:#000000;stroke-width:0.957042;stroke-linecap:round;stroke-linejoin:round;stroke-miterlimit:10;stroke-dasharray:none;stroke-opacity:1" />
  </g>
</svg>
