<?xml version="1.0" encoding="UTF-8" standalone="no"?>
<!-- Created with Inkscape (http://www.inkscape.org/) -->

<svg
   version="1.1"
   id="svg1"
   width="136.06297"
   height="177.63776"
   viewBox="0 0 136.06297 177.63776"
   sodipodi:docname="Schneider 2-63A 2P MCB.pdf"
   xmlns:inkscape="http://www.inkscape.org/namespaces/inkscape"
   xmlns:sodipodi="http://sodipodi.sourceforge.net/DTD/sodipodi-0.dtd"
   xmlns="http://www.w3.org/2000/svg"
   xmlns:svg="http://www.w3.org/2000/svg">
  <defs
     id="defs1">
    <clipPath
       clipPathUnits="userSpaceOnUse"
       id="clipPath2">
      <path
         d="m 2965,4169 h 850 V 5279 H 2965 V 4169"
         transform="translate(-2.0833333e-6,2.0833333e-4)"
         id="path2" />
    </clipPath>
    <clipPath
       clipPathUnits="userSpaceOnUse"
       id="clipPath4">
      <path
         d="m 2965,4169 h 850 V 5279 H 2965 V 4169"
         transform="translate(-2.0833333e-6,2.0833333e-4)"
         id="path4" />
    </clipPath>
    <clipPath
       clipPathUnits="userSpaceOnUse"
       id="clipPath6">
      <path
         d="m 2965,4169 h 850 V 5279 H 2965 V 4169"
         transform="translate(-2.0833333e-6,2.0833333e-4)"
         id="path6" />
    </clipPath>
    <clipPath
       clipPathUnits="userSpaceOnUse"
       id="clipPath8">
      <path
         d="m 2965,4169 h 850 V 5279 H 2965 V 4169"
         transform="translate(-2.0833333e-6,2.0833333e-4)"
         id="path8" />
    </clipPath>
    <clipPath
       clipPathUnits="userSpaceOnUse"
       id="clipPath14">
      <path
         d="m 2965,4169 h 850 V 5279 H 2965 V 4169"
         transform="translate(-2.0833333e-6,2.0833333e-4)"
         id="path14" />
    </clipPath>
    <clipPath
       clipPathUnits="userSpaceOnUse"
       id="clipPath16">
      <path
         d="m 2965,4169 h 850 V 5279 H 2965 V 4169"
         transform="translate(-2.0833333e-6,2.0833333e-4)"
         id="path16" />
    </clipPath>
    <clipPath
       clipPathUnits="userSpaceOnUse"
       id="clipPath18">
      <path
         d="m 2965,4169 h 850 V 5279 H 2965 V 4169"
         transform="translate(-2.0833333e-6,2.0833333e-4)"
         id="path18" />
    </clipPath>
    <clipPath
       clipPathUnits="userSpaceOnUse"
       id="clipPath20">
      <path
         d="m 2965,4169 h 850 V 5279 H 2965 V 4169"
         transform="translate(-2.0833333e-6,2.0833333e-4)"
         id="path20" />
    </clipPath>
    <clipPath
       clipPathUnits="userSpaceOnUse"
       id="clipPath22">
      <path
         d="m 2965,4169 h 850 V 5279 H 2965 V 4169"
         transform="translate(-2.0833333e-6,2.0833333e-4)"
         id="path22" />
    </clipPath>
    <clipPath
       clipPathUnits="userSpaceOnUse"
       id="clipPath24">
      <path
         d="m 2965,4169 h 850 V 5279 H 2965 V 4169"
         transform="translate(-2.0833333e-6,2.0833333e-4)"
         id="path24" />
    </clipPath>
    <clipPath
       clipPathUnits="userSpaceOnUse"
       id="clipPath26">
      <path
         d="m 2965,4169 h 850 V 5279 H 2965 V 4169"
         transform="translate(-2.0833333e-6,2.0833333e-4)"
         id="path26" />
    </clipPath>
    <clipPath
       clipPathUnits="userSpaceOnUse"
       id="clipPath28">
      <path
         d="m 2965,4169 h 850 V 5279 H 2965 V 4169"
         transform="translate(-2.0833333e-6,2.0833333e-4)"
         id="path28" />
    </clipPath>
    <clipPath
       clipPathUnits="userSpaceOnUse"
       id="clipPath33">
      <path
         d="m 2965,4169 h 850 V 5279 H 2965 V 4169"
         transform="translate(-2.0833333e-6,2.0833333e-4)"
         id="path33" />
    </clipPath>
    <clipPath
       clipPathUnits="userSpaceOnUse"
       id="clipPath36">
      <path
         d="m 2965,4169 h 850 V 5279 H 2965 V 4169"
         transform="translate(-2.0833333e-6,2.0833333e-4)"
         id="path36" />
    </clipPath>
    <clipPath
       clipPathUnits="userSpaceOnUse"
       id="clipPath42">
      <path
         d="m 2965,4169 h 850 V 5279 H 2965 V 4169"
         transform="translate(-2.0833333e-6,2.0833333e-4)"
         id="path42" />
    </clipPath>
    <clipPath
       clipPathUnits="userSpaceOnUse"
       id="clipPath46">
      <path
         d="m 2965,4169 h 850 V 5279 H 2965 V 4169"
         transform="translate(-2.0833333e-6,2.0833333e-4)"
         id="path46" />
    </clipPath>
    <clipPath
       clipPathUnits="userSpaceOnUse"
       id="clipPath50">
      <path
         d="m 2965,4169 h 850 V 5279 H 2965 V 4169"
         transform="translate(-2.0833333e-6,2.0833333e-4)"
         id="path50" />
    </clipPath>
  </defs>
  <sodipodi:namedview
     id="namedview1"
     pagecolor="#505050"
     bordercolor="#eeeeee"
     borderopacity="1"
     inkscape:showpageshadow="0"
     inkscape:pageopacity="0"
     inkscape:pagecheckerboard="0"
     inkscape:deskcolor="#505050" />
  <g
     id="layer-oc2"
     inkscape:groupmode="layer"
     inkscape:label="Breakers"
     transform="translate(-492.58666,-705.70673)">
    <path
       id="path1"
       d="m 3390,4169 h 332 l -332,1109 z m 332,0 -332,1109 h 92 z"
       style="fill:#d6d6d6;fill-opacity:1;fill-rule:nonzero;stroke:#d6d6d6;stroke-width:1;stroke-linecap:butt;stroke-linejoin:miter;stroke-miterlimit:10;stroke-dasharray:none;stroke-opacity:1"
       transform="matrix(0.15913738,0,0,-0.15931689,21.222035,1547.0589)"
       clip-path="url(#clipPath2)" />
    <path
       id="path3"
       d="m 3722,4169 h 92 l -332,1109 z m 92,0 -332,1109 h 332 z"
       style="fill:#d6d6d6;fill-opacity:1;fill-rule:nonzero;stroke:#d6d6d6;stroke-width:1;stroke-linecap:butt;stroke-linejoin:miter;stroke-miterlimit:10;stroke-dasharray:none;stroke-opacity:1"
       transform="matrix(0.15913738,0,0,-0.15931689,21.222035,1547.0589)"
       clip-path="url(#clipPath4)" />
    <path
       id="path5"
       d="m 2965,4169 h 332 l -332,1109 z m 332,0 -332,1109 h 92 z"
       style="fill:#d6d6d6;fill-opacity:1;fill-rule:nonzero;stroke:#d6d6d6;stroke-width:1;stroke-linecap:butt;stroke-linejoin:miter;stroke-miterlimit:10;stroke-dasharray:none;stroke-opacity:1"
       transform="matrix(0.15913738,0,0,-0.15931689,21.222035,1547.0589)"
       clip-path="url(#clipPath6)" />
    <path
       id="path7"
       d="m 3297,4169 h 93 l -333,1109 z m 93,0 -333,1109 h 333 z"
       style="fill:#d6d6d6;fill-opacity:1;fill-rule:nonzero;stroke:#d6d6d6;stroke-width:1;stroke-linecap:butt;stroke-linejoin:miter;stroke-miterlimit:10;stroke-dasharray:none;stroke-opacity:1"
       transform="matrix(0.15913738,0,0,-0.15931689,21.222035,1547.0589)"
       clip-path="url(#clipPath8)" />
    <path
       id="path9"
       d="M 560.69773,706.18438 V 882.86681"
       style="fill:none;stroke:#000000;stroke-width:0.955363;stroke-linecap:round;stroke-linejoin:round;stroke-miterlimit:10;stroke-dasharray:none;stroke-opacity:1" />
    <path
       id="path10"
       d="M 493.06435,882.86681 V 706.18438"
       style="fill:none;stroke:#000000;stroke-width:0.955363;stroke-linecap:round;stroke-linejoin:round;stroke-miterlimit:10;stroke-dasharray:none;stroke-opacity:1" />
    <path
       id="path11"
       d="M 628.17198,706.18438 V 882.86681"
       style="fill:none;stroke:#000000;stroke-width:0.955363;stroke-linecap:round;stroke-linejoin:round;stroke-miterlimit:10;stroke-dasharray:none;stroke-opacity:1" />
    <path
       id="path12"
       d="M 560.69773,882.86681 V 706.18438"
       style="fill:none;stroke:#000000;stroke-width:0.955363;stroke-linecap:round;stroke-linejoin:round;stroke-miterlimit:10;stroke-dasharray:none;stroke-opacity:1" />
    <path
       id="path13"
       d="m 3717,4664 h -230 l 230,-212 z m -230,0 230,-212 h -230 z"
       style="fill:#333333;fill-opacity:1;fill-rule:nonzero;stroke:#333333;stroke-width:1;stroke-linecap:round;stroke-linejoin:miter;stroke-miterlimit:10;stroke-dasharray:none;stroke-opacity:1"
       transform="matrix(0.15913738,0,0,-0.15931689,21.222035,1547.0589)"
       clip-path="url(#clipPath14)" />
    <path
       id="path15"
       d="m 3292,4664 h -230 l 230,-212 z m -230,0 230,-212 h -230 z"
       style="fill:#333333;fill-opacity:1;fill-rule:nonzero;stroke:#333333;stroke-width:1;stroke-linecap:round;stroke-linejoin:miter;stroke-miterlimit:10;stroke-dasharray:none;stroke-opacity:1"
       transform="matrix(0.15913738,0,0,-0.15931689,21.222035,1547.0589)"
       clip-path="url(#clipPath16)" />
    <path
       id="path17"
       d="m 3814,4452 h -424 l 424,-50 z m -424,0 424,-50 h -424 z"
       style="fill:#333333;fill-opacity:1;fill-rule:nonzero;stroke:#333333;stroke-width:1;stroke-linecap:round;stroke-linejoin:miter;stroke-miterlimit:10;stroke-dasharray:none;stroke-opacity:1"
       transform="matrix(0.15913738,0,0,-0.15931689,21.222035,1547.0589)"
       clip-path="url(#clipPath18)" />
    <path
       id="path19"
       d="m 3390,4452 h -425 l 425,-50 z m -425,0 425,-50 h -425 z"
       style="fill:#333333;fill-opacity:1;fill-rule:nonzero;stroke:#333333;stroke-width:1;stroke-linecap:round;stroke-linejoin:miter;stroke-miterlimit:10;stroke-dasharray:none;stroke-opacity:1"
       transform="matrix(0.15913738,0,0,-0.15931689,21.222035,1547.0589)"
       clip-path="url(#clipPath20)" />
    <path
       id="path21"
       d="m 3814,4402 h -141 l 141,-61 z m -141,0 141,-61 h -141 z"
       style="fill:#333333;fill-opacity:1;fill-rule:nonzero;stroke:#333333;stroke-width:1;stroke-linecap:round;stroke-linejoin:miter;stroke-miterlimit:10;stroke-dasharray:none;stroke-opacity:1"
       transform="matrix(0.15913738,0,0,-0.15931689,21.222035,1547.0589)"
       clip-path="url(#clipPath22)" />
    <path
       id="path23"
       d="m 3106,4402 h -141 l 141,-61 z m -141,0 141,-61 h -141 z"
       style="fill:#333333;fill-opacity:1;fill-rule:nonzero;stroke:#333333;stroke-width:1;stroke-linecap:round;stroke-linejoin:miter;stroke-miterlimit:10;stroke-dasharray:none;stroke-opacity:1"
       transform="matrix(0.15913738,0,0,-0.15931689,21.222035,1547.0589)"
       clip-path="url(#clipPath24)" />
    <path
       id="path25"
       d="m 3814,4341 h -424 l 424,-54 z m -424,0 424,-54 h -424 z"
       style="fill:#333333;fill-opacity:1;fill-rule:nonzero;stroke:#333333;stroke-width:1;stroke-linecap:round;stroke-linejoin:miter;stroke-miterlimit:10;stroke-dasharray:none;stroke-opacity:1"
       transform="matrix(0.15913738,0,0,-0.15931689,21.222035,1547.0589)"
       clip-path="url(#clipPath26)" />
    <path
       id="path27"
       d="m 3390,4341 h -425 l 425,-54 z m -425,0 425,-54 h -425 z"
       style="fill:#333333;fill-opacity:1;fill-rule:nonzero;stroke:#333333;stroke-width:1;stroke-linecap:round;stroke-linejoin:miter;stroke-miterlimit:10;stroke-dasharray:none;stroke-opacity:1"
       transform="matrix(0.15913738,0,0,-0.15931689,21.222035,1547.0589)"
       clip-path="url(#clipPath28)" />
    <path
       id="path29"
       d="M 493.06435,709.84867 H 628.17198"
       style="fill:none;stroke:#000000;stroke-width:0.955363;stroke-linecap:round;stroke-linejoin:round;stroke-miterlimit:10;stroke-dasharray:none;stroke-opacity:1" />
    <path
       id="path30"
       d="M 493.06435,800.18134 H 628.17198"
       style="fill:none;stroke:#000000;stroke-width:0.955363;stroke-linecap:round;stroke-linejoin:round;stroke-miterlimit:10;stroke-dasharray:none;stroke-opacity:1" />
    <path
       id="path31"
       d="M 493.06435,879.20253 H 628.17198"
       style="fill:none;stroke:#000000;stroke-width:0.955363;stroke-linecap:round;stroke-linejoin:round;stroke-miterlimit:10;stroke-dasharray:none;stroke-opacity:1" />
    <path
       id="path32"
       d="m 3366,5219 h -378 l 378,-35 z m -378,0 378,-35 h -378 z"
       style="fill:#007f1f;fill-opacity:1;fill-rule:nonzero;stroke:#007f1f;stroke-width:1;stroke-linecap:round;stroke-linejoin:miter;stroke-miterlimit:10;stroke-dasharray:none;stroke-opacity:1"
       transform="matrix(0.15913738,0,0,-0.15931689,21.222035,1547.0589)"
       clip-path="url(#clipPath33)" />
    <path
       id="path34"
       d="m 496.72451,715.58407 h 60.15393 v 5.5761 h -60.15393 v -5.5761"
       style="fill:none;stroke:#000000;stroke-width:0.955363;stroke-linecap:round;stroke-linejoin:round;stroke-miterlimit:10;stroke-dasharray:none;stroke-opacity:1" />
    <path
       id="path35"
       d="m 3791,5219 h -378 l 378,-35 z m -378,0 378,-35 h -378 z"
       style="fill:#007f1f;fill-opacity:1;fill-rule:nonzero;stroke:#007f1f;stroke-width:1;stroke-linecap:round;stroke-linejoin:miter;stroke-miterlimit:10;stroke-dasharray:none;stroke-opacity:1"
       transform="matrix(0.15913738,0,0,-0.15931689,21.222035,1547.0589)"
       clip-path="url(#clipPath36)" />
    <path
       id="path37"
       d="m 564.35789,715.58407 h 60.15393 v 5.5761 h -60.15393 v -5.5761"
       style="fill:none;stroke:#000000;stroke-width:0.955363;stroke-linecap:round;stroke-linejoin:round;stroke-miterlimit:10;stroke-dasharray:none;stroke-opacity:1" />
    <path
       id="path38"
       d="M 493.06435,864.06742 H 628.17198"
       style="fill:none;stroke:#000000;stroke-width:0.955363;stroke-linecap:round;stroke-linejoin:round;stroke-miterlimit:10;stroke-dasharray:none;stroke-opacity:1" />
    <path
       id="path39"
       d="M 493.06435,837.78013 H 628.17198"
       style="fill:none;stroke:#000000;stroke-width:0.955363;stroke-linecap:round;stroke-linejoin:round;stroke-miterlimit:10;stroke-dasharray:none;stroke-opacity:1" />
    <path
       id="path40"
       d="m 508.50068,804.00495 h 36.60159 v 33.77518 h -36.60159 v -33.77518"
       style="fill:none;stroke:#000000;stroke-width:0.955363;stroke-linecap:round;stroke-linejoin:round;stroke-miterlimit:10;stroke-dasharray:none;stroke-opacity:1" />
    <path
       id="path41"
       d="m 3292,4688 h -230 l 230,-24 z m -230,0 230,-24 h -230 z"
       style="fill:#007f1f;fill-opacity:1;fill-rule:nonzero;stroke:#007f1f;stroke-width:1;stroke-linecap:round;stroke-linejoin:miter;stroke-miterlimit:10;stroke-dasharray:none;stroke-opacity:1"
       transform="matrix(0.15913738,0,0,-0.15931689,21.222035,1547.0589)"
       clip-path="url(#clipPath42)" />
    <path
       id="path43"
       d="m 508.50068,800.18134 h 36.60159 v 3.82361 h -36.60159 v -3.82361"
       style="fill:none;stroke:#000000;stroke-width:0.955363;stroke-linecap:round;stroke-linejoin:round;stroke-miterlimit:10;stroke-dasharray:none;stroke-opacity:1" />
    <path
       id="path44"
       d="m 493.06435,837.78013 h 135.10763 v 26.28729 H 493.06435 v -26.28729"
       style="fill:none;stroke:#000000;stroke-width:0.955363;stroke-linecap:round;stroke-linejoin:round;stroke-miterlimit:10;stroke-dasharray:none;stroke-opacity:1" />
    <path
       id="path45"
       d="m 3673,4402 h -567 l 567,-61 z m -567,0 567,-61 h -567 z"
       style="fill:#adadad;fill-opacity:1;fill-rule:nonzero;stroke:#adadad;stroke-width:1;stroke-linecap:round;stroke-linejoin:miter;stroke-miterlimit:10;stroke-dasharray:none;stroke-opacity:1"
       transform="matrix(0.15913738,0,0,-0.15931689,21.222035,1547.0589)"
       clip-path="url(#clipPath46)" />
    <path
       id="path47"
       d="m 515.50272,845.74598 h 90.23089 v 9.71833 h -90.23089 v -9.71833"
       style="fill:none;stroke:#000000;stroke-width:0.955363;stroke-linecap:round;stroke-linejoin:round;stroke-miterlimit:10;stroke-dasharray:none;stroke-opacity:1" />
    <path
       id="path48"
       d="m 576.13405,804.00495 h 36.60161 v 33.77518 h -36.60161 v -33.77518"
       style="fill:none;stroke:#000000;stroke-width:0.955363;stroke-linecap:round;stroke-linejoin:round;stroke-miterlimit:10;stroke-dasharray:none;stroke-opacity:1" />
    <path
       id="path49"
       d="m 3717,4688 h -230 l 230,-24 z m -230,0 230,-24 h -230 z"
       style="fill:#007f1f;fill-opacity:1;fill-rule:nonzero;stroke:#007f1f;stroke-width:1;stroke-linecap:round;stroke-linejoin:miter;stroke-miterlimit:10;stroke-dasharray:none;stroke-opacity:1"
       transform="matrix(0.15913738,0,0,-0.15931689,21.222035,1547.0589)"
       clip-path="url(#clipPath50)" />
    <path
       id="path51"
       d="m 576.13405,800.18134 h 36.60161 v 3.82361 h -36.60161 v -3.82361"
       style="fill:none;stroke:#000000;stroke-width:0.955363;stroke-linecap:round;stroke-linejoin:round;stroke-miterlimit:10;stroke-dasharray:none;stroke-opacity:1" />
  </g>
  <g
     id="layer-oc4"
     inkscape:groupmode="layer"
     inkscape:label="0"
     transform="translate(-492.58666,-705.70673)">
    <path
       id="path52"
       d="M 628.17198,706.18438 H 493.06435"
       style="fill:none;stroke:#ffffff;stroke-width:0.159227;stroke-linecap:round;stroke-linejoin:round;stroke-miterlimit:10;stroke-dasharray:none;stroke-opacity:1" />
    <path
       id="path53"
       d="M 628.17198,706.18438 H 493.06435"
       style="fill:none;stroke:#000000;stroke-width:0.955363;stroke-linecap:round;stroke-linejoin:round;stroke-miterlimit:10;stroke-dasharray:none;stroke-opacity:1" />
    <path
       id="path54"
       d="M 628.17198,882.86681 H 493.06435"
       style="fill:none;stroke:#ffffff;stroke-width:0.159227;stroke-linecap:round;stroke-linejoin:round;stroke-miterlimit:10;stroke-dasharray:none;stroke-opacity:1" />
    <path
       id="path55"
       d="M 628.17198,882.86681 H 493.06435"
       style="fill:none;stroke:#000000;stroke-width:0.955363;stroke-linecap:round;stroke-linejoin:round;stroke-miterlimit:10;stroke-dasharray:none;stroke-opacity:1" />
  </g>
</svg>
