<?xml version="1.0" encoding="UTF-8" standalone="no"?>
<!-- Created with Inkscape (http://www.inkscape.org/) -->

<svg
   version="1.1"
   id="svg1"
   width="272.12601"
   height="177.63776"
   viewBox="0 0 272.126 177.63776"
   sodipodi:docname="Schneider 2-63A 4P MCB.pdf"
   xmlns:inkscape="http://www.inkscape.org/namespaces/inkscape"
   xmlns:sodipodi="http://sodipodi.sourceforge.net/DTD/sodipodi-0.dtd"
   xmlns="http://www.w3.org/2000/svg"
   xmlns:svg="http://www.w3.org/2000/svg">
  <defs
     id="defs1">
    <clipPath
       clipPathUnits="userSpaceOnUse"
       id="clipPath2">
      <path
         d="M 2539,4169 H 4239 V 5279 H 2539 V 4169"
         transform="translate(-2.0833333e-6,2.0833333e-4)"
         id="path2" />
    </clipPath>
    <clipPath
       clipPathUnits="userSpaceOnUse"
       id="clipPath4">
      <path
         d="M 2539,4169 H 4239 V 5279 H 2539 V 4169"
         transform="translate(-2.0833333e-6,2.0833333e-4)"
         id="path4" />
    </clipPath>
    <clipPath
       clipPathUnits="userSpaceOnUse"
       id="clipPath6">
      <path
         d="M 2539,4169 H 4239 V 5279 H 2539 V 4169"
         transform="translate(-2.0833333e-6,2.0833333e-4)"
         id="path6" />
    </clipPath>
    <clipPath
       clipPathUnits="userSpaceOnUse"
       id="clipPath8">
      <path
         d="M 2539,4169 H 4239 V 5279 H 2539 V 4169"
         transform="translate(-2.0833333e-6,2.0833333e-4)"
         id="path8" />
    </clipPath>
    <clipPath
       clipPathUnits="userSpaceOnUse"
       id="clipPath10">
      <path
         d="M 2539,4169 H 4239 V 5279 H 2539 V 4169"
         transform="translate(-2.0833333e-6,2.0833333e-4)"
         id="path10" />
    </clipPath>
    <clipPath
       clipPathUnits="userSpaceOnUse"
       id="clipPath12">
      <path
         d="M 2539,4169 H 4239 V 5279 H 2539 V 4169"
         transform="translate(-2.0833333e-6,2.0833333e-4)"
         id="path12" />
    </clipPath>
    <clipPath
       clipPathUnits="userSpaceOnUse"
       id="clipPath14">
      <path
         d="M 2539,4169 H 4239 V 5279 H 2539 V 4169"
         transform="translate(-2.0833333e-6,2.0833333e-4)"
         id="path14" />
    </clipPath>
    <clipPath
       clipPathUnits="userSpaceOnUse"
       id="clipPath16">
      <path
         d="M 2539,4169 H 4239 V 5279 H 2539 V 4169"
         transform="translate(-2.0833333e-6,2.0833333e-4)"
         id="path16" />
    </clipPath>
    <clipPath
       clipPathUnits="userSpaceOnUse"
       id="clipPath26">
      <path
         d="M 2539,4169 H 4239 V 5279 H 2539 V 4169"
         transform="translate(-2.0833333e-6,2.0833333e-4)"
         id="path26" />
    </clipPath>
    <clipPath
       clipPathUnits="userSpaceOnUse"
       id="clipPath28">
      <path
         d="M 2539,4169 H 4239 V 5279 H 2539 V 4169"
         transform="translate(-2.0833333e-6,2.0833333e-4)"
         id="path28" />
    </clipPath>
    <clipPath
       clipPathUnits="userSpaceOnUse"
       id="clipPath30">
      <path
         d="M 2539,4169 H 4239 V 5279 H 2539 V 4169"
         transform="translate(-2.0833333e-6,2.0833333e-4)"
         id="path30" />
    </clipPath>
    <clipPath
       clipPathUnits="userSpaceOnUse"
       id="clipPath32">
      <path
         d="M 2539,4169 H 4239 V 5279 H 2539 V 4169"
         transform="translate(-2.0833333e-6,2.0833333e-4)"
         id="path32" />
    </clipPath>
    <clipPath
       clipPathUnits="userSpaceOnUse"
       id="clipPath39">
      <path
         d="M 2539,4169 H 4239 V 5279 H 2539 V 4169"
         transform="translate(-2.0833333e-6,2.0833333e-4)"
         id="path39" />
    </clipPath>
    <clipPath
       clipPathUnits="userSpaceOnUse"
       id="clipPath41">
      <path
         d="M 2539,4169 H 4239 V 5279 H 2539 V 4169"
         transform="translate(-2.0833333e-6,2.0833333e-4)"
         id="path41" />
    </clipPath>
    <clipPath
       clipPathUnits="userSpaceOnUse"
       id="clipPath43">
      <path
         d="M 2539,4169 H 4239 V 5279 H 2539 V 4169"
         transform="translate(-2.0833333e-6,2.0833333e-4)"
         id="path43" />
    </clipPath>
    <clipPath
       clipPathUnits="userSpaceOnUse"
       id="clipPath45">
      <path
         d="M 2539,4169 H 4239 V 5279 H 2539 V 4169"
         transform="translate(-2.0833333e-6,2.0833333e-4)"
         id="path45" />
    </clipPath>
    <clipPath
       clipPathUnits="userSpaceOnUse"
       id="clipPath47">
      <path
         d="M 2539,4169 H 4239 V 5279 H 2539 V 4169"
         transform="translate(-2.0833333e-6,2.0833333e-4)"
         id="path47" />
    </clipPath>
    <clipPath
       clipPathUnits="userSpaceOnUse"
       id="clipPath49">
      <path
         d="M 2539,4169 H 4239 V 5279 H 2539 V 4169"
         transform="translate(-2.0833333e-6,2.0833333e-4)"
         id="path49" />
    </clipPath>
    <clipPath
       clipPathUnits="userSpaceOnUse"
       id="clipPath51">
      <path
         d="M 2539,4169 H 4239 V 5279 H 2539 V 4169"
         transform="translate(-2.0833333e-6,2.0833333e-4)"
         id="path51" />
    </clipPath>
    <clipPath
       clipPathUnits="userSpaceOnUse"
       id="clipPath53">
      <path
         d="M 2539,4169 H 4239 V 5279 H 2539 V 4169"
         transform="translate(-2.0833333e-6,2.0833333e-4)"
         id="path53" />
    </clipPath>
    <clipPath
       clipPathUnits="userSpaceOnUse"
       id="clipPath55">
      <path
         d="M 2539,4169 H 4239 V 5279 H 2539 V 4169"
         transform="translate(-2.0833333e-6,2.0833333e-4)"
         id="path55" />
    </clipPath>
    <clipPath
       clipPathUnits="userSpaceOnUse"
       id="clipPath57">
      <path
         d="M 2539,4169 H 4239 V 5279 H 2539 V 4169"
         transform="translate(-2.0833333e-6,2.0833333e-4)"
         id="path57" />
    </clipPath>
    <clipPath
       clipPathUnits="userSpaceOnUse"
       id="clipPath59">
      <path
         d="M 2539,4169 H 4239 V 5279 H 2539 V 4169"
         transform="translate(-2.0833333e-6,2.0833333e-4)"
         id="path59" />
    </clipPath>
    <clipPath
       clipPathUnits="userSpaceOnUse"
       id="clipPath61">
      <path
         d="M 2539,4169 H 4239 V 5279 H 2539 V 4169"
         transform="translate(-2.0833333e-6,2.0833333e-4)"
         id="path61" />
    </clipPath>
    <clipPath
       clipPathUnits="userSpaceOnUse"
       id="clipPath63">
      <path
         d="M 2539,4169 H 4239 V 5279 H 2539 V 4169"
         transform="translate(-2.0833333e-6,2.0833333e-4)"
         id="path63" />
    </clipPath>
    <clipPath
       clipPathUnits="userSpaceOnUse"
       id="clipPath65">
      <path
         d="M 2539,4169 H 4239 V 5279 H 2539 V 4169"
         transform="translate(-2.0833333e-6,2.0833333e-4)"
         id="path65" />
    </clipPath>
    <clipPath
       clipPathUnits="userSpaceOnUse"
       id="clipPath67">
      <path
         d="M 2539,4169 H 4239 V 5279 H 2539 V 4169"
         transform="translate(-2.0833333e-6,2.0833333e-4)"
         id="path67" />
    </clipPath>
    <clipPath
       clipPathUnits="userSpaceOnUse"
       id="clipPath69">
      <path
         d="M 2539,4169 H 4239 V 5279 H 2539 V 4169"
         transform="translate(-2.0833333e-6,2.0833333e-4)"
         id="path69" />
    </clipPath>
    <clipPath
       clipPathUnits="userSpaceOnUse"
       id="clipPath71">
      <path
         d="M 2539,4169 H 4239 V 5279 H 2539 V 4169"
         transform="translate(-2.0833333e-6,2.0833333e-4)"
         id="path71" />
    </clipPath>
    <clipPath
       clipPathUnits="userSpaceOnUse"
       id="clipPath73">
      <path
         d="M 2539,4169 H 4239 V 5279 H 2539 V 4169"
         transform="translate(-2.0833333e-6,2.0833333e-4)"
         id="path73" />
    </clipPath>
    <clipPath
       clipPathUnits="userSpaceOnUse"
       id="clipPath75">
      <path
         d="M 2539,4169 H 4239 V 5279 H 2539 V 4169"
         transform="translate(-2.0833333e-6,2.0833333e-4)"
         id="path75" />
    </clipPath>
  </defs>
  <sodipodi:namedview
     id="namedview1"
     pagecolor="#505050"
     bordercolor="#eeeeee"
     borderopacity="1"
     inkscape:showpageshadow="0"
     inkscape:pageopacity="0"
     inkscape:pagecheckerboard="0"
     inkscape:deskcolor="#505050" />
  <g
     id="layer-oc2"
     inkscape:groupmode="layer"
     inkscape:label="Breakers"
     transform="translate(-424.42665,-705.70673)">
    <path
       id="path1"
       d="m 3813,4169 h 333 l -333,1109 z m 333,0 -333,1109 h 93 z"
       style="fill:#d6d6d6;fill-opacity:1;fill-rule:nonzero;stroke:#d6d6d6;stroke-width:1;stroke-linecap:butt;stroke-linejoin:miter;stroke-miterlimit:10;stroke-dasharray:none;stroke-opacity:1"
       transform="matrix(0.15960519,0,0,-0.15931564,19.667464,1547.053)"
       clip-path="url(#clipPath2)" />
    <path
       id="path3"
       d="m 4146,4169 h 92 l -332,1109 z m 92,0 -332,1109 h 332 z"
       style="fill:#d6d6d6;fill-opacity:1;fill-rule:nonzero;stroke:#d6d6d6;stroke-width:1;stroke-linecap:butt;stroke-linejoin:miter;stroke-miterlimit:10;stroke-dasharray:none;stroke-opacity:1"
       transform="matrix(0.15960519,0,0,-0.15931564,19.667464,1547.053)"
       clip-path="url(#clipPath4)" />
    <path
       id="path5"
       d="m 3389,4169 h 332 l -332,1109 z m 332,0 -332,1109 h 92 z"
       style="fill:#d6d6d6;fill-opacity:1;fill-rule:nonzero;stroke:#d6d6d6;stroke-width:1;stroke-linecap:butt;stroke-linejoin:miter;stroke-miterlimit:10;stroke-dasharray:none;stroke-opacity:1"
       transform="matrix(0.15960519,0,0,-0.15931564,19.667464,1547.053)"
       clip-path="url(#clipPath6)" />
    <path
       id="path7"
       d="m 3721,4169 h 92 l -332,1109 z m 92,0 -332,1109 h 332 z"
       style="fill:#d6d6d6;fill-opacity:1;fill-rule:nonzero;stroke:#d6d6d6;stroke-width:1;stroke-linecap:butt;stroke-linejoin:miter;stroke-miterlimit:10;stroke-dasharray:none;stroke-opacity:1"
       transform="matrix(0.15960519,0,0,-0.15931564,19.667464,1547.053)"
       clip-path="url(#clipPath8)" />
    <path
       id="path9"
       d="m 2964,4169 h 332 l -332,1109 z m 332,0 -332,1109 h 92 z"
       style="fill:#d6d6d6;fill-opacity:1;fill-rule:nonzero;stroke:#d6d6d6;stroke-width:1;stroke-linecap:butt;stroke-linejoin:miter;stroke-miterlimit:10;stroke-dasharray:none;stroke-opacity:1"
       transform="matrix(0.15960519,0,0,-0.15931564,19.667464,1547.053)"
       clip-path="url(#clipPath10)" />
    <path
       id="path11"
       d="m 3296,4169 h 93 l -333,1109 z m 93,0 -333,1109 h 333 z"
       style="fill:#d6d6d6;fill-opacity:1;fill-rule:nonzero;stroke:#d6d6d6;stroke-width:1;stroke-linecap:butt;stroke-linejoin:miter;stroke-miterlimit:10;stroke-dasharray:none;stroke-opacity:1"
       transform="matrix(0.15960519,0,0,-0.15931564,19.667464,1547.053)"
       clip-path="url(#clipPath12)" />
    <path
       id="path13"
       d="m 2539,4169 h 332 l -332,1109 z m 332,0 -332,1109 h 92 z"
       style="fill:#d6d6d6;fill-opacity:1;fill-rule:nonzero;stroke:#d6d6d6;stroke-width:1;stroke-linecap:butt;stroke-linejoin:miter;stroke-miterlimit:10;stroke-dasharray:none;stroke-opacity:1"
       transform="matrix(0.15960519,0,0,-0.15931564,19.667464,1547.053)"
       clip-path="url(#clipPath14)" />
    <path
       id="path15"
       d="m 2871,4169 h 93 l -333,1109 z m 93,0 -333,1109 h 333 z"
       style="fill:#d6d6d6;fill-opacity:1;fill-rule:nonzero;stroke:#d6d6d6;stroke-width:1;stroke-linecap:butt;stroke-linejoin:miter;stroke-miterlimit:10;stroke-dasharray:none;stroke-opacity:1"
       transform="matrix(0.15960519,0,0,-0.15931564,19.667464,1547.053)"
       clip-path="url(#clipPath16)" />
    <path
       id="path17"
       d="M 492.73726,706.18508 V 882.86612"
       style="fill:none;stroke:#000000;stroke-width:0.956762;stroke-linecap:round;stroke-linejoin:round;stroke-miterlimit:10;stroke-dasharray:none;stroke-opacity:1" />
    <path
       id="path18"
       d="M 424.90504,882.86612 V 706.18508"
       style="fill:none;stroke:#000000;stroke-width:0.956762;stroke-linecap:round;stroke-linejoin:round;stroke-miterlimit:10;stroke-dasharray:none;stroke-opacity:1" />
    <path
       id="path19"
       d="M 560.56946,706.18508 V 882.86612"
       style="fill:none;stroke:#000000;stroke-width:0.956762;stroke-linecap:round;stroke-linejoin:round;stroke-miterlimit:10;stroke-dasharray:none;stroke-opacity:1" />
    <path
       id="path20"
       d="M 492.73726,882.86612 V 706.18508"
       style="fill:none;stroke:#000000;stroke-width:0.956762;stroke-linecap:round;stroke-linejoin:round;stroke-miterlimit:10;stroke-dasharray:none;stroke-opacity:1" />
    <path
       id="path21"
       d="M 628.24206,706.18508 V 882.86612"
       style="fill:none;stroke:#000000;stroke-width:0.956762;stroke-linecap:round;stroke-linejoin:round;stroke-miterlimit:10;stroke-dasharray:none;stroke-opacity:1" />
    <path
       id="path22"
       d="M 560.56946,882.86612 V 706.18508"
       style="fill:none;stroke:#000000;stroke-width:0.956762;stroke-linecap:round;stroke-linejoin:round;stroke-miterlimit:10;stroke-dasharray:none;stroke-opacity:1" />
    <path
       id="path23"
       d="M 696.07427,706.18508 V 882.86612"
       style="fill:none;stroke:#000000;stroke-width:0.956762;stroke-linecap:round;stroke-linejoin:round;stroke-miterlimit:10;stroke-dasharray:none;stroke-opacity:1" />
    <path
       id="path24"
       d="M 628.24206,882.86612 V 706.18508"
       style="fill:none;stroke:#000000;stroke-width:0.956762;stroke-linecap:round;stroke-linejoin:round;stroke-miterlimit:10;stroke-dasharray:none;stroke-opacity:1" />
    <path
       id="path25"
       d="m 2940,5219 h -378 l 378,-35 z m -378,0 378,-35 h -378 z"
       style="fill:#007f1f;fill-opacity:1;fill-rule:nonzero;stroke:#007f1f;stroke-width:1;stroke-linecap:round;stroke-linejoin:miter;stroke-miterlimit:10;stroke-dasharray:none;stroke-opacity:1"
       transform="matrix(0.15960519,0,0,-0.15931564,19.667464,1547.053)"
       clip-path="url(#clipPath26)" />
    <path
       id="path27"
       d="m 3365,5219 h -378 l 378,-35 z m -378,0 378,-35 h -378 z"
       style="fill:#007f1f;fill-opacity:1;fill-rule:nonzero;stroke:#007f1f;stroke-width:1;stroke-linecap:round;stroke-linejoin:miter;stroke-miterlimit:10;stroke-dasharray:none;stroke-opacity:1"
       transform="matrix(0.15960519,0,0,-0.15931564,19.667464,1547.053)"
       clip-path="url(#clipPath28)" />
    <path
       id="path29"
       d="m 3790,5219 h -378 l 378,-35 z m -378,0 378,-35 h -378 z"
       style="fill:#007f1f;fill-opacity:1;fill-rule:nonzero;stroke:#007f1f;stroke-width:1;stroke-linecap:round;stroke-linejoin:miter;stroke-miterlimit:10;stroke-dasharray:none;stroke-opacity:1"
       transform="matrix(0.15960519,0,0,-0.15931564,19.667464,1547.053)"
       clip-path="url(#clipPath30)" />
    <path
       id="path31"
       d="m 4215,5219 h -378 l 378,-35 z m -378,0 378,-35 h -378 z"
       style="fill:#007f1f;fill-opacity:1;fill-rule:nonzero;stroke:#007f1f;stroke-width:1;stroke-linecap:round;stroke-linejoin:miter;stroke-miterlimit:10;stroke-dasharray:none;stroke-opacity:1"
       transform="matrix(0.15960519,0,0,-0.15931564,19.667464,1547.053)"
       clip-path="url(#clipPath32)" />
    <path
       id="path33"
       d="M 424.90504,709.84934 H 696.07427"
       style="fill:none;stroke:#000000;stroke-width:0.956762;stroke-linecap:round;stroke-linejoin:round;stroke-miterlimit:10;stroke-dasharray:none;stroke-opacity:1" />
    <path
       id="path34"
       d="m 428.57597,715.5847 h 60.33076 v 5.57605 h -60.33076 v -5.57605"
       style="fill:none;stroke:#000000;stroke-width:0.956762;stroke-linecap:round;stroke-linejoin:round;stroke-miterlimit:10;stroke-dasharray:none;stroke-opacity:1" />
    <path
       id="path35"
       d="m 496.40818,715.5847 h 60.33076 v 5.57605 h -60.33076 v -5.57605"
       style="fill:none;stroke:#000000;stroke-width:0.956762;stroke-linecap:round;stroke-linejoin:round;stroke-miterlimit:10;stroke-dasharray:none;stroke-opacity:1" />
    <path
       id="path36"
       d="m 564.24038,715.5847 h 60.33077 v 5.57605 h -60.33077 v -5.57605"
       style="fill:none;stroke:#000000;stroke-width:0.956762;stroke-linecap:round;stroke-linejoin:round;stroke-miterlimit:10;stroke-dasharray:none;stroke-opacity:1" />
    <path
       id="path37"
       d="m 632.07259,715.5847 h 60.33076 v 5.57605 h -60.33076 v -5.57605"
       style="fill:none;stroke:#000000;stroke-width:0.956762;stroke-linecap:round;stroke-linejoin:round;stroke-miterlimit:10;stroke-dasharray:none;stroke-opacity:1" />
    <path
       id="path38"
       d="m 2866,4688 h -230 l 230,-24 z m -230,0 230,-24 h -230 z"
       style="fill:#007f1f;fill-opacity:1;fill-rule:nonzero;stroke:#007f1f;stroke-width:1;stroke-linecap:round;stroke-linejoin:miter;stroke-miterlimit:10;stroke-dasharray:none;stroke-opacity:1"
       transform="matrix(0.15960519,0,0,-0.15931564,19.667464,1547.053)"
       clip-path="url(#clipPath39)" />
    <path
       id="path40"
       d="m 3291,4688 h -230 l 230,-24 z m -230,0 230,-24 h -230 z"
       style="fill:#007f1f;fill-opacity:1;fill-rule:nonzero;stroke:#007f1f;stroke-width:1;stroke-linecap:round;stroke-linejoin:miter;stroke-miterlimit:10;stroke-dasharray:none;stroke-opacity:1"
       transform="matrix(0.15960519,0,0,-0.15931564,19.667464,1547.053)"
       clip-path="url(#clipPath41)" />
    <path
       id="path42"
       d="m 3716,4688 h -230 l 230,-24 z m -230,0 230,-24 h -230 z"
       style="fill:#007f1f;fill-opacity:1;fill-rule:nonzero;stroke:#007f1f;stroke-width:1;stroke-linecap:round;stroke-linejoin:miter;stroke-miterlimit:10;stroke-dasharray:none;stroke-opacity:1"
       transform="matrix(0.15960519,0,0,-0.15931564,19.667464,1547.053)"
       clip-path="url(#clipPath43)" />
    <path
       id="path44"
       d="m 4141,4688 h -230 l 230,-24 z m -230,0 230,-24 h -230 z"
       style="fill:#007f1f;fill-opacity:1;fill-rule:nonzero;stroke:#007f1f;stroke-width:1;stroke-linecap:round;stroke-linejoin:miter;stroke-miterlimit:10;stroke-dasharray:none;stroke-opacity:1"
       transform="matrix(0.15960519,0,0,-0.15931564,19.667464,1547.053)"
       clip-path="url(#clipPath45)" />
    <path
       id="path46"
       d="m 4141,4664 h -230 l 230,-212 z m -230,0 230,-212 h -230 z"
       style="fill:#333333;fill-opacity:1;fill-rule:nonzero;stroke:#333333;stroke-width:1;stroke-linecap:round;stroke-linejoin:miter;stroke-miterlimit:10;stroke-dasharray:none;stroke-opacity:1"
       transform="matrix(0.15960519,0,0,-0.15931564,19.667464,1547.053)"
       clip-path="url(#clipPath47)" />
    <path
       id="path48"
       d="m 3716,4664 h -230 l 230,-212 z m -230,0 230,-212 h -230 z"
       style="fill:#333333;fill-opacity:1;fill-rule:nonzero;stroke:#333333;stroke-width:1;stroke-linecap:round;stroke-linejoin:miter;stroke-miterlimit:10;stroke-dasharray:none;stroke-opacity:1"
       transform="matrix(0.15960519,0,0,-0.15931564,19.667464,1547.053)"
       clip-path="url(#clipPath49)" />
    <path
       id="path50"
       d="m 3291,4664 h -230 l 230,-212 z m -230,0 230,-212 h -230 z"
       style="fill:#333333;fill-opacity:1;fill-rule:nonzero;stroke:#333333;stroke-width:1;stroke-linecap:round;stroke-linejoin:miter;stroke-miterlimit:10;stroke-dasharray:none;stroke-opacity:1"
       transform="matrix(0.15960519,0,0,-0.15931564,19.667464,1547.053)"
       clip-path="url(#clipPath51)" />
    <path
       id="path52"
       d="m 2866,4664 h -230 l 230,-212 z m -230,0 230,-212 h -230 z"
       style="fill:#333333;fill-opacity:1;fill-rule:nonzero;stroke:#333333;stroke-width:1;stroke-linecap:round;stroke-linejoin:miter;stroke-miterlimit:10;stroke-dasharray:none;stroke-opacity:1"
       transform="matrix(0.15960519,0,0,-0.15931564,19.667464,1547.053)"
       clip-path="url(#clipPath53)" />
    <path
       id="path54"
       d="m 4238,4452 h -425 l 425,-50 z m -425,0 425,-50 h -425 z"
       style="fill:#333333;fill-opacity:1;fill-rule:nonzero;stroke:#333333;stroke-width:1;stroke-linecap:round;stroke-linejoin:miter;stroke-miterlimit:10;stroke-dasharray:none;stroke-opacity:1"
       transform="matrix(0.15960519,0,0,-0.15931564,19.667464,1547.053)"
       clip-path="url(#clipPath55)" />
    <path
       id="path56"
       d="m 3813,4452 h -424 l 424,-50 z m -424,0 424,-50 h -424 z"
       style="fill:#333333;fill-opacity:1;fill-rule:nonzero;stroke:#333333;stroke-width:1;stroke-linecap:round;stroke-linejoin:miter;stroke-miterlimit:10;stroke-dasharray:none;stroke-opacity:1"
       transform="matrix(0.15960519,0,0,-0.15931564,19.667464,1547.053)"
       clip-path="url(#clipPath57)" />
    <path
       id="path58"
       d="m 3389,4452 h -425 l 425,-50 z m -425,0 425,-50 h -425 z"
       style="fill:#333333;fill-opacity:1;fill-rule:nonzero;stroke:#333333;stroke-width:1;stroke-linecap:round;stroke-linejoin:miter;stroke-miterlimit:10;stroke-dasharray:none;stroke-opacity:1"
       transform="matrix(0.15960519,0,0,-0.15931564,19.667464,1547.053)"
       clip-path="url(#clipPath59)" />
    <path
       id="path60"
       d="m 2964,4452 h -425 l 425,-50 z m -425,0 425,-50 h -425 z"
       style="fill:#333333;fill-opacity:1;fill-rule:nonzero;stroke:#333333;stroke-width:1;stroke-linecap:round;stroke-linejoin:miter;stroke-miterlimit:10;stroke-dasharray:none;stroke-opacity:1"
       transform="matrix(0.15960519,0,0,-0.15931564,19.667464,1547.053)"
       clip-path="url(#clipPath61)" />
    <path
       id="path62"
       d="m 4238,4402 h -151 l 151,-61 z m -151,0 151,-61 h -151 z"
       style="fill:#333333;fill-opacity:1;fill-rule:nonzero;stroke:#333333;stroke-width:1;stroke-linecap:round;stroke-linejoin:miter;stroke-miterlimit:10;stroke-dasharray:none;stroke-opacity:1"
       transform="matrix(0.15960519,0,0,-0.15931564,19.667464,1547.053)"
       clip-path="url(#clipPath63)" />
    <path
       id="path64"
       d="m 2680,4402 h -141 l 141,-61 z m -141,0 141,-61 h -141 z"
       style="fill:#333333;fill-opacity:1;fill-rule:nonzero;stroke:#333333;stroke-width:1;stroke-linecap:round;stroke-linejoin:miter;stroke-miterlimit:10;stroke-dasharray:none;stroke-opacity:1"
       transform="matrix(0.15960519,0,0,-0.15931564,19.667464,1547.053)"
       clip-path="url(#clipPath65)" />
    <path
       id="path66"
       d="m 4238,4341 h -425 l 425,-54 z m -425,0 425,-54 h -425 z"
       style="fill:#333333;fill-opacity:1;fill-rule:nonzero;stroke:#333333;stroke-width:1;stroke-linecap:round;stroke-linejoin:miter;stroke-miterlimit:10;stroke-dasharray:none;stroke-opacity:1"
       transform="matrix(0.15960519,0,0,-0.15931564,19.667464,1547.053)"
       clip-path="url(#clipPath67)" />
    <path
       id="path68"
       d="m 3813,4341 h -424 l 424,-54 z m -424,0 424,-54 h -424 z"
       style="fill:#333333;fill-opacity:1;fill-rule:nonzero;stroke:#333333;stroke-width:1;stroke-linecap:round;stroke-linejoin:miter;stroke-miterlimit:10;stroke-dasharray:none;stroke-opacity:1"
       transform="matrix(0.15960519,0,0,-0.15931564,19.667464,1547.053)"
       clip-path="url(#clipPath69)" />
    <path
       id="path70"
       d="m 3389,4341 h -425 l 425,-54 z m -425,0 425,-54 h -425 z"
       style="fill:#333333;fill-opacity:1;fill-rule:nonzero;stroke:#333333;stroke-width:1;stroke-linecap:round;stroke-linejoin:miter;stroke-miterlimit:10;stroke-dasharray:none;stroke-opacity:1"
       transform="matrix(0.15960519,0,0,-0.15931564,19.667464,1547.053)"
       clip-path="url(#clipPath71)" />
    <path
       id="path72"
       d="m 2964,4341 h -425 l 425,-54 z m -425,0 425,-54 h -425 z"
       style="fill:#333333;fill-opacity:1;fill-rule:nonzero;stroke:#333333;stroke-width:1;stroke-linecap:round;stroke-linejoin:miter;stroke-miterlimit:10;stroke-dasharray:none;stroke-opacity:1"
       transform="matrix(0.15960519,0,0,-0.15931564,19.667464,1547.053)"
       clip-path="url(#clipPath73)" />
    <path
       id="path74"
       d="M 4087,4402 H 2680 l 1407,-61 z m -1407,0 1407,-61 H 2680 Z"
       style="fill:#adadad;fill-opacity:1;fill-rule:nonzero;stroke:#adadad;stroke-width:1;stroke-linecap:round;stroke-linejoin:miter;stroke-miterlimit:10;stroke-dasharray:none;stroke-opacity:1"
       transform="matrix(0.15960519,0,0,-0.15931564,19.667464,1547.053)"
       clip-path="url(#clipPath75)" />
    <path
       id="path76"
       d="M 424.90504,800.18131 H 696.07427"
       style="fill:none;stroke:#000000;stroke-width:0.956762;stroke-linecap:round;stroke-linejoin:round;stroke-miterlimit:10;stroke-dasharray:none;stroke-opacity:1" />
    <path
       id="path77"
       d="M 424.90504,879.20186 H 696.07427"
       style="fill:none;stroke:#000000;stroke-width:0.956762;stroke-linecap:round;stroke-linejoin:round;stroke-miterlimit:10;stroke-dasharray:none;stroke-opacity:1" />
    <path
       id="path78"
       d="m 440.38675,804.00488 h 36.7092 v 33.77492 h -36.7092 v -33.77492"
       style="fill:none;stroke:#000000;stroke-width:0.956762;stroke-linecap:round;stroke-linejoin:round;stroke-miterlimit:10;stroke-dasharray:none;stroke-opacity:1" />
    <path
       id="path79"
       d="m 440.38675,800.18131 h 36.7092 v 3.82357 h -36.7092 v -3.82357"
       style="fill:none;stroke:#000000;stroke-width:0.956762;stroke-linecap:round;stroke-linejoin:round;stroke-miterlimit:10;stroke-dasharray:none;stroke-opacity:1" />
    <path
       id="path80"
       d="m 508.21895,804.00488 h 36.7092 v 33.77492 h -36.7092 v -33.77492"
       style="fill:none;stroke:#000000;stroke-width:0.956762;stroke-linecap:round;stroke-linejoin:round;stroke-miterlimit:10;stroke-dasharray:none;stroke-opacity:1" />
    <path
       id="path81"
       d="m 508.21895,800.18131 h 36.7092 v 3.82357 h -36.7092 v -3.82357"
       style="fill:none;stroke:#000000;stroke-width:0.956762;stroke-linecap:round;stroke-linejoin:round;stroke-miterlimit:10;stroke-dasharray:none;stroke-opacity:1" />
    <path
       id="path82"
       d="m 576.05117,804.00488 h 36.70919 v 33.77492 h -36.70919 v -33.77492"
       style="fill:none;stroke:#000000;stroke-width:0.956762;stroke-linecap:round;stroke-linejoin:round;stroke-miterlimit:10;stroke-dasharray:none;stroke-opacity:1" />
    <path
       id="path83"
       d="m 576.05117,800.18131 h 36.70919 v 3.82357 h -36.70919 v -3.82357"
       style="fill:none;stroke:#000000;stroke-width:0.956762;stroke-linecap:round;stroke-linejoin:round;stroke-miterlimit:10;stroke-dasharray:none;stroke-opacity:1" />
    <path
       id="path84"
       d="m 643.88337,800.18131 h 36.7092 v 3.82357 h -36.7092 v -3.82357"
       style="fill:none;stroke:#000000;stroke-width:0.956762;stroke-linecap:round;stroke-linejoin:round;stroke-miterlimit:10;stroke-dasharray:none;stroke-opacity:1" />
    <path
       id="path85"
       d="m 424.90504,837.7798 h 271.16923 v 26.28708 H 424.90504 V 837.7798"
       style="fill:none;stroke:#000000;stroke-width:0.956762;stroke-linecap:round;stroke-linejoin:round;stroke-miterlimit:10;stroke-dasharray:none;stroke-opacity:1" />
    <path
       id="path86"
       d="m 447.40938,845.74557 h 224.5645 v 9.71826 h -224.5645 v -9.71826"
       style="fill:none;stroke:#000000;stroke-width:0.956762;stroke-linecap:round;stroke-linejoin:round;stroke-miterlimit:10;stroke-dasharray:none;stroke-opacity:1" />
    <path
       id="path87"
       d="m 643.88337,804.00488 h 36.7092 v 33.77492 h -36.7092 v -33.77492"
       style="fill:none;stroke:#000000;stroke-width:0.956762;stroke-linecap:round;stroke-linejoin:round;stroke-miterlimit:10;stroke-dasharray:none;stroke-opacity:1" />
  </g>
  <g
     id="layer-oc4"
     inkscape:groupmode="layer"
     inkscape:label="0"
     transform="translate(-424.42665,-705.70673)">
    <path
       id="path88"
       d="M 696.07427,706.18508 H 424.90504"
       style="fill:none;stroke:#ffffff;stroke-width:0.15946;stroke-linecap:round;stroke-linejoin:round;stroke-miterlimit:10;stroke-dasharray:none;stroke-opacity:1" />
    <path
       id="path89"
       d="M 696.07427,706.18508 H 424.90504"
       style="fill:none;stroke:#000000;stroke-width:0.956762;stroke-linecap:round;stroke-linejoin:round;stroke-miterlimit:10;stroke-dasharray:none;stroke-opacity:1" />
    <path
       id="path90"
       d="M 696.07427,882.86612 H 424.90504"
       style="fill:none;stroke:#ffffff;stroke-width:0.15946;stroke-linecap:round;stroke-linejoin:round;stroke-miterlimit:10;stroke-dasharray:none;stroke-opacity:1" />
    <path
       id="path91"
       d="M 696.07427,882.86612 H 424.90504"
       style="fill:none;stroke:#000000;stroke-width:0.956762;stroke-linecap:round;stroke-linejoin:round;stroke-miterlimit:10;stroke-dasharray:none;stroke-opacity:1" />
  </g>
</svg>
